<svg xmlns="http://www.w3.org/2000/svg" xmlns:xlink="http://www.w3.org/1999/xlink" width="500" zoomAndPan="magnify" viewBox="0 0 375 374.999991" height="500" preserveAspectRatio="xMidYMid meet" version="1.0"><defs><clipPath id="e873af1ed7"><path d="M 93.976562 77.542969 L 281.023438 77.542969 L 281.023438 264.585938 L 93.976562 264.585938 Z M 93.976562 77.542969 " clip-rule="nonzero"/></clipPath><clipPath id="6e05fc5247"><path d="M 187.5 77.542969 C 135.847656 77.542969 93.976562 119.414062 93.976562 171.0625 C 93.976562 222.714844 135.847656 264.585938 187.5 264.585938 C 239.152344 264.585938 281.023438 222.714844 281.023438 171.0625 C 281.023438 119.414062 239.152344 77.542969 187.5 77.542969 Z M 187.5 77.542969 " clip-rule="nonzero"/></clipPath><clipPath id="ae90b57cfb"><path d="M 113.71875 97.28125 L 261.28125 97.28125 L 261.28125 244.847656 L 113.71875 244.847656 Z M 113.71875 97.28125 " clip-rule="nonzero"/></clipPath><clipPath id="02cda21489"><path d="M 187.5 97.28125 C 146.75 97.28125 113.71875 130.3125 113.71875 171.0625 C 113.71875 211.8125 146.75 244.847656 187.5 244.847656 C 228.25 244.847656 261.28125 211.8125 261.28125 171.0625 C 261.28125 130.3125 228.25 97.28125 187.5 97.28125 Z M 187.5 97.28125 " clip-rule="nonzero"/></clipPath><clipPath id="4b426c735c"><path d="M 167.839844 249.066406 L 207.160156 249.066406 L 207.160156 297.601562 L 167.839844 297.601562 Z M 167.839844 249.066406 " clip-rule="nonzero"/></clipPath><clipPath id="76f7f8105a"><path d="M 180.953125 296.324219 C 182.96875 297.007812 185.261719 297.457031 187.511719 297.457031 C 189.761719 297.457031 191.925781 297.074219 193.917969 296.386719 C 193.960938 296.367188 194.003906 296.367188 194.046875 296.34375 C 201.535156 293.601562 207.054688 286.363281 207.160156 277.898438 L 207.160156 249.066406 L 167.839844 249.066406 L 167.839844 277.878906 C 167.945312 286.40625 173.378906 293.644531 180.953125 296.324219 Z M 180.953125 296.324219 " clip-rule="nonzero"/></clipPath><clipPath id="bc8f2b687d"><path d="M 150.15625 130.332031 L 227.40625 130.332031 L 227.40625 220.332031 L 150.15625 220.332031 Z M 150.15625 130.332031 " clip-rule="nonzero"/></clipPath></defs><g clip-path="url(#e873af1ed7)"><g clip-path="url(#6e05fc5247)"><path fill="#d85bc3" d="M 93.976562 77.542969 L 281.023438 77.542969 L 281.023438 264.585938 L 93.976562 264.585938 Z M 93.976562 77.542969 " fill-opacity="1" fill-rule="nonzero"/></g></g><g clip-path="url(#ae90b57cfb)"><g clip-path="url(#02cda21489)"><path fill="#ffffff" d="M 113.71875 97.28125 L 261.28125 97.28125 L 261.28125 244.847656 L 113.71875 244.847656 Z M 113.71875 97.28125 " fill-opacity="1" fill-rule="nonzero"/></g></g><g clip-path="url(#4b426c735c)"><g clip-path="url(#76f7f8105a)"><path fill="#d85bc3" d="M 167.839844 249.066406 L 207.160156 249.066406 L 207.160156 297.445312 L 167.839844 297.445312 Z M 167.839844 249.066406 " fill-opacity="1" fill-rule="nonzero"/></g></g><g clip-path="url(#bc8f2b687d)"><path fill="#000000" d="M 188.78125 220.308594 C 188.519531 220.308594 188.269531 220.257812 188.027344 220.160156 C 150.890625 203.96875 150.175781 148.417969 150.175781 146.054688 C 150.175781 145.808594 150.222656 145.570312 150.316406 145.339844 C 150.414062 145.109375 150.550781 144.90625 150.726562 144.730469 C 150.902344 144.554688 151.105469 144.421875 151.335938 144.324219 C 151.566406 144.230469 151.808594 144.183594 152.058594 144.183594 C 170.65625 144.089844 187.253906 130.894531 187.40625 130.761719 C 187.746094 130.492188 188.136719 130.355469 188.574219 130.351562 L 188.988281 130.351562 C 189.433594 130.347656 189.828125 130.488281 190.175781 130.761719 C 190.324219 130.894531 206.925781 144.089844 225.519531 144.183594 C 225.769531 144.183594 226.011719 144.230469 226.242188 144.324219 C 226.472656 144.421875 226.675781 144.554688 226.855469 144.730469 C 227.03125 144.90625 227.167969 145.109375 227.261719 145.339844 C 227.359375 145.570312 227.40625 145.808594 227.40625 146.054688 C 227.40625 148.417969 226.6875 203.96875 189.554688 220.160156 C 189.304688 220.261719 189.046875 220.308594 188.78125 220.308594 Z M 154 147.875 C 154.453125 157.507812 158.21875 202.375 188.78125 216.375 C 219.339844 202.375 223.109375 157.507812 223.5625 147.875 C 206.886719 147.070312 192.546875 137.285156 188.78125 134.4375 C 185.011719 137.285156 170.671875 147.070312 154 147.875 Z M 154 147.875 " fill-opacity="1" fill-rule="nonzero"/></g><path fill="#000000" d="M 188.78125 208.164062 C 188.519531 208.171875 188.265625 208.121094 188.027344 208.015625 C 161.027344 196.265625 160.519531 156.007812 160.519531 154.304688 C 160.519531 154.054688 160.566406 153.816406 160.660156 153.585938 C 160.757812 153.355469 160.894531 153.152344 161.070312 152.976562 C 161.246094 152.800781 161.449219 152.667969 161.679688 152.570312 C 161.914062 152.476562 162.152344 152.429688 162.402344 152.429688 C 175.589844 152.429688 187.347656 143.058594 187.460938 142.90625 C 187.808594 142.632812 188.203125 142.492188 188.648438 142.496094 L 188.949219 142.496094 C 189.394531 142.492188 189.789062 142.632812 190.136719 142.90625 C 190.25 143 202.027344 152.277344 215.195312 152.429688 C 215.445312 152.429688 215.6875 152.476562 215.917969 152.570312 C 216.148438 152.667969 216.351562 152.800781 216.527344 152.976562 C 216.707031 153.152344 216.839844 153.355469 216.9375 153.585938 C 217.03125 153.816406 217.082031 154.054688 217.082031 154.304688 C 217.082031 156.007812 216.570312 196.265625 189.570312 208.015625 C 189.320312 208.128906 189.054688 208.179688 188.78125 208.164062 Z M 164.285156 156.101562 C 164.71875 163.878906 167.753906 194.410156 188.78125 204.25 C 209.789062 194.410156 212.785156 163.878906 213.273438 156.101562 C 201.800781 155.371094 191.984375 148.90625 188.78125 146.601562 C 185.632812 148.90625 175.816406 155.371094 164.285156 156.101562 Z M 164.285156 156.101562 " fill-opacity="1" fill-rule="nonzero"/><path fill="#000000" d="M 196.863281 173.757812 L 180.699219 173.757812 C 180.449219 173.757812 180.207031 173.707031 179.976562 173.613281 C 179.746094 173.519531 179.542969 173.382812 179.363281 173.207031 C 179.1875 173.03125 179.050781 172.828125 178.957031 172.597656 C 178.859375 172.371094 178.8125 172.128906 178.8125 171.882812 L 178.8125 168.132812 C 178.820312 167.496094 178.886719 166.867188 179.019531 166.242188 C 179.148438 165.617188 179.339844 165.011719 179.585938 164.425781 C 179.835938 163.839844 180.140625 163.28125 180.5 162.753906 C 180.859375 162.226562 181.265625 161.738281 181.722656 161.289062 C 182.175781 160.839844 182.671875 160.441406 183.207031 160.089844 C 183.738281 159.738281 184.300781 159.441406 184.894531 159.199219 C 185.488281 158.957031 186.097656 158.773438 186.726562 158.648438 C 187.355469 158.523438 187.988281 158.464844 188.628906 158.464844 L 188.929688 158.464844 C 189.574219 158.464844 190.214844 158.527344 190.847656 158.652344 C 191.476562 158.777344 192.09375 158.960938 192.6875 159.207031 C 193.285156 159.453125 193.847656 159.753906 194.386719 160.109375 C 194.921875 160.464844 195.417969 160.871094 195.871094 161.324219 C 196.328125 161.777344 196.734375 162.269531 197.09375 162.804688 C 197.453125 163.335938 197.753906 163.898438 198 164.492188 C 198.246094 165.082031 198.433594 165.695312 198.558594 166.324219 C 198.683594 166.953125 198.746094 167.585938 198.746094 168.226562 L 198.746094 171.976562 C 198.734375 172.214844 198.679688 172.445312 198.578125 172.664062 C 198.476562 172.882812 198.339844 173.074219 198.164062 173.242188 C 197.988281 173.40625 197.789062 173.535156 197.5625 173.625 C 197.339844 173.710938 197.105469 173.757812 196.863281 173.757812 Z M 182.582031 170.007812 L 194.980469 170.007812 L 194.980469 168.132812 C 194.972656 167.742188 194.929688 167.355469 194.847656 166.972656 C 194.765625 166.589844 194.648438 166.21875 194.492188 165.859375 C 194.335938 165.5 194.148438 165.160156 193.925781 164.835938 C 193.707031 164.511719 193.453125 164.214844 193.175781 163.941406 C 192.894531 163.667969 192.589844 163.421875 192.261719 163.207031 C 191.933594 162.992188 191.589844 162.808594 191.222656 162.660156 C 190.859375 162.511719 190.484375 162.402344 190.101562 162.324219 C 189.714844 162.25 189.324219 162.210938 188.929688 162.210938 L 188.628906 162.210938 C 188.234375 162.210938 187.839844 162.25 187.449219 162.328125 C 187.058594 162.40625 186.683594 162.519531 186.316406 162.667969 C 185.949219 162.820312 185.601562 163.007812 185.269531 163.226562 C 184.9375 163.445312 184.632812 163.695312 184.351562 163.972656 C 184.070312 164.253906 183.820312 164.558594 183.601562 164.886719 C 183.378906 165.214844 183.195312 165.558594 183.042969 165.925781 C 182.890625 166.289062 182.773438 166.667969 182.699219 167.054688 C 182.621094 167.441406 182.582031 167.832031 182.582031 168.226562 Z M 182.582031 170.007812 " fill-opacity="1" fill-rule="nonzero"/><path fill="#000000" d="M 198.878906 189.253906 L 178.679688 189.253906 C 178.429688 189.253906 178.191406 189.207031 177.960938 189.113281 C 177.730469 189.019531 177.527344 188.882812 177.347656 188.707031 C 177.171875 188.53125 177.035156 188.328125 176.941406 188.097656 C 176.84375 187.871094 176.796875 187.628906 176.796875 187.382812 L 176.796875 171.882812 C 176.796875 171.632812 176.84375 171.394531 176.941406 171.164062 C 177.035156 170.933594 177.171875 170.734375 177.347656 170.558594 C 177.527344 170.382812 177.730469 170.246094 177.960938 170.152344 C 178.191406 170.054688 178.429688 170.007812 178.679688 170.007812 L 198.878906 170.007812 C 199.128906 170.007812 199.371094 170.054688 199.601562 170.152344 C 199.832031 170.246094 200.035156 170.382812 200.210938 170.558594 C 200.386719 170.734375 200.523438 170.933594 200.621094 171.164062 C 200.714844 171.394531 200.761719 171.632812 200.761719 171.882812 L 200.761719 187.382812 C 200.761719 187.628906 200.714844 187.871094 200.621094 188.097656 C 200.523438 188.328125 200.386719 188.53125 200.210938 188.707031 C 200.035156 188.882812 199.832031 189.019531 199.601562 189.113281 C 199.371094 189.207031 199.128906 189.253906 198.878906 189.253906 Z M 180.566406 185.507812 L 196.996094 185.507812 L 196.996094 173.757812 L 180.566406 173.757812 Z M 180.566406 185.507812 " fill-opacity="1" fill-rule="nonzero"/></svg>