<svg xmlns="http://www.w3.org/2000/svg" xmlns:xlink="http://www.w3.org/1999/xlink" width="500" zoomAndPan="magnify" viewBox="0 0 375 374.999991" height="500" preserveAspectRatio="xMidYMid meet" version="1.0"><defs><clipPath id="e59b17eee4"><path d="M 167.839844 249.347656 L 207.160156 249.347656 L 207.160156 297.882812 L 167.839844 297.882812 Z M 167.839844 249.347656 " clip-rule="nonzero"/></clipPath><clipPath id="8335e53553"><path d="M 180.953125 296.605469 C 182.96875 297.289062 185.261719 297.738281 187.511719 297.738281 C 189.761719 297.738281 191.925781 297.355469 193.917969 296.667969 C 193.960938 296.648438 194.003906 296.648438 194.046875 296.625 C 201.535156 293.882812 207.054688 286.644531 207.160156 278.179688 L 207.160156 249.347656 L 167.839844 249.347656 L 167.839844 278.160156 C 167.945312 286.6875 173.378906 293.925781 180.953125 296.605469 Z M 180.953125 296.605469 " clip-rule="nonzero"/></clipPath><clipPath id="69e7dcf3de"><path d="M 93.414062 77.257812 L 281.585938 77.257812 L 281.585938 265.429688 L 93.414062 265.429688 Z M 93.414062 77.257812 " clip-rule="nonzero"/></clipPath><clipPath id="f404dbcc85"><path d="M 187.5 77.257812 C 135.539062 77.257812 93.414062 119.382812 93.414062 171.34375 C 93.414062 223.308594 135.539062 265.429688 187.5 265.429688 C 239.460938 265.429688 281.585938 223.308594 281.585938 171.34375 C 281.585938 119.382812 239.460938 77.257812 187.5 77.257812 Z M 187.5 77.257812 " clip-rule="nonzero"/></clipPath><clipPath id="d47db1e005"><path d="M 113.71875 97.5625 L 261.28125 97.5625 L 261.28125 245.128906 L 113.71875 245.128906 Z M 113.71875 97.5625 " clip-rule="nonzero"/></clipPath><clipPath id="a6f91a8da8"><path d="M 187.5 97.5625 C 146.75 97.5625 113.71875 130.597656 113.71875 171.34375 C 113.71875 212.09375 146.75 245.128906 187.5 245.128906 C 228.25 245.128906 261.28125 212.09375 261.28125 171.34375 C 261.28125 130.597656 228.25 97.5625 187.5 97.5625 Z M 187.5 97.5625 " clip-rule="nonzero"/></clipPath><clipPath id="897febae7d"><path d="M 151 133.835938 L 169 133.835938 L 169 152 L 151 152 Z M 151 133.835938 " clip-rule="nonzero"/></clipPath><clipPath id="1eec95008d"><path d="M 150.71875 191 L 169 191 L 169 208.835938 L 150.71875 208.835938 Z M 150.71875 191 " clip-rule="nonzero"/></clipPath><clipPath id="9b29b968a6"><path d="M 207 133.835938 L 225.71875 133.835938 L 225.71875 152 L 207 152 Z M 207 133.835938 " clip-rule="nonzero"/></clipPath><clipPath id="b4c84bf3b1"><path d="M 207 191 L 225.71875 191 L 225.71875 208.835938 L 207 208.835938 Z M 207 191 " clip-rule="nonzero"/></clipPath></defs><g clip-path="url(#e59b17eee4)"><g clip-path="url(#8335e53553)"><path fill="#ad58fe" d="M 167.839844 249.347656 L 207.160156 249.347656 L 207.160156 297.726562 L 167.839844 297.726562 Z M 167.839844 249.347656 " fill-opacity="1" fill-rule="nonzero"/></g></g><g clip-path="url(#69e7dcf3de)"><g clip-path="url(#f404dbcc85)"><path fill="#ad58fe" d="M 93.414062 77.257812 L 281.585938 77.257812 L 281.585938 265.429688 L 93.414062 265.429688 Z M 93.414062 77.257812 " fill-opacity="1" fill-rule="nonzero"/></g></g><g clip-path="url(#d47db1e005)"><g clip-path="url(#a6f91a8da8)"><path fill="#ffffff" d="M 113.71875 97.5625 L 261.28125 97.5625 L 261.28125 245.128906 L 113.71875 245.128906 Z M 113.71875 97.5625 " fill-opacity="1" fill-rule="nonzero"/></g></g><path fill="#000000" d="M 190.035156 197.074219 L 186.390625 197.074219 C 184.417969 197.074219 182.816406 195.480469 182.816406 193.515625 L 182.816406 189.496094 C 181.539062 189.121094 180.304688 188.613281 179.132812 187.980469 L 176.277344 190.820312 C 174.882812 192.210938 172.613281 192.210938 171.21875 190.820312 L 168.640625 188.257812 C 167.246094 186.871094 167.246094 184.613281 168.640625 183.226562 L 171.5 180.382812 C 170.863281 179.21875 170.351562 177.992188 169.972656 176.71875 L 165.933594 176.71875 C 163.960938 176.71875 162.359375 175.125 162.359375 173.160156 L 162.359375 169.535156 C 162.359375 167.574219 163.960938 165.976562 165.933594 165.976562 L 169.972656 165.976562 C 170.347656 164.707031 170.859375 163.480469 171.496094 162.316406 L 168.640625 159.472656 C 167.246094 158.085938 167.246094 155.828125 168.640625 154.441406 L 171.21875 151.875 C 172.613281 150.488281 174.878906 150.488281 176.273438 151.875 L 179.132812 154.71875 C 180.304688 154.085938 181.535156 153.578125 182.8125 153.203125 L 182.8125 149.183594 C 182.8125 147.21875 184.417969 145.625 186.390625 145.625 L 190.03125 145.625 C 192.003906 145.625 193.609375 147.21875 193.609375 149.183594 L 193.609375 153.199219 C 194.886719 153.574219 196.117188 154.085938 197.289062 154.71875 L 200.148438 151.875 C 201.542969 150.488281 203.8125 150.488281 205.207031 151.875 L 207.78125 154.441406 C 209.175781 155.828125 209.175781 158.082031 207.78125 159.472656 L 204.925781 162.316406 C 205.5625 163.480469 206.074219 164.707031 206.449219 165.976562 L 210.488281 165.976562 C 212.460938 165.976562 214.066406 167.574219 214.066406 169.535156 L 214.066406 173.160156 C 214.066406 175.125 212.460938 176.71875 210.488281 176.71875 L 206.449219 176.71875 C 206.074219 177.992188 205.5625 179.214844 204.925781 180.382812 L 207.78125 183.226562 C 209.175781 184.613281 209.175781 186.871094 207.78125 188.257812 L 205.207031 190.820312 C 203.8125 192.210938 201.542969 192.210938 200.148438 190.820312 L 197.289062 187.980469 C 196.121094 188.613281 194.886719 189.121094 193.609375 189.5 L 193.609375 193.515625 C 193.609375 195.480469 192.003906 197.074219 190.035156 197.074219 Z M 178.96875 185.792969 C 179.140625 185.792969 179.316406 185.835938 179.472656 185.929688 C 180.894531 186.777344 182.429688 187.410156 184.03125 187.8125 C 184.464844 187.921875 184.769531 188.308594 184.769531 188.757812 L 184.769531 193.519531 C 184.769531 194.40625 185.496094 195.128906 186.390625 195.128906 L 190.03125 195.128906 C 190.925781 195.128906 191.652344 194.40625 191.652344 193.519531 L 191.652344 188.757812 C 191.652344 188.308594 191.957031 187.921875 192.390625 187.8125 C 193.996094 187.410156 195.527344 186.777344 196.949219 185.933594 C 197.335938 185.703125 197.828125 185.761719 198.144531 186.078125 L 201.53125 189.449219 C 202.164062 190.078125 203.1875 190.078125 203.820312 189.449219 L 206.398438 186.882812 C 207.03125 186.253906 207.03125 185.234375 206.398438 184.605469 L 203.011719 181.238281 C 202.695312 180.921875 202.632812 180.433594 202.863281 180.050781 C 203.714844 178.636719 204.351562 177.109375 204.753906 175.511719 C 204.867188 175.082031 205.257812 174.777344 205.703125 174.777344 L 210.492188 174.777344 C 211.382812 174.777344 212.109375 174.054688 212.109375 173.167969 L 212.109375 169.539062 C 212.109375 168.652344 211.382812 167.929688 210.492188 167.929688 L 205.703125 167.929688 C 205.257812 167.929688 204.867188 167.628906 204.757812 167.195312 C 204.351562 165.597656 203.71875 164.074219 202.867188 162.65625 C 202.636719 162.273438 202.695312 161.785156 203.015625 161.46875 L 206.398438 158.101562 C 207.03125 157.472656 207.03125 156.449219 206.398438 155.820312 L 203.824219 153.257812 C 203.191406 152.628906 202.164062 152.628906 201.53125 153.257812 L 198.148438 156.625 C 197.832031 156.941406 197.339844 157.003906 196.953125 156.773438 C 195.53125 155.925781 193.996094 155.292969 192.394531 154.890625 C 191.960938 154.78125 191.65625 154.390625 191.65625 153.945312 L 191.65625 149.183594 C 191.65625 148.292969 190.929688 147.570312 190.035156 147.570312 L 186.394531 147.570312 C 185.5 147.570312 184.773438 148.296875 184.773438 149.183594 L 184.773438 153.945312 C 184.773438 154.390625 184.46875 154.777344 184.035156 154.890625 C 182.433594 155.292969 180.898438 155.921875 179.476562 156.769531 C 179.089844 157 178.597656 156.941406 178.28125 156.625 L 174.894531 153.253906 C 174.261719 152.625 173.238281 152.625 172.605469 153.253906 L 170.027344 155.820312 C 169.722656 156.121094 169.558594 156.523438 169.558594 156.957031 C 169.558594 157.390625 169.722656 157.792969 170.027344 158.097656 L 173.414062 161.464844 C 173.730469 161.78125 173.792969 162.269531 173.5625 162.65625 C 172.710938 164.070312 172.074219 165.597656 171.671875 167.191406 C 171.5625 167.625 171.167969 167.925781 170.722656 167.925781 L 165.933594 167.925781 C 165.042969 167.925781 164.316406 168.648438 164.316406 169.539062 L 164.316406 173.164062 C 164.316406 174.050781 165.042969 174.773438 165.933594 174.773438 L 170.722656 174.773438 C 171.167969 174.773438 171.558594 175.078125 171.671875 175.507812 C 172.074219 177.105469 172.710938 178.632812 173.5625 180.046875 C 173.789062 180.429688 173.730469 180.917969 173.414062 181.234375 L 170.027344 184.601562 C 169.394531 185.230469 169.394531 186.253906 170.027344 186.882812 L 172.605469 189.445312 C 173.238281 190.074219 174.261719 190.074219 174.894531 189.445312 L 178.277344 186.078125 C 178.464844 185.890625 178.71875 185.792969 178.96875 185.792969 Z M 178.96875 185.792969 " fill-opacity="1" fill-rule="nonzero"/><path fill="#000000" d="M 188.210938 183.722656 C 181.355469 183.722656 175.777344 178.171875 175.777344 171.347656 C 175.777344 164.527344 181.355469 158.976562 188.210938 158.976562 C 195.070312 158.976562 200.644531 164.527344 200.644531 171.347656 C 200.644531 178.171875 195.070312 183.722656 188.210938 183.722656 Z M 188.210938 160.925781 C 182.4375 160.925781 177.734375 165.601562 177.734375 171.347656 C 177.734375 177.097656 182.433594 181.773438 188.210938 181.773438 C 193.988281 181.773438 198.6875 177.097656 198.6875 171.347656 C 198.6875 165.601562 193.988281 160.925781 188.210938 160.925781 Z M 188.210938 160.925781 " fill-opacity="1" fill-rule="nonzero"/><g clip-path="url(#897febae7d)"><path fill="#000000" d="M 164.070312 151.695312 C 163.808594 151.695312 163.5625 151.589844 163.378906 151.410156 L 155.207031 143.277344 L 153.949219 144.527344 C 153.6875 144.792969 153.300781 144.878906 152.945312 144.765625 C 152.59375 144.644531 152.339844 144.339844 152.289062 143.976562 L 151.039062 134.972656 C 150.996094 134.667969 151.097656 134.363281 151.316406 134.152344 C 151.53125 133.933594 151.839844 133.832031 152.140625 133.875 L 161.1875 135.117188 C 161.558594 135.167969 161.863281 135.421875 161.980469 135.773438 C 162.097656 136.121094 162.007812 136.511719 161.746094 136.773438 L 160.488281 138.023438 L 168.660156 146.152344 C 169.042969 146.535156 169.042969 147.152344 168.660156 147.53125 L 164.761719 151.410156 C 164.578125 151.59375 164.328125 151.695312 164.070312 151.695312 Z M 155.207031 140.929688 C 155.457031 140.929688 155.707031 141.023438 155.898438 141.214844 L 164.070312 149.34375 L 166.585938 146.839844 L 158.414062 138.710938 C 158.03125 138.332031 158.03125 137.714844 158.414062 137.332031 L 158.972656 136.777344 L 153.152344 135.980469 L 153.957031 141.769531 L 154.515625 141.214844 C 154.707031 141.023438 154.957031 140.929688 155.207031 140.929688 Z M 155.207031 140.929688 " fill-opacity="1" fill-rule="nonzero"/></g><g clip-path="url(#1eec95008d)"><path fill="#000000" d="M 151.730469 208.835938 C 151.472656 208.835938 151.222656 208.734375 151.039062 208.546875 C 150.820312 208.332031 150.71875 208.027344 150.761719 207.726562 L 152.011719 198.722656 C 152.0625 198.359375 152.316406 198.050781 152.667969 197.933594 C 153.019531 197.816406 153.410156 197.90625 153.671875 198.171875 L 154.929688 199.421875 L 163.101562 191.289062 C 163.484375 190.910156 164.105469 190.910156 164.484375 191.289062 L 168.386719 195.167969 C 168.570312 195.351562 168.671875 195.601562 168.671875 195.859375 C 168.671875 196.113281 168.570312 196.363281 168.386719 196.546875 L 160.214844 204.675781 L 161.472656 205.925781 C 161.734375 206.1875 161.824219 206.574219 161.707031 206.925781 C 161.589844 207.277344 161.28125 207.53125 160.914062 207.582031 L 151.867188 208.824219 C 151.820312 208.832031 151.777344 208.835938 151.730469 208.835938 Z M 153.679688 200.929688 L 152.875 206.71875 L 158.695312 205.921875 L 158.136719 205.367188 C 157.753906 204.984375 157.753906 204.367188 158.136719 203.988281 L 166.308594 195.859375 L 163.792969 193.355469 L 155.621094 201.484375 C 155.4375 201.667969 155.1875 201.769531 154.929688 201.769531 C 154.671875 201.769531 154.421875 201.667969 154.238281 201.484375 Z M 153.679688 200.929688 " fill-opacity="1" fill-rule="nonzero"/></g><g clip-path="url(#9b29b968a6)"><path fill="#000000" d="M 212.355469 151.695312 C 212.09375 151.695312 211.847656 151.589844 211.664062 151.410156 L 207.765625 147.53125 C 207.382812 147.148438 207.382812 146.53125 207.765625 146.152344 L 215.933594 138.019531 L 214.679688 136.769531 C 214.414062 136.507812 214.324219 136.121094 214.441406 135.769531 C 214.5625 135.421875 214.867188 135.167969 215.234375 135.117188 L 224.28125 133.875 C 224.585938 133.832031 224.894531 133.933594 225.109375 134.148438 C 225.328125 134.363281 225.429688 134.667969 225.386719 134.96875 L 224.136719 143.972656 C 224.085938 144.339844 223.828125 144.644531 223.476562 144.761719 C 223.125 144.878906 222.738281 144.789062 222.472656 144.527344 L 221.21875 143.277344 L 213.046875 151.40625 C 212.863281 151.59375 212.613281 151.695312 212.355469 151.695312 Z M 209.839844 146.839844 L 212.355469 149.34375 L 220.523438 141.214844 C 220.90625 140.835938 221.527344 140.835938 221.910156 141.214844 L 222.46875 141.769531 L 223.269531 135.980469 L 217.453125 136.777344 L 218.007812 137.332031 C 218.390625 137.714844 218.390625 138.332031 218.007812 138.710938 Z M 209.839844 146.839844 " fill-opacity="1" fill-rule="nonzero"/></g><g clip-path="url(#b4c84bf3b1)"><path fill="#000000" d="M 224.695312 208.835938 C 224.648438 208.835938 224.605469 208.832031 224.558594 208.824219 L 215.511719 207.582031 C 215.144531 207.53125 214.835938 207.277344 214.71875 206.925781 C 214.601562 206.578125 214.691406 206.191406 214.953125 205.929688 L 216.210938 204.679688 L 208.039062 196.546875 C 207.855469 196.363281 207.753906 196.117188 207.753906 195.859375 C 207.753906 195.601562 207.855469 195.355469 208.039062 195.171875 L 211.941406 191.292969 C 212.320312 190.910156 212.941406 190.910156 213.324219 191.292969 L 221.496094 199.421875 L 222.753906 198.171875 C 223.015625 197.910156 223.402344 197.820312 223.757812 197.9375 C 224.109375 198.054688 224.363281 198.359375 224.414062 198.726562 L 225.664062 207.730469 C 225.707031 208.03125 225.601562 208.335938 225.386719 208.550781 C 225.199219 208.734375 224.949219 208.835938 224.695312 208.835938 Z M 217.730469 205.921875 L 223.546875 206.71875 L 222.742188 200.929688 L 222.1875 201.484375 C 221.804688 201.863281 221.183594 201.863281 220.800781 201.484375 L 212.632812 193.355469 L 210.113281 195.859375 L 218.285156 203.988281 C 218.46875 204.171875 218.574219 204.417969 218.574219 204.675781 C 218.574219 204.933594 218.46875 205.179688 218.285156 205.363281 Z M 217.730469 205.921875 " fill-opacity="1" fill-rule="nonzero"/></g></svg>