<svg xmlns="http://www.w3.org/2000/svg" xmlns:xlink="http://www.w3.org/1999/xlink" width="500" zoomAndPan="magnify" viewBox="0 0 375 374.999991" height="500" preserveAspectRatio="xMidYMid meet" version="1.0"><defs><clipPath id="c51181a8bd"><path d="M 93.976562 77.542969 L 281.023438 77.542969 L 281.023438 264.585938 L 93.976562 264.585938 Z M 93.976562 77.542969 " clip-rule="nonzero"/></clipPath><clipPath id="38115d9232"><path d="M 187.5 77.542969 C 135.847656 77.542969 93.976562 119.414062 93.976562 171.0625 C 93.976562 222.714844 135.847656 264.585938 187.5 264.585938 C 239.152344 264.585938 281.023438 222.714844 281.023438 171.0625 C 281.023438 119.414062 239.152344 77.542969 187.5 77.542969 Z M 187.5 77.542969 " clip-rule="nonzero"/></clipPath><clipPath id="bca5f93fe0"><path d="M 113.71875 97.28125 L 261.28125 97.28125 L 261.28125 244.847656 L 113.71875 244.847656 Z M 113.71875 97.28125 " clip-rule="nonzero"/></clipPath><clipPath id="fbebd9c13e"><path d="M 187.5 97.28125 C 146.75 97.28125 113.71875 130.3125 113.71875 171.0625 C 113.71875 211.8125 146.75 244.847656 187.5 244.847656 C 228.25 244.847656 261.28125 211.8125 261.28125 171.0625 C 261.28125 130.3125 228.25 97.28125 187.5 97.28125 Z M 187.5 97.28125 " clip-rule="nonzero"/></clipPath><clipPath id="4f063e5ada"><path d="M 167.839844 249.066406 L 207.160156 249.066406 L 207.160156 297.601562 L 167.839844 297.601562 Z M 167.839844 249.066406 " clip-rule="nonzero"/></clipPath><clipPath id="24c9b6d658"><path d="M 180.953125 296.324219 C 182.96875 297.007812 185.261719 297.457031 187.511719 297.457031 C 189.761719 297.457031 191.925781 297.074219 193.917969 296.386719 C 193.960938 296.367188 194.003906 296.367188 194.046875 296.34375 C 201.535156 293.601562 207.054688 286.363281 207.160156 277.898438 L 207.160156 249.066406 L 167.839844 249.066406 L 167.839844 277.878906 C 167.945312 286.40625 173.378906 293.644531 180.953125 296.324219 Z M 180.953125 296.324219 " clip-rule="nonzero"/></clipPath><clipPath id="03256511ea"><path d="M 138.730469 141 L 144 141 L 144 145 L 138.730469 145 Z M 138.730469 141 " clip-rule="nonzero"/></clipPath><clipPath id="a8904ac373"><path d="M 158 121.546875 L 162 121.546875 L 162 127 L 158 127 Z M 158 121.546875 " clip-rule="nonzero"/></clipPath><clipPath id="f5d1229a8d"><path d="M 148 170 L 219 170 L 219 219.046875 L 148 219.046875 Z M 148 170 " clip-rule="nonzero"/></clipPath><clipPath id="d4167fed11"><path d="M 185 130 L 236.230469 130 L 236.230469 202 L 185 202 Z M 185 130 " clip-rule="nonzero"/></clipPath></defs><g clip-path="url(#c51181a8bd)"><g clip-path="url(#38115d9232)"><path fill="#e0d905" d="M 93.976562 77.542969 L 281.023438 77.542969 L 281.023438 264.585938 L 93.976562 264.585938 Z M 93.976562 77.542969 " fill-opacity="1" fill-rule="nonzero"/></g></g><g clip-path="url(#bca5f93fe0)"><g clip-path="url(#fbebd9c13e)"><path fill="#ffffff" d="M 113.71875 97.28125 L 261.28125 97.28125 L 261.28125 244.847656 L 113.71875 244.847656 Z M 113.71875 97.28125 " fill-opacity="1" fill-rule="nonzero"/></g></g><g clip-path="url(#4f063e5ada)"><g clip-path="url(#24c9b6d658)"><path fill="#e0d905" d="M 167.839844 249.066406 L 207.160156 249.066406 L 207.160156 297.445312 L 167.839844 297.445312 Z M 167.839844 249.066406 " fill-opacity="1" fill-rule="nonzero"/></g></g><path fill="#000000" d="M 174.902344 170.296875 L 174.902344 189.167969 C 174.902344 192.640625 177.714844 195.457031 181.191406 195.457031 L 206.351562 195.457031 C 209.828125 195.457031 212.644531 192.640625 212.644531 189.167969 L 212.644531 170.296875 C 212.644531 166.820312 209.828125 164.003906 206.351562 164.003906 L 181.191406 164.003906 C 177.714844 164.003906 174.902344 166.820312 174.902344 170.296875 Z M 209.496094 170.296875 L 209.496094 189.167969 C 209.496094 190.894531 208.082031 192.3125 206.351562 192.3125 L 181.191406 192.3125 C 179.460938 192.3125 178.046875 190.894531 178.046875 189.167969 L 178.046875 170.296875 C 178.046875 168.566406 179.460938 167.148438 181.191406 167.148438 L 206.351562 167.148438 C 208.082031 167.148438 209.496094 168.566406 209.496094 170.296875 Z M 209.496094 170.296875 " fill-opacity="1" fill-rule="nonzero"/><path fill="#000000" d="M 205.253906 183.664062 L 202.894531 183.664062 L 202.894531 175.800781 L 205.253906 175.800781 L 205.253906 172.65625 L 197.390625 172.65625 L 197.390625 175.800781 L 199.746094 175.800781 L 199.746094 183.664062 L 197.390625 183.664062 L 197.390625 186.808594 L 205.253906 186.808594 Z M 205.253906 183.664062 " fill-opacity="1" fill-rule="nonzero"/><path fill="#000000" d="M 186.207031 183.664062 L 190.328125 183.664062 L 191.019531 186.808594 L 194.242188 186.808594 L 191.367188 173.882812 C 191.207031 173.15625 190.5625 172.65625 189.824219 172.65625 L 186.679688 172.65625 C 185.941406 172.65625 185.3125 173.171875 185.140625 173.882812 L 182.261719 186.808594 L 185.484375 186.808594 L 186.175781 183.664062 Z M 187.953125 175.800781 L 188.582031 175.800781 L 189.636719 180.515625 L 186.914062 180.515625 L 187.96875 175.800781 Z M 187.953125 175.800781 " fill-opacity="1" fill-rule="nonzero"/><g clip-path="url(#03256511ea)"><path fill="#000000" d="M 138.730469 141.203125 L 143.449219 141.203125 L 143.449219 144.347656 L 138.730469 144.347656 Z M 138.730469 141.203125 " fill-opacity="1" fill-rule="nonzero"/></g><path fill="#000000" d="M 176.472656 141.203125 L 181.191406 141.203125 L 181.191406 144.347656 L 176.472656 144.347656 Z M 176.472656 141.203125 " fill-opacity="1" fill-rule="nonzero"/><g clip-path="url(#a8904ac373)"><path fill="#000000" d="M 158.390625 121.546875 L 161.535156 121.546875 L 161.535156 126.261719 L 158.390625 126.261719 Z M 158.390625 121.546875 " fill-opacity="1" fill-rule="nonzero"/></g><path fill="#000000" d="M 143.832031 128.867188 L 146.054688 126.644531 L 149.390625 129.980469 L 147.167969 132.203125 Z M 143.832031 128.867188 " fill-opacity="1" fill-rule="nonzero"/><path fill="#000000" d="M 172.105469 155.558594 L 174.328125 153.335938 L 177.664062 156.671875 L 175.441406 158.894531 Z M 172.105469 155.558594 " fill-opacity="1" fill-rule="nonzero"/><path fill="#000000" d="M 170.527344 129.96875 L 173.863281 126.632812 L 176.085938 128.859375 L 172.75 132.195312 Z M 170.527344 129.96875 " fill-opacity="1" fill-rule="nonzero"/><path fill="#000000" d="M 143.839844 156.691406 L 147.175781 153.355469 L 149.398438 155.582031 L 146.0625 158.917969 Z M 143.839844 156.691406 " fill-opacity="1" fill-rule="nonzero"/><path fill="#000000" d="M 153.671875 154.570312 L 153.671875 160.074219 C 153.671875 163.550781 156.484375 166.363281 159.960938 166.363281 C 163.4375 166.363281 166.253906 163.550781 166.253906 160.074219 L 166.253906 154.570312 C 170.578125 152.257812 173.328125 147.746094 173.328125 142.773438 C 173.328125 138.984375 171.707031 135.351562 168.878906 132.820312 C 166.046875 130.289062 162.242188 129.078125 158.453125 129.503906 C 152.414062 130.179688 147.476562 135.039062 146.703125 141.0625 C 145.996094 146.675781 148.78125 151.976562 153.671875 154.570312 Z M 159.960938 163.21875 C 158.796875 163.21875 157.792969 162.574219 157.257812 161.644531 L 162.667969 161.644531 C 162.117188 162.574219 161.125 163.21875 159.960938 163.21875 Z M 163.105469 158.5 L 156.816406 158.5 L 156.816406 156.929688 L 163.105469 156.929688 Z M 149.820312 141.4375 C 150.402344 136.832031 154.175781 133.121094 158.78125 132.617188 C 159.175781 132.570312 159.570312 132.554688 159.960938 132.554688 C 162.476562 132.554688 164.867188 133.464844 166.769531 135.164062 C 168.941406 137.097656 170.183594 139.882812 170.183594 142.773438 C 170.183594 146.832031 167.777344 150.511719 164.050781 152.148438 C 163.484375 152.398438 163.105469 152.964844 163.105469 153.59375 L 163.105469 153.800781 L 156.816406 153.800781 L 156.816406 153.59375 C 156.816406 152.964844 156.4375 152.398438 155.871094 152.148438 C 151.675781 150.308594 149.253906 146.015625 149.820312 141.453125 Z M 149.820312 141.4375 " fill-opacity="1" fill-rule="nonzero"/><g clip-path="url(#f5d1229a8d)"><path fill="#000000" d="M 148.433594 170.121094 C 148.261719 171.742188 148.167969 173.378906 148.167969 175.011719 C 148.167969 199.292969 167.917969 219.046875 192.199219 219.046875 C 201.730469 219.046875 210.773438 216.058594 218.382812 210.394531 L 216.511719 207.878906 C 209.449219 213.132812 201.054688 215.898438 192.214844 215.898438 C 169.664062 215.898438 151.328125 197.5625 151.328125 175.011719 C 151.328125 173.503906 151.40625 171.976562 151.578125 170.46875 L 148.449219 170.121094 Z M 148.433594 170.121094 " fill-opacity="1" fill-rule="nonzero"/></g><g clip-path="url(#d4167fed11)"><path fill="#000000" d="M 192.199219 130.980469 C 190.015625 130.980469 187.828125 131.136719 185.671875 131.453125 L 186.128906 134.566406 C 188.125 134.269531 190.15625 134.125 192.183594 134.125 C 214.734375 134.125 233.070312 152.460938 233.070312 175.011719 C 233.070312 183.851562 230.304688 192.265625 225.050781 199.308594 L 227.566406 201.179688 C 233.226562 193.585938 236.214844 184.527344 236.214844 174.996094 C 236.214844 150.71875 216.464844 130.964844 192.183594 130.964844 Z M 192.199219 130.980469 " fill-opacity="1" fill-rule="nonzero"/></g><path fill="#000000" d="M 220.019531 204.957031 L 222.140625 207.265625 C 222.945312 206.527344 223.714844 205.757812 224.453125 204.957031 L 222.140625 202.832031 C 221.464844 203.570312 220.757812 204.277344 220.019531 204.957031 Z M 220.019531 204.957031 " fill-opacity="1" fill-rule="nonzero"/><path fill="#000000" d="M 213.757812 149.851562 L 208.382812 149.851562 C 207.515625 149.851562 206.808594 150.558594 206.808594 151.425781 L 206.808594 152.558594 C 206.148438 152.777344 205.519531 153.027344 204.890625 153.34375 L 204.089844 152.539062 C 203.476562 151.925781 202.484375 151.925781 201.871094 152.539062 L 198.050781 156.363281 C 197.4375 156.976562 197.4375 157.964844 198.050781 158.578125 L 198.851562 159.382812 C 198.410156 160.246094 198.082031 161.113281 197.84375 162.007812 L 200.878906 162.824219 C 201.085938 162.085938 201.351562 161.378906 201.730469 160.671875 C 202.28125 159.648438 202.121094 158.375 201.382812 157.480469 L 203.003906 155.859375 C 203.898438 156.597656 205.171875 156.753906 206.195312 156.222656 C 206.917969 155.84375 207.65625 155.558594 208.507812 155.339844 C 209.386719 155.074219 209.984375 154.285156 209.984375 153.375 L 209.984375 152.980469 L 212.21875 152.980469 L 212.21875 153.34375 C 212.21875 154.316406 212.910156 155.167969 213.792969 155.355469 C 214.5625 155.558594 215.316406 155.84375 216.007812 156.222656 C 217.03125 156.769531 218.320312 156.613281 219.199219 155.875 L 220.820312 157.496094 C 220.082031 158.390625 219.925781 159.664062 220.457031 160.671875 C 220.757812 161.253906 221.007812 161.851562 221.199219 162.449219 C 221.558594 163.582031 222.535156 164.351562 223.699219 164.460938 L 223.699219 166.710938 C 222.550781 166.804688 221.558594 167.574219 221.183594 168.738281 C 221.023438 169.257812 220.804688 169.808594 220.476562 170.484375 C 219.925781 171.507812 220.082031 172.78125 220.820312 173.675781 L 219.199219 175.296875 C 218.304688 174.558594 217.03125 174.398438 216.023438 174.933594 C 215.441406 175.234375 214.84375 175.484375 214.246094 175.671875 L 215.191406 178.675781 C 215.882812 178.457031 216.574219 178.175781 217.28125 177.828125 L 218.085938 178.628906 C 218.398438 178.945312 218.792969 179.085938 219.199219 179.085938 C 219.609375 179.085938 220.003906 178.929688 220.316406 178.628906 L 224.140625 174.808594 C 224.753906 174.195312 224.753906 173.203125 224.140625 172.589844 L 223.335938 171.789062 C 223.699219 171.066406 223.949219 170.4375 224.121094 169.871094 L 225.269531 169.871094 C 226.136719 169.871094 226.84375 169.164062 226.84375 168.296875 L 226.84375 162.921875 C 226.84375 162.054688 226.136719 161.347656 225.269531 161.347656 L 224.140625 161.347656 C 223.933594 160.71875 223.667969 160.074219 223.351562 159.429688 L 224.15625 158.625 C 224.769531 158.011719 224.769531 157.023438 224.15625 156.410156 L 220.332031 152.589844 C 219.71875 151.976562 218.730469 151.976562 218.117188 152.589844 L 217.3125 153.390625 C 216.699219 153.074219 216.070312 152.824219 215.394531 152.605469 L 215.394531 151.472656 C 215.394531 150.605469 214.6875 149.898438 213.824219 149.898438 Z M 213.757812 149.851562 " fill-opacity="1" fill-rule="nonzero"/><path fill="#000000" d="M 216.277344 171.476562 C 217.972656 169.980469 218.933594 167.828125 218.933594 165.578125 C 218.933594 161.238281 215.410156 157.714844 211.070312 157.714844 C 208.820312 157.714844 206.667969 158.691406 205.171875 160.371094 L 207.53125 162.449219 C 208.429688 161.425781 209.71875 160.84375 211.070312 160.84375 C 213.664062 160.84375 215.789062 162.96875 215.789062 165.5625 C 215.789062 166.914062 215.207031 168.203125 214.183594 169.101562 L 216.261719 171.460938 Z M 216.277344 171.476562 " fill-opacity="1" fill-rule="nonzero"/><path fill="#000000" d="M 165.464844 190.21875 C 164.601562 190.21875 163.894531 190.925781 163.894531 191.792969 L 163.894531 195.976562 C 163.894531 196.839844 164.601562 197.546875 165.464844 197.546875 L 166.09375 197.546875 C 166.21875 197.925781 166.378906 198.289062 166.535156 198.632812 L 166.09375 199.074219 C 165.480469 199.6875 165.480469 200.675781 166.09375 201.289062 L 169.050781 204.246094 C 169.664062 204.859375 170.65625 204.859375 171.269531 204.246094 L 171.707031 203.808594 C 172.054688 203.980469 172.433594 204.136719 172.792969 204.261719 L 172.792969 204.890625 C 172.792969 205.757812 173.5 206.464844 174.367188 206.464844 L 178.550781 206.464844 C 179.414062 206.464844 180.121094 205.757812 180.121094 204.890625 L 180.121094 204.261719 C 180.5 204.136719 180.859375 203.980469 181.207031 203.824219 L 181.648438 204.261719 C 182.261719 204.875 183.25 204.875 183.863281 204.261719 L 186.820312 201.308594 C 187.433594 200.695312 187.433594 199.703125 186.820312 199.089844 L 186.367188 198.632812 C 186.507812 198.335938 186.632812 198.019531 186.742188 197.707031 L 183.769531 196.667969 C 183.675781 196.949219 183.550781 197.234375 183.394531 197.53125 C 182.953125 198.367188 183.03125 199.371094 183.519531 200.144531 L 182.703125 200.960938 C 181.929688 200.457031 180.910156 200.410156 180.058594 200.851562 C 179.683594 201.054688 179.242188 201.242188 178.785156 201.371094 C 177.875 201.652344 177.214844 202.40625 177.023438 203.304688 L 175.875 203.304688 C 175.6875 202.40625 175.027344 201.652344 174.082031 201.355469 C 173.660156 201.226562 173.21875 201.054688 172.808594 200.820312 C 171.976562 200.378906 170.96875 200.441406 170.199219 200.945312 L 169.382812 200.128906 C 169.867188 199.355469 169.933594 198.335938 169.492188 197.484375 C 169.289062 197.109375 169.097656 196.667969 168.972656 196.210938 C 168.691406 195.300781 167.933594 194.640625 167.039062 194.449219 L 167.039062 193.347656 C 167.886719 193.316406 168.640625 192.734375 168.878906 191.886719 C 169.035156 191.273438 169.253906 190.738281 169.523438 190.21875 C 169.964844 189.386719 169.882812 188.378906 169.398438 187.609375 L 170.214844 186.792969 C 170.984375 187.296875 171.992188 187.359375 172.824219 186.917969 C 173.21875 186.714844 173.53125 186.570312 173.816406 186.476562 L 172.824219 183.488281 C 172.480469 183.597656 172.117188 183.757812 171.726562 183.945312 L 171.269531 183.488281 C 170.65625 182.875 169.664062 182.875 169.050781 183.488281 L 166.09375 186.445312 C 165.480469 187.058594 165.480469 188.050781 166.09375 188.664062 L 166.550781 189.121094 C 166.378906 189.464844 166.234375 189.828125 166.109375 190.203125 L 165.480469 190.203125 Z M 165.464844 190.21875 " fill-opacity="1" fill-rule="nonzero"/><path fill="#000000" d="M 172.070312 190.582031 C 171.347656 191.539062 170.96875 192.6875 170.96875 193.882812 C 170.96875 196.917969 173.4375 199.386719 176.472656 199.386719 C 177.667969 199.386719 178.816406 199.011719 179.777344 198.289062 L 177.890625 195.769531 C 177.480469 196.085938 176.992188 196.242188 176.472656 196.242188 C 175.167969 196.242188 174.113281 195.1875 174.113281 193.882812 C 174.113281 193.363281 174.273438 192.878906 174.585938 192.46875 Z M 172.070312 190.582031 " fill-opacity="1" fill-rule="nonzero"/></svg>