<svg xmlns="http://www.w3.org/2000/svg" xmlns:xlink="http://www.w3.org/1999/xlink" width="500" zoomAndPan="magnify" viewBox="0 0 375 374.999991" height="500" preserveAspectRatio="xMidYMid meet" version="1.0"><defs><clipPath id="ae1b66f2fb"><path d="M 93.414062 77.257812 L 281.585938 77.257812 L 281.585938 265.429688 L 93.414062 265.429688 Z M 93.414062 77.257812 " clip-rule="nonzero"/></clipPath><clipPath id="27a6bb2497"><path d="M 187.5 77.257812 C 135.539062 77.257812 93.414062 119.382812 93.414062 171.34375 C 93.414062 223.308594 135.539062 265.429688 187.5 265.429688 C 239.460938 265.429688 281.585938 223.308594 281.585938 171.34375 C 281.585938 119.382812 239.460938 77.257812 187.5 77.257812 Z M 187.5 77.257812 " clip-rule="nonzero"/></clipPath><clipPath id="90587805d9"><path d="M 113.71875 97.5625 L 261.28125 97.5625 L 261.28125 245.128906 L 113.71875 245.128906 Z M 113.71875 97.5625 " clip-rule="nonzero"/></clipPath><clipPath id="0ea1039595"><path d="M 187.5 97.5625 C 146.75 97.5625 113.71875 130.597656 113.71875 171.34375 C 113.71875 212.09375 146.75 245.128906 187.5 245.128906 C 228.25 245.128906 261.28125 212.09375 261.28125 171.34375 C 261.28125 130.597656 228.25 97.5625 187.5 97.5625 Z M 187.5 97.5625 " clip-rule="nonzero"/></clipPath><clipPath id="016e694c65"><path d="M 167.839844 249.347656 L 207.160156 249.347656 L 207.160156 297.882812 L 167.839844 297.882812 Z M 167.839844 249.347656 " clip-rule="nonzero"/></clipPath><clipPath id="eae660fde3"><path d="M 180.953125 296.605469 C 182.96875 297.289062 185.261719 297.742188 187.511719 297.742188 C 189.761719 297.742188 191.925781 297.355469 193.917969 296.667969 C 193.960938 296.648438 194.003906 296.648438 194.046875 296.625 C 201.535156 293.882812 207.054688 286.644531 207.160156 278.183594 L 207.160156 249.347656 L 167.839844 249.347656 L 167.839844 278.160156 C 167.945312 286.6875 173.378906 293.925781 180.953125 296.605469 Z M 180.953125 296.605469 " clip-rule="nonzero"/></clipPath><clipPath id="a4f2bfcde2"><path d="M 209 129 L 232.894531 129 L 232.894531 168 L 209 168 Z M 209 129 " clip-rule="nonzero"/></clipPath><clipPath id="c6117e39c3"><path d="M 181 201 L 209 201 L 209 212.222656 L 181 212.222656 Z M 181 201 " clip-rule="nonzero"/></clipPath><clipPath id="8744ff3cd8"><path d="M 229 174 L 232.894531 174 L 232.894531 176 L 229 176 Z M 229 174 " clip-rule="nonzero"/></clipPath><clipPath id="6ab1047372"><path d="M 142.144531 146 L 183 146 L 183 195 L 142.144531 195 Z M 142.144531 146 " clip-rule="nonzero"/></clipPath></defs><g clip-path="url(#ae1b66f2fb)"><g clip-path="url(#27a6bb2497)"><path fill="#4fc25b" d="M 93.414062 77.257812 L 281.585938 77.257812 L 281.585938 265.429688 L 93.414062 265.429688 Z M 93.414062 77.257812 " fill-opacity="1" fill-rule="nonzero"/></g></g><g clip-path="url(#90587805d9)"><g clip-path="url(#0ea1039595)"><path fill="#ffffff" d="M 113.71875 97.5625 L 261.28125 97.5625 L 261.28125 245.128906 L 113.71875 245.128906 Z M 113.71875 97.5625 " fill-opacity="1" fill-rule="nonzero"/></g></g><g clip-path="url(#016e694c65)"><g clip-path="url(#eae660fde3)"><path fill="#4fc25b" d="M 167.839844 249.347656 L 207.160156 249.347656 L 207.160156 297.726562 L 167.839844 297.726562 Z M 167.839844 249.347656 " fill-opacity="1" fill-rule="nonzero"/></g></g><path fill="#000000" d="M 154.617188 142.230469 C 154.515625 142.230469 154.417969 142.199219 154.332031 142.132812 C 154.132812 141.976562 154.101562 141.6875 154.257812 141.488281 C 155.300781 140.171875 156.433594 138.898438 157.621094 137.707031 C 157.800781 137.527344 158.089844 137.527344 158.269531 137.707031 C 158.449219 137.882812 158.449219 138.171875 158.269531 138.351562 C 157.105469 139.519531 155.996094 140.765625 154.972656 142.058594 C 154.882812 142.171875 154.75 142.230469 154.617188 142.230469 Z M 161.679688 135.148438 C 161.546875 135.148438 161.414062 135.089844 161.324219 134.972656 C 161.167969 134.777344 161.199219 134.488281 161.398438 134.332031 C 162.714844 133.285156 164.105469 132.300781 165.53125 131.410156 C 165.746094 131.277344 166.027344 131.34375 166.160156 131.558594 C 166.296875 131.769531 166.230469 132.054688 166.015625 132.1875 C 164.617188 133.058594 163.257812 134.019531 161.964844 135.046875 C 161.882812 135.113281 161.78125 135.148438 161.679688 135.148438 Z M 170.171875 129.855469 C 170 129.855469 169.835938 129.757812 169.757812 129.59375 C 169.648438 129.363281 169.746094 129.09375 169.972656 128.984375 C 171.496094 128.261719 173.074219 127.625 174.667969 127.085938 C 174.90625 127.003906 175.167969 127.132812 175.246094 127.371094 C 175.328125 127.609375 175.199219 127.871094 174.960938 127.949219 C 173.402344 128.480469 171.855469 129.105469 170.367188 129.808594 C 170.304688 129.839844 170.234375 129.855469 170.171875 129.855469 Z M 170.171875 129.855469 " fill-opacity="1" fill-rule="nonzero"/><path fill="#000000" d="M 177.613281 211.402344 C 177.574219 211.402344 177.535156 211.398438 177.496094 211.386719 C 175.871094 210.957031 174.25 210.425781 172.6875 209.808594 C 172.449219 209.71875 172.335938 209.453125 172.425781 209.21875 C 172.519531 208.980469 172.785156 208.867188 173.019531 208.957031 C 174.554688 209.5625 176.140625 210.082031 177.730469 210.503906 C 177.976562 210.570312 178.121094 210.820312 178.054688 211.0625 C 178.003906 211.269531 177.816406 211.402344 177.613281 211.402344 Z M 168.304688 207.742188 C 168.230469 207.742188 168.15625 207.722656 168.089844 207.6875 C 166.605469 206.894531 165.152344 206.007812 163.765625 205.046875 C 163.558594 204.90625 163.507812 204.621094 163.652344 204.414062 C 163.792969 204.203125 164.078125 204.152344 164.289062 204.296875 C 165.644531 205.234375 167.066406 206.105469 168.519531 206.878906 C 168.742188 207 168.828125 207.277344 168.707031 207.5 C 168.625 207.652344 168.46875 207.742188 168.304688 207.742188 Z M 160.078125 202.046875 C 159.96875 202.046875 159.863281 202.007812 159.777344 201.933594 C 158.511719 200.824219 157.296875 199.628906 156.167969 198.382812 C 155.996094 198.195312 156.011719 197.90625 156.199219 197.738281 C 156.386719 197.566406 156.675781 197.582031 156.84375 197.769531 C 157.949219 198.988281 159.140625 200.160156 160.378906 201.246094 C 160.570312 201.410156 160.585938 201.699219 160.421875 201.890625 C 160.332031 201.992188 160.203125 202.046875 160.078125 202.046875 Z M 153.359375 194.636719 C 153.214844 194.636719 153.074219 194.570312 152.984375 194.445312 C 152.003906 193.074219 151.09375 191.636719 150.277344 190.167969 C 150.15625 189.945312 150.234375 189.667969 150.457031 189.546875 C 150.675781 189.421875 150.953125 189.503906 151.078125 189.722656 C 151.875 191.160156 152.769531 192.570312 153.730469 193.910156 C 153.875 194.117188 153.828125 194.402344 153.625 194.550781 C 153.542969 194.605469 153.449219 194.636719 153.359375 194.636719 Z M 153.359375 194.636719 " fill-opacity="1" fill-rule="nonzero"/><g clip-path="url(#a4f2bfcde2)"><path fill="#000000" d="M 232.351562 167.421875 C 232.109375 167.421875 231.90625 167.226562 231.898438 166.980469 C 231.828125 165.332031 231.664062 163.671875 231.40625 162.050781 C 231.367188 161.800781 231.539062 161.566406 231.789062 161.527344 C 232.039062 161.488281 232.273438 161.65625 232.3125 161.90625 C 232.570312 163.5625 232.738281 165.257812 232.808594 166.945312 C 232.820312 167.195312 232.625 167.410156 232.371094 167.421875 C 232.367188 167.421875 232.359375 167.421875 232.351562 167.421875 Z M 230.796875 157.539062 C 230.59375 157.539062 230.410156 157.40625 230.355469 157.207031 C 229.914062 155.621094 229.375 154.042969 228.75 152.515625 C 228.65625 152.285156 228.769531 152.015625 229 151.921875 C 229.234375 151.824219 229.503906 151.9375 229.597656 152.171875 C 230.234375 153.730469 230.785156 155.339844 231.238281 156.960938 C 231.304688 157.203125 231.160156 157.453125 230.917969 157.523438 C 230.878906 157.535156 230.835938 157.539062 230.796875 157.539062 Z M 227.015625 148.28125 C 226.855469 148.28125 226.699219 148.195312 226.617188 148.046875 C 225.824219 146.601562 224.9375 145.191406 223.980469 143.847656 C 223.835938 143.640625 223.882812 143.355469 224.089844 143.210938 C 224.292969 143.0625 224.578125 143.113281 224.726562 143.316406 C 225.703125 144.691406 226.605469 146.132812 227.417969 147.605469 C 227.539062 147.824219 227.457031 148.105469 227.238281 148.226562 C 227.167969 148.265625 227.089844 148.28125 227.015625 148.28125 Z M 221.222656 140.128906 C 221.097656 140.128906 220.972656 140.078125 220.882812 139.976562 C 219.78125 138.753906 218.59375 137.578125 217.359375 136.488281 C 217.171875 136.320312 217.152344 136.03125 217.320312 135.839844 C 217.488281 135.652344 217.777344 135.636719 217.964844 135.800781 C 219.226562 136.917969 220.4375 138.117188 221.5625 139.367188 C 221.730469 139.554688 221.714844 139.84375 221.527344 140.011719 C 221.441406 140.089844 221.332031 140.128906 221.222656 140.128906 Z M 213.726562 133.503906 C 213.636719 133.503906 213.542969 133.476562 213.464844 133.421875 C 212.113281 132.476562 210.691406 131.601562 209.242188 130.820312 C 209.019531 130.699219 208.9375 130.421875 209.058594 130.203125 C 209.175781 129.980469 209.453125 129.894531 209.675781 130.015625 C 211.15625 130.8125 212.605469 131.707031 213.988281 132.671875 C 214.195312 132.816406 214.246094 133.101562 214.101562 133.308594 C 214.011719 133.433594 213.871094 133.503906 213.726562 133.503906 Z M 213.726562 133.503906 " fill-opacity="1" fill-rule="nonzero"/></g><path fill="#a6a6a6" d="M 220.808594 168.808594 C 220.808594 169.859375 220.757812 170.902344 220.652344 171.945312 C 220.550781 172.988281 220.398438 174.023438 220.191406 175.054688 C 219.988281 176.082031 219.734375 177.097656 219.429688 178.097656 C 219.125 179.101562 218.773438 180.089844 218.371094 181.054688 C 217.96875 182.023438 217.523438 182.972656 217.027344 183.894531 C 216.535156 184.820312 215.996094 185.71875 215.414062 186.589844 C 214.832031 187.460938 214.207031 188.300781 213.542969 189.113281 C 212.878906 189.921875 212.175781 190.699219 211.433594 191.4375 C 210.691406 192.179688 209.917969 192.882812 209.105469 193.546875 C 208.296875 194.210938 207.457031 194.835938 206.585938 195.417969 C 205.714844 196 204.816406 196.539062 203.890625 197.03125 C 202.964844 197.527344 202.019531 197.972656 201.050781 198.375 C 200.082031 198.777344 199.097656 199.128906 198.09375 199.433594 C 197.09375 199.738281 196.078125 199.992188 195.050781 200.195312 C 194.019531 200.402344 192.984375 200.554688 191.941406 200.65625 C 190.898438 200.761719 189.855469 200.8125 188.804688 200.8125 C 187.757812 200.8125 186.710938 200.761719 185.667969 200.65625 C 184.625 200.554688 183.589844 200.402344 182.5625 200.195312 C 181.535156 199.992188 180.519531 199.738281 179.515625 199.433594 C 178.511719 199.128906 177.527344 198.777344 176.558594 198.375 C 175.589844 197.972656 174.644531 197.527344 173.71875 197.03125 C 172.796875 196.539062 171.898438 196 171.027344 195.417969 C 170.15625 194.835938 169.3125 194.210938 168.503906 193.546875 C 167.695312 192.882812 166.917969 192.179688 166.175781 191.4375 C 165.4375 190.699219 164.734375 189.921875 164.066406 189.113281 C 163.402344 188.300781 162.78125 187.460938 162.195312 186.589844 C 161.613281 185.71875 161.078125 184.820312 160.582031 183.894531 C 160.089844 182.972656 159.640625 182.023438 159.238281 181.054688 C 158.839844 180.089844 158.484375 179.101562 158.183594 178.097656 C 157.878906 177.097656 157.625 176.082031 157.417969 175.054688 C 157.214844 174.023438 157.0625 172.988281 156.957031 171.945312 C 156.855469 170.902344 156.804688 169.859375 156.804688 168.808594 C 156.804688 167.761719 156.855469 166.714844 156.957031 165.671875 C 157.0625 164.628906 157.214844 163.59375 157.417969 162.566406 C 157.625 161.539062 157.878906 160.523438 158.183594 159.519531 C 158.484375 158.515625 158.839844 157.53125 159.238281 156.5625 C 159.640625 155.59375 160.089844 154.648438 160.582031 153.722656 C 161.078125 152.800781 161.613281 151.902344 162.195312 151.03125 C 162.78125 150.160156 163.402344 149.320312 164.066406 148.507812 C 164.734375 147.699219 165.4375 146.921875 166.175781 146.179688 C 166.917969 145.441406 167.695312 144.738281 168.503906 144.070312 C 169.3125 143.40625 170.15625 142.785156 171.027344 142.203125 C 171.898438 141.621094 172.796875 141.082031 173.71875 140.585938 C 174.644531 140.09375 175.589844 139.644531 176.558594 139.246094 C 177.527344 138.84375 178.511719 138.492188 179.515625 138.1875 C 180.519531 137.882812 181.535156 137.628906 182.5625 137.421875 C 183.589844 137.21875 184.625 137.066406 185.667969 136.960938 C 186.710938 136.859375 187.757812 136.808594 188.804688 136.808594 C 189.855469 136.808594 190.898438 136.859375 191.941406 136.960938 C 192.984375 137.066406 194.019531 137.21875 195.050781 137.421875 C 196.078125 137.628906 197.09375 137.882812 198.09375 138.1875 C 199.097656 138.492188 200.082031 138.84375 201.050781 139.246094 C 202.019531 139.644531 202.964844 140.09375 203.890625 140.585938 C 204.816406 141.082031 205.714844 141.621094 206.585938 142.203125 C 207.457031 142.785156 208.296875 143.40625 209.105469 144.070312 C 209.917969 144.738281 210.691406 145.441406 211.433594 146.179688 C 212.175781 146.921875 212.878906 147.699219 213.542969 148.507812 C 214.207031 149.320312 214.832031 150.160156 215.414062 151.03125 C 215.996094 151.902344 216.535156 152.800781 217.027344 153.722656 C 217.523438 154.648438 217.96875 155.59375 218.371094 156.5625 C 218.773438 157.53125 219.125 158.515625 219.429688 159.519531 C 219.734375 160.523438 219.988281 161.539062 220.191406 162.566406 C 220.398438 163.59375 220.550781 164.628906 220.652344 165.671875 C 220.757812 166.714844 220.808594 167.761719 220.808594 168.808594 Z M 220.808594 168.808594 " fill-opacity="1" fill-rule="nonzero"/><path fill="#ffffff" d="M 208.941406 149.164062 L 216.621094 156.195312 C 218.515625 157.929688 218.644531 160.867188 216.910156 162.761719 C 215.175781 164.652344 212.238281 164.78125 210.347656 163.050781 L 202.667969 156.015625 Z M 208.941406 149.164062 " fill-opacity="1" fill-rule="nonzero"/><path fill="#000000" d="M 213.480469 164.722656 C 212.25 164.722656 211.015625 164.28125 210.039062 163.386719 L 202.355469 156.351562 C 202.171875 156.179688 202.160156 155.890625 202.328125 155.703125 C 202.5 155.519531 202.789062 155.507812 202.976562 155.675781 L 210.65625 162.710938 C 212.359375 164.269531 215.011719 164.15625 216.574219 162.453125 C 217.328125 161.628906 217.71875 160.558594 217.667969 159.441406 C 217.621094 158.320312 217.136719 157.289062 216.3125 156.535156 L 208.632812 149.5 C 208.445312 149.328125 208.433594 149.039062 208.605469 148.851562 C 208.773438 148.667969 209.066406 148.65625 209.25 148.824219 L 216.929688 155.859375 C 219.007812 157.761719 219.148438 160.996094 217.246094 163.070312 C 216.242188 164.167969 214.863281 164.722656 213.480469 164.722656 Z M 213.480469 164.722656 " fill-opacity="1" fill-rule="nonzero"/><path fill="#d9d9d9" d="M 207.578125 145.859375 L 210.113281 148.273438 C 210.585938 148.703125 210.617188 149.433594 210.1875 149.90625 L 203.519531 157.183594 C 203.085938 157.65625 202.355469 157.6875 201.886719 157.257812 L 199.292969 154.824219 Z M 207.578125 145.859375 " fill-opacity="1" fill-rule="nonzero"/><path fill="#000000" d="M 202.664062 158.019531 C 202.261719 158.019531 201.875 157.867188 201.574219 157.59375 C 201.574219 157.59375 201.574219 157.589844 201.570312 157.589844 L 198.980469 155.160156 C 198.796875 154.988281 198.785156 154.699219 198.957031 154.511719 C 199.132812 154.328125 199.421875 154.320312 199.605469 154.492188 L 202.195312 156.921875 C 202.332031 157.046875 202.511719 157.109375 202.695312 157.101562 C 202.882812 157.09375 203.054688 157.015625 203.179688 156.875 L 209.847656 149.597656 C 209.976562 149.460938 210.039062 149.28125 210.03125 149.09375 C 210.023438 148.90625 209.941406 148.734375 209.804688 148.609375 C 209.804688 148.609375 209.800781 148.605469 209.800781 148.605469 L 207.261719 146.191406 C 207.078125 146.015625 207.070312 145.726562 207.246094 145.546875 C 207.421875 145.363281 207.710938 145.355469 207.890625 145.527344 L 210.425781 147.9375 C 210.742188 148.230469 210.925781 148.625 210.945312 149.054688 C 210.964844 149.484375 210.8125 149.898438 210.523438 150.214844 L 203.855469 157.492188 C 203.5625 157.8125 203.167969 157.996094 202.738281 158.015625 C 202.710938 158.015625 202.6875 158.019531 202.664062 158.019531 Z M 202.664062 158.019531 " fill-opacity="1" fill-rule="nonzero"/><path fill="#000000" d="M 203.855469 128.519531 C 204.234375 128.898438 204.589844 129.292969 204.929688 129.707031 C 205.269531 130.117188 205.589844 130.546875 205.886719 130.992188 C 206.183594 131.4375 206.457031 131.894531 206.710938 132.367188 C 206.960938 132.839844 207.1875 133.320312 207.394531 133.816406 C 207.597656 134.308594 207.777344 134.8125 207.933594 135.324219 C 208.089844 135.835938 208.21875 136.351562 208.324219 136.878906 C 208.425781 137.402344 208.507812 137.929688 208.558594 138.460938 C 208.609375 138.996094 208.636719 139.527344 208.636719 140.0625 C 208.636719 140.597656 208.609375 141.132812 208.558594 141.664062 C 208.507812 142.195312 208.425781 142.722656 208.324219 143.246094 C 208.21875 143.773438 208.089844 144.289062 207.933594 144.800781 C 207.777344 145.3125 207.597656 145.816406 207.394531 146.3125 C 207.191406 146.804688 206.960938 147.289062 206.710938 147.757812 C 206.457031 148.230469 206.183594 148.6875 205.886719 149.132812 C 205.589844 149.578125 205.269531 150.007812 204.929688 150.421875 C 204.59375 150.832031 204.234375 151.230469 203.855469 151.605469 C 203.476562 151.984375 203.082031 152.34375 202.667969 152.683594 C 202.253906 153.023438 201.824219 153.339844 201.382812 153.636719 C 200.9375 153.933594 200.480469 154.210938 200.007812 154.460938 C 199.535156 154.714844 199.054688 154.941406 198.558594 155.144531 C 198.066406 155.351562 197.5625 155.53125 197.050781 155.6875 C 196.539062 155.839844 196.019531 155.972656 195.496094 156.074219 C 194.972656 156.179688 194.445312 156.257812 193.910156 156.3125 C 193.378906 156.363281 192.84375 156.390625 192.3125 156.390625 C 191.777344 156.390625 191.242188 156.363281 190.710938 156.3125 C 190.179688 156.257812 189.648438 156.179688 189.125 156.074219 C 188.601562 155.972656 188.082031 155.839844 187.570312 155.6875 C 187.058594 155.53125 186.558594 155.351562 186.0625 155.148438 C 185.570312 154.941406 185.085938 154.714844 184.613281 154.460938 C 184.144531 154.210938 183.683594 153.933594 183.242188 153.636719 C 182.796875 153.339844 182.367188 153.023438 181.953125 152.683594 C 181.539062 152.34375 181.144531 151.984375 180.765625 151.609375 C 180.386719 151.230469 180.03125 150.832031 179.691406 150.421875 C 179.351562 150.007812 179.03125 149.578125 178.734375 149.132812 C 178.4375 148.6875 178.164062 148.230469 177.914062 147.757812 C 177.660156 147.289062 177.433594 146.804688 177.226562 146.3125 C 177.023438 145.816406 176.84375 145.3125 176.6875 144.800781 C 176.53125 144.289062 176.402344 143.773438 176.296875 143.25 C 176.195312 142.722656 176.117188 142.195312 176.0625 141.664062 C 176.011719 141.132812 175.984375 140.597656 175.984375 140.0625 C 175.984375 139.527344 176.011719 138.996094 176.0625 138.464844 C 176.117188 137.929688 176.195312 137.402344 176.296875 136.878906 C 176.402344 136.355469 176.53125 135.835938 176.6875 135.324219 C 176.84375 134.8125 177.023438 134.308594 177.226562 133.816406 C 177.433594 133.320312 177.660156 132.839844 177.910156 132.367188 C 178.164062 131.894531 178.4375 131.4375 178.734375 130.992188 C 179.03125 130.546875 179.351562 130.121094 179.691406 129.707031 C 180.03125 129.292969 180.386719 128.898438 180.765625 128.519531 C 181.144531 128.140625 181.539062 127.78125 181.953125 127.441406 C 182.367188 127.105469 182.796875 126.785156 183.238281 126.488281 C 183.683594 126.191406 184.144531 125.917969 184.613281 125.664062 C 185.085938 125.414062 185.570312 125.183594 186.0625 124.980469 C 186.554688 124.773438 187.058594 124.59375 187.570312 124.441406 C 188.082031 124.285156 188.601562 124.15625 189.125 124.050781 C 189.648438 123.945312 190.179688 123.867188 190.710938 123.816406 C 191.242188 123.761719 191.777344 123.738281 192.308594 123.738281 C 192.84375 123.738281 193.378906 123.761719 193.910156 123.816406 C 194.441406 123.867188 194.972656 123.945312 195.496094 124.050781 C 196.019531 124.15625 196.539062 124.285156 197.050781 124.441406 C 197.5625 124.59375 198.0625 124.773438 198.558594 124.980469 C 199.050781 125.183594 199.535156 125.414062 200.007812 125.664062 C 200.476562 125.917969 200.9375 126.191406 201.378906 126.488281 C 201.824219 126.785156 202.253906 127.101562 202.667969 127.441406 C 203.082031 127.78125 203.476562 128.140625 203.855469 128.519531 Z M 203.855469 128.519531 " fill-opacity="1" fill-rule="nonzero"/><path fill="#000000" d="M 192.292969 156.847656 C 190.292969 156.847656 188.332031 156.496094 186.460938 155.796875 C 184.429688 155.042969 182.582031 153.910156 180.976562 152.4375 C 179.367188 150.96875 178.082031 149.226562 177.148438 147.265625 C 176.183594 145.238281 175.644531 143.0625 175.542969 140.796875 C 175.445312 138.535156 175.792969 136.320312 176.574219 134.214844 C 177.332031 132.179688 178.464844 130.332031 179.933594 128.726562 C 181.40625 127.121094 183.148438 125.832031 185.105469 124.898438 C 187.136719 123.933594 189.3125 123.394531 191.574219 123.296875 C 193.839844 123.195312 196.054688 123.542969 198.160156 124.328125 C 200.195312 125.085938 202.039062 126.214844 203.648438 127.6875 C 205.253906 129.160156 206.542969 130.898438 207.476562 132.859375 C 208.441406 134.886719 208.980469 137.0625 209.078125 139.328125 C 209.179688 141.589844 208.832031 143.804688 208.046875 145.910156 C 207.289062 147.945312 206.160156 149.792969 204.6875 151.398438 C 203.214844 153.007812 201.476562 154.292969 199.515625 155.226562 C 197.488281 156.191406 195.308594 156.730469 193.046875 156.832031 C 192.796875 156.839844 192.542969 156.847656 192.292969 156.847656 Z M 192.320312 124.195312 C 192.085938 124.195312 191.851562 124.199219 191.617188 124.210938 C 187.382812 124.394531 183.472656 126.21875 180.609375 129.34375 C 177.746094 132.46875 176.273438 136.523438 176.457031 140.757812 C 176.644531 144.992188 178.46875 148.902344 181.59375 151.765625 C 184.71875 154.628906 188.773438 156.101562 193.007812 155.917969 C 201.75 155.53125 208.546875 148.109375 208.164062 139.367188 C 207.792969 130.863281 200.753906 124.195312 192.320312 124.195312 Z M 192.320312 124.195312 " fill-opacity="1" fill-rule="nonzero"/><path fill="#ffffff" d="M 192.421875 147.488281 C 197.230469 147.488281 201.3125 144.355469 202.738281 140.019531 C 201.3125 135.683594 197.230469 132.554688 192.421875 132.554688 C 187.609375 132.554688 183.527344 135.683594 182.105469 140.019531 C 183.527344 144.355469 187.609375 147.488281 192.421875 147.488281 Z M 192.421875 147.488281 " fill-opacity="1" fill-rule="nonzero"/><path fill="#000000" d="M 192.421875 147.945312 C 189.988281 147.945312 187.671875 147.183594 185.71875 145.746094 C 183.808594 144.339844 182.40625 142.410156 181.667969 140.164062 C 181.640625 140.070312 181.640625 139.96875 181.667969 139.878906 C 182.40625 137.632812 183.808594 135.699219 185.71875 134.292969 C 187.671875 132.855469 189.988281 132.097656 192.421875 132.097656 C 194.851562 132.097656 197.167969 132.855469 199.121094 134.292969 C 201.03125 135.699219 202.433594 137.632812 203.171875 139.878906 C 203.203125 139.96875 203.203125 140.070312 203.171875 140.164062 C 202.433594 142.410156 201.03125 144.339844 199.121094 145.746094 C 197.167969 147.183594 194.851562 147.945312 192.421875 147.945312 Z M 182.585938 140.019531 C 184.03125 144.21875 187.964844 147.03125 192.421875 147.03125 C 196.875 147.03125 200.808594 144.21875 202.253906 140.019531 C 200.808594 135.820312 196.875 133.011719 192.421875 133.011719 C 187.964844 133.011719 184.03125 135.820312 182.585938 140.019531 Z M 182.585938 140.019531 " fill-opacity="1" fill-rule="nonzero"/><path fill="#000000" d="M 196.492188 137.574219 C 196.921875 138.289062 197.171875 139.125 197.171875 140.019531 C 197.171875 142.644531 195.042969 144.773438 192.421875 144.773438 C 189.796875 144.773438 187.667969 142.644531 187.667969 140.019531 C 187.667969 137.394531 189.796875 135.269531 192.421875 135.269531 C 192.769531 135.269531 193.109375 135.308594 193.4375 135.378906 Z M 196.492188 137.574219 " fill-opacity="1" fill-rule="nonzero"/><path fill="#000000" d="M 192.417969 145.230469 C 189.546875 145.230469 187.210938 142.890625 187.210938 140.019531 C 187.210938 137.148438 189.546875 134.8125 192.417969 134.8125 C 192.796875 134.8125 193.171875 134.851562 193.535156 134.929688 C 193.78125 134.984375 193.9375 135.230469 193.886719 135.476562 C 193.832031 135.722656 193.589844 135.878906 193.339844 135.824219 C 193.039062 135.757812 192.730469 135.726562 192.417969 135.726562 C 190.050781 135.726562 188.125 137.652344 188.125 140.019531 C 188.125 142.386719 190.050781 144.316406 192.417969 144.316406 C 194.789062 144.316406 196.714844 142.386719 196.714844 140.019531 C 196.714844 139.238281 196.503906 138.472656 196.101562 137.808594 C 195.972656 137.59375 196.042969 137.3125 196.257812 137.179688 C 196.472656 137.050781 196.753906 137.121094 196.886719 137.335938 C 197.371094 138.144531 197.628906 139.074219 197.628906 140.019531 C 197.628906 142.890625 195.292969 145.230469 192.417969 145.230469 Z M 192.417969 145.230469 " fill-opacity="1" fill-rule="nonzero"/><path fill="#ffffff" d="M 195.894531 135.863281 C 196.691406 136.660156 196.691406 137.949219 195.894531 138.746094 C 195.101562 139.539062 193.8125 139.539062 193.015625 138.746094 C 192.222656 137.949219 192.222656 136.660156 193.015625 135.863281 C 193.8125 135.070312 195.101562 135.070312 195.894531 135.863281 Z M 195.894531 135.863281 " fill-opacity="1" fill-rule="nonzero"/><path fill="#000000" d="M 194.457031 139.796875 C 193.816406 139.796875 193.179688 139.554688 192.691406 139.070312 C 191.722656 138.097656 191.722656 136.515625 192.691406 135.542969 C 193.664062 134.570312 195.246094 134.570312 196.21875 135.542969 C 197.191406 136.515625 197.191406 138.097656 196.21875 139.070312 C 195.734375 139.554688 195.09375 139.796875 194.457031 139.796875 Z M 194.457031 135.726562 C 194.050781 135.726562 193.648438 135.878906 193.339844 136.1875 C 192.722656 136.804688 192.722656 137.804688 193.339844 138.421875 C 193.957031 139.039062 194.957031 139.039062 195.574219 138.421875 C 196.1875 137.804688 196.1875 136.804688 195.574219 136.1875 C 195.265625 135.878906 194.859375 135.726562 194.457031 135.726562 Z M 194.457031 135.726562 " fill-opacity="1" fill-rule="nonzero"/><path fill="#000000" d="M 226.300781 194.390625 C 226.199219 194.390625 226.097656 194.355469 226.015625 194.289062 L 222.109375 191.136719 L 218.203125 194.289062 C 218.003906 194.445312 217.71875 194.414062 217.558594 194.21875 C 217.402344 194.023438 217.433594 193.734375 217.628906 193.574219 L 221.820312 190.195312 C 221.988281 190.058594 222.226562 190.058594 222.394531 190.195312 L 226.589844 193.574219 C 226.785156 193.734375 226.816406 194.023438 226.65625 194.21875 C 226.566406 194.332031 226.433594 194.390625 226.300781 194.390625 Z M 226.300781 194.390625 " fill-opacity="1" fill-rule="nonzero"/><path fill="#000000" d="M 216.085938 206.738281 C 212.511719 206.738281 209.605469 203.828125 209.605469 200.257812 L 209.605469 173.597656 C 209.605469 169.761719 206.453125 166.644531 202.574219 166.644531 C 198.695312 166.644531 195.542969 169.761719 195.542969 173.597656 L 195.542969 175.660156 C 195.542969 175.910156 195.335938 176.117188 195.085938 176.117188 C 194.832031 176.117188 194.625 175.910156 194.625 175.660156 L 194.625 173.597656 C 194.625 171.503906 195.457031 169.527344 196.960938 168.039062 C 198.46875 166.550781 200.460938 165.730469 202.574219 165.730469 C 204.6875 165.730469 206.679688 166.550781 208.183594 168.039062 C 209.691406 169.527344 210.519531 171.503906 210.519531 173.597656 L 210.519531 200.257812 C 210.519531 203.324219 213.019531 205.820312 216.085938 205.820312 C 219.15625 205.820312 221.652344 203.324219 221.652344 200.257812 L 221.652344 190.550781 C 221.652344 190.296875 221.855469 190.09375 222.109375 190.09375 C 222.359375 190.09375 222.566406 190.296875 222.566406 190.550781 L 222.566406 200.257812 C 222.566406 203.828125 219.660156 206.738281 216.085938 206.738281 Z M 216.085938 206.738281 " fill-opacity="1" fill-rule="nonzero"/><path fill="#000000" d="M 182.007812 211.609375 L 182.007812 210.402344 C 182.007812 205.507812 186.183594 201.507812 191.289062 201.507812 L 198.792969 201.507812 C 203.898438 201.507812 208.074219 205.507812 208.074219 210.402344 L 208.074219 211.609375 Z M 182.007812 211.609375 " fill-opacity="1" fill-rule="nonzero"/><g clip-path="url(#c6117e39c3)"><path fill="#000000" d="M 208.074219 212.066406 C 207.820312 212.066406 207.617188 211.863281 207.617188 211.609375 L 207.617188 210.402344 C 207.617188 205.75 203.65625 201.964844 198.792969 201.964844 L 191.289062 201.964844 C 186.421875 201.964844 182.464844 205.75 182.464844 210.402344 L 182.464844 211.609375 C 182.464844 211.863281 182.257812 212.066406 182.007812 212.066406 C 181.753906 212.066406 181.550781 211.863281 181.550781 211.609375 L 181.550781 210.402344 C 181.550781 207.910156 182.566406 205.5625 184.417969 203.789062 C 186.261719 202.023438 188.699219 201.050781 191.289062 201.050781 L 198.792969 201.050781 C 201.378906 201.050781 203.820312 202.023438 205.664062 203.789062 C 207.511719 205.5625 208.53125 207.910156 208.53125 210.402344 L 208.53125 211.609375 C 208.53125 211.863281 208.324219 212.066406 208.074219 212.066406 Z M 208.074219 212.066406 " fill-opacity="1" fill-rule="nonzero"/></g><path fill="#ffffff" d="M 198.113281 199.214844 L 198.113281 201.84375 C 198.113281 203.542969 196.738281 204.917969 195.039062 204.917969 C 193.34375 204.917969 191.96875 203.542969 191.96875 201.84375 L 191.96875 199.230469 Z M 198.113281 199.214844 " fill-opacity="1" fill-rule="nonzero"/><path fill="#000000" d="M 195.039062 205.375 C 193.09375 205.375 191.511719 203.789062 191.511719 201.84375 L 191.511719 199.230469 C 191.511719 198.976562 191.714844 198.773438 191.96875 198.773438 C 192.21875 198.773438 192.425781 198.976562 192.425781 199.230469 L 192.425781 201.84375 C 192.425781 203.285156 193.597656 204.460938 195.039062 204.460938 C 196.480469 204.460938 197.65625 203.285156 197.65625 201.84375 L 197.65625 199.214844 C 197.65625 198.960938 197.859375 198.753906 198.113281 198.753906 C 198.363281 198.753906 198.570312 198.960938 198.570312 199.214844 L 198.570312 201.84375 C 198.570312 203.789062 196.984375 205.375 195.039062 205.375 Z M 195.039062 205.375 " fill-opacity="1" fill-rule="nonzero"/><path fill="#d9d9d9" d="M 201.335938 179.394531 C 202.859375 179.871094 204.015625 181.3125 204.015625 183.371094 L 204.015625 188.519531 L 186.015625 188.578125 L 186.015625 183.390625 C 186.015625 180.269531 188.542969 177.742188 191.664062 177.742188 L 201.765625 177.742188 C 201.765625 179.605469 200.253906 181.117188 198.390625 181.117188 L 194.640625 181.117188 Z M 201.335938 179.394531 " fill-opacity="1" fill-rule="nonzero"/><path fill="#000000" d="M 186.015625 189.035156 C 185.894531 189.035156 185.777344 188.984375 185.691406 188.902344 C 185.605469 188.816406 185.558594 188.699219 185.558594 188.578125 L 185.558594 183.390625 C 185.558594 180.023438 188.296875 177.285156 191.664062 177.285156 L 201.765625 177.285156 C 202.019531 177.285156 202.222656 177.488281 202.222656 177.742188 C 202.222656 178.234375 202.128906 178.707031 201.960938 179.144531 C 202.621094 179.445312 203.191406 179.917969 203.621094 180.523438 C 204.179688 181.3125 204.476562 182.296875 204.476562 183.371094 L 204.476562 188.519531 C 204.476562 188.773438 204.269531 188.976562 204.019531 188.976562 Z M 204.015625 188.519531 L 204.019531 188.519531 Z M 191.664062 178.199219 C 188.800781 178.199219 186.472656 180.527344 186.472656 183.390625 L 186.472656 188.117188 L 203.558594 188.066406 L 203.558594 183.371094 C 203.558594 181.777344 202.789062 180.496094 201.523438 179.949219 C 200.828125 180.929688 199.683594 181.574219 198.390625 181.574219 L 194.640625 181.574219 C 194.386719 181.574219 194.183594 181.371094 194.183594 181.117188 C 194.183594 180.863281 194.386719 180.660156 194.640625 180.660156 L 198.390625 180.660156 C 199.84375 180.660156 201.054688 179.589844 201.273438 178.199219 Z M 191.664062 178.199219 " fill-opacity="1" fill-rule="nonzero"/><path fill="#ffffff" d="M 201.875 187.554688 L 201.875 186.796875 C 201.875 183.65625 199.332031 181.113281 196.191406 181.113281 L 193.847656 181.113281 C 190.707031 181.113281 188.164062 183.65625 188.164062 186.796875 L 188.164062 187.558594 C 186.601562 187.578125 185.34375 188.847656 185.34375 190.414062 C 185.34375 191.976562 186.601562 193.246094 188.164062 193.269531 L 188.164062 193.5 C 188.164062 196.933594 190.945312 199.714844 194.375 199.714844 L 195.664062 199.714844 C 199.09375 199.714844 201.875 196.933594 201.875 193.5 L 201.875 193.269531 C 203.453125 193.269531 204.734375 191.992188 204.734375 190.414062 C 204.734375 188.835938 203.453125 187.554688 201.875 187.554688 Z M 201.875 187.554688 " fill-opacity="1" fill-rule="nonzero"/><path fill="#000000" d="M 195.664062 200.171875 L 194.375 200.171875 C 190.761719 200.171875 187.808594 197.28125 187.707031 193.6875 C 187.003906 193.585938 186.351562 193.257812 185.84375 192.742188 C 185.226562 192.117188 184.886719 191.289062 184.886719 190.414062 C 184.886719 189.535156 185.226562 188.710938 185.84375 188.085938 C 186.351562 187.570312 187 187.242188 187.707031 187.136719 L 187.707031 186.796875 C 187.707031 183.410156 190.460938 180.65625 193.847656 180.65625 L 196.191406 180.65625 C 199.578125 180.65625 202.335938 183.410156 202.335938 186.796875 L 202.335938 187.128906 C 203.945312 187.351562 205.191406 188.742188 205.191406 190.414062 C 205.191406 192.085938 203.945312 193.472656 202.332031 193.695312 C 202.226562 197.285156 199.277344 200.171875 195.664062 200.171875 Z M 193.847656 181.570312 C 190.964844 181.570312 188.621094 183.914062 188.621094 186.796875 L 188.621094 187.558594 C 188.621094 187.808594 188.417969 188.011719 188.167969 188.015625 C 186.863281 188.03125 185.800781 189.109375 185.800781 190.414062 C 185.800781 191.71875 186.863281 192.792969 188.167969 192.8125 C 188.417969 192.816406 188.621094 193.019531 188.621094 193.269531 L 188.621094 193.5 C 188.621094 196.675781 191.203125 199.257812 194.375 199.257812 L 195.664062 199.257812 C 198.835938 199.257812 201.417969 196.675781 201.417969 193.5 L 201.417969 193.269531 C 201.417969 193.019531 201.625 192.8125 201.875 192.8125 C 203.199219 192.8125 204.277344 191.738281 204.277344 190.414062 C 204.277344 189.089844 203.199219 188.011719 201.875 188.011719 C 201.625 188.011719 201.417969 187.808594 201.417969 187.554688 L 201.417969 186.796875 C 201.417969 183.914062 199.074219 181.570312 196.191406 181.570312 Z M 193.847656 181.570312 " fill-opacity="1" fill-rule="nonzero"/><path fill="#d9d9d9" d="M 228.445312 175.660156 C 228.445312 171.917969 225.207031 168.9375 221.382812 169.359375 C 218.46875 169.683594 216.121094 172.046875 215.808594 174.960938 C 215.535156 177.519531 216.789062 179.808594 218.769531 181.039062 C 219.140625 181.269531 219.382812 181.667969 219.382812 182.109375 L 219.382812 183.382812 L 224.835938 183.382812 L 224.835938 182.113281 C 224.835938 181.671875 225.078125 181.269531 225.453125 181.035156 C 227.25 179.917969 228.445312 177.929688 228.445312 175.660156 Z M 228.445312 175.660156 " fill-opacity="1" fill-rule="nonzero"/><path fill="#000000" d="M 224.832031 183.84375 L 219.382812 183.84375 C 219.128906 183.84375 218.925781 183.636719 218.925781 183.382812 L 218.925781 182.109375 C 218.925781 181.835938 218.777344 181.582031 218.527344 181.425781 C 216.289062 180.035156 215.070312 177.539062 215.351562 174.910156 C 215.6875 171.777344 218.203125 169.253906 221.332031 168.90625 C 222.328125 168.796875 223.300781 168.894531 224.234375 169.203125 C 225.125 169.496094 225.9375 169.964844 226.640625 170.59375 C 228.078125 171.882812 228.902344 173.726562 228.902344 175.660156 C 228.902344 176.832031 228.597656 177.988281 228.019531 179.003906 C 227.460938 179.988281 226.65625 180.824219 225.695312 181.421875 C 225.441406 181.578125 225.292969 181.839844 225.292969 182.113281 L 225.292969 183.382812 C 225.292969 183.636719 225.085938 183.84375 224.832031 183.84375 Z M 219.839844 182.925781 L 224.375 182.925781 L 224.375 182.113281 C 224.375 181.519531 224.6875 180.972656 225.210938 180.644531 C 226.949219 179.5625 227.988281 177.699219 227.988281 175.660156 C 227.988281 173.988281 227.273438 172.390625 226.03125 171.273438 C 224.765625 170.144531 223.136719 169.625 221.433594 169.816406 C 218.726562 170.113281 216.554688 172.300781 216.261719 175.007812 C 216.019531 177.28125 217.070312 179.445312 219.007812 180.648438 C 219.53125 180.972656 219.839844 181.519531 219.839844 182.109375 Z M 219.839844 182.925781 " fill-opacity="1" fill-rule="nonzero"/><path fill="#000000" d="M 225.957031 183.382812 L 218.257812 183.382812 L 218.257812 184.820312 C 218.257812 186.261719 219.425781 187.429688 220.867188 187.429688 L 223.347656 187.429688 C 224.789062 187.429688 225.957031 186.261719 225.957031 184.820312 Z M 225.957031 183.382812 " fill-opacity="1" fill-rule="nonzero"/><path fill="#000000" d="M 223.347656 187.886719 L 220.867188 187.886719 C 219.175781 187.886719 217.800781 186.511719 217.800781 184.820312 L 217.800781 183.382812 C 217.800781 183.132812 218.007812 182.925781 218.257812 182.925781 L 225.957031 182.925781 C 226.210938 182.925781 226.414062 183.132812 226.414062 183.382812 L 226.414062 184.820312 C 226.414062 186.511719 225.039062 187.886719 223.347656 187.886719 Z M 218.714844 183.84375 L 218.714844 184.820312 C 218.714844 186.007812 219.679688 186.972656 220.867188 186.972656 L 223.347656 186.972656 C 224.535156 186.972656 225.5 186.007812 225.5 184.820312 L 225.5 183.84375 Z M 218.714844 183.84375 " fill-opacity="1" fill-rule="nonzero"/><path fill="#d9d9d9" d="M 218.597656 174.027344 L 220.351562 176.636719 L 222.105469 174.027344 L 223.863281 176.636719 L 225.617188 174.027344 Z M 218.597656 174.027344 " fill-opacity="1" fill-rule="nonzero"/><path fill="#000000" d="M 220.351562 177.097656 C 220.199219 177.097656 220.058594 177.019531 219.972656 176.894531 L 218.21875 174.285156 C 218.078125 174.074219 218.132812 173.789062 218.34375 173.648438 C 218.554688 173.507812 218.835938 173.5625 218.980469 173.773438 L 220.351562 175.820312 L 221.726562 173.773438 C 221.8125 173.648438 221.953125 173.570312 222.105469 173.570312 C 222.257812 173.570312 222.402344 173.648438 222.484375 173.773438 L 223.863281 175.820312 L 225.238281 173.773438 C 225.378906 173.5625 225.664062 173.507812 225.871094 173.648438 C 226.082031 173.789062 226.136719 174.074219 225.996094 174.285156 L 224.242188 176.894531 C 224.15625 177.019531 224.015625 177.097656 223.863281 177.097656 C 223.710938 177.097656 223.566406 177.019531 223.484375 176.894531 L 222.105469 174.847656 L 220.730469 176.894531 C 220.644531 177.019531 220.503906 177.097656 220.351562 177.097656 Z M 220.351562 177.097656 " fill-opacity="1" fill-rule="nonzero"/><path fill="#000000" d="M 222.109375 181.570312 C 221.855469 181.570312 221.652344 181.363281 221.652344 181.113281 L 221.652344 177.742188 C 221.652344 177.488281 221.855469 177.285156 222.109375 177.285156 C 222.359375 177.285156 222.566406 177.488281 222.566406 177.742188 L 222.566406 181.113281 C 222.566406 181.363281 222.359375 181.570312 222.109375 181.570312 Z M 222.109375 181.570312 " fill-opacity="1" fill-rule="nonzero"/><path fill="#000000" d="M 222.109375 167.746094 C 221.855469 167.746094 221.652344 167.542969 221.652344 167.289062 L 221.652344 165.082031 C 221.652344 164.828125 221.855469 164.625 222.109375 164.625 C 222.359375 164.625 222.566406 164.828125 222.566406 165.082031 L 222.566406 167.289062 C 222.566406 167.542969 222.359375 167.746094 222.109375 167.746094 Z M 222.109375 167.746094 " fill-opacity="1" fill-rule="nonzero"/><path fill="#000000" d="M 214.152344 175.792969 L 211.945312 175.792969 C 211.691406 175.792969 211.488281 175.585938 211.488281 175.332031 C 211.488281 175.082031 211.691406 174.875 211.945312 174.875 L 214.152344 174.875 C 214.40625 174.875 214.609375 175.082031 214.609375 175.332031 C 214.609375 175.585938 214.40625 175.792969 214.152344 175.792969 Z M 214.152344 175.792969 " fill-opacity="1" fill-rule="nonzero"/><g clip-path="url(#8744ff3cd8)"><path fill="#000000" d="M 232.390625 175.792969 L 230.183594 175.792969 C 229.933594 175.792969 229.726562 175.585938 229.726562 175.332031 C 229.726562 175.082031 229.933594 174.875 230.183594 174.875 L 232.390625 174.875 C 232.644531 174.875 232.847656 175.082031 232.847656 175.332031 C 232.847656 175.585938 232.644531 175.792969 232.390625 175.792969 Z M 232.390625 175.792969 " fill-opacity="1" fill-rule="nonzero"/></g><path fill="#d9d9d9" d="M 214.941406 168.105469 L 216.5 169.664062 Z M 214.941406 168.105469 " fill-opacity="1" fill-rule="nonzero"/><path fill="#000000" d="M 216.5 170.121094 C 216.382812 170.121094 216.265625 170.078125 216.175781 169.988281 L 214.617188 168.429688 C 214.4375 168.25 214.4375 167.960938 214.617188 167.78125 C 214.796875 167.601562 215.085938 167.601562 215.261719 167.78125 L 216.824219 169.34375 C 217.003906 169.519531 217.003906 169.808594 216.824219 169.988281 C 216.734375 170.078125 216.617188 170.121094 216.5 170.121094 Z M 216.5 170.121094 " fill-opacity="1" fill-rule="nonzero"/><path fill="#d9d9d9" d="M 227.835938 181.003906 L 229.398438 182.5625 Z M 227.835938 181.003906 " fill-opacity="1" fill-rule="nonzero"/><path fill="#000000" d="M 229.398438 183.019531 C 229.28125 183.019531 229.164062 182.976562 229.074219 182.886719 L 227.515625 181.324219 C 227.335938 181.148438 227.335938 180.855469 227.515625 180.679688 C 227.691406 180.5 227.980469 180.5 228.160156 180.679688 L 229.722656 182.238281 C 229.898438 182.417969 229.898438 182.707031 229.722656 182.886719 C 229.632812 182.976562 229.515625 183.019531 229.398438 183.019531 Z M 229.398438 183.019531 " fill-opacity="1" fill-rule="nonzero"/><path fill="#d9d9d9" d="M 214.941406 182.5625 L 216.5 181.003906 Z M 214.941406 182.5625 " fill-opacity="1" fill-rule="nonzero"/><path fill="#000000" d="M 214.941406 183.019531 C 214.824219 183.019531 214.707031 182.976562 214.617188 182.886719 C 214.4375 182.707031 214.4375 182.417969 214.617188 182.238281 L 216.175781 180.679688 C 216.355469 180.5 216.644531 180.5 216.824219 180.679688 C 217.003906 180.855469 217.003906 181.148438 216.824219 181.324219 L 215.261719 182.886719 C 215.175781 182.976562 215.058594 183.019531 214.941406 183.019531 Z M 214.941406 183.019531 " fill-opacity="1" fill-rule="nonzero"/><path fill="#d9d9d9" d="M 227.835938 169.664062 L 229.398438 168.105469 Z M 227.835938 169.664062 " fill-opacity="1" fill-rule="nonzero"/><path fill="#000000" d="M 227.835938 170.121094 C 227.71875 170.121094 227.601562 170.078125 227.511719 169.988281 C 227.335938 169.808594 227.335938 169.519531 227.511719 169.34375 L 229.074219 167.78125 C 229.253906 167.601562 229.542969 167.601562 229.722656 167.78125 C 229.898438 167.960938 229.898438 168.25 229.722656 168.429688 L 228.160156 169.988281 C 228.070312 170.078125 227.953125 170.121094 227.835938 170.121094 Z M 227.835938 170.121094 " fill-opacity="1" fill-rule="nonzero"/><g clip-path="url(#6ab1047372)"><path fill="#ffffff" d="M 165.9375 194.339844 C 166.21875 193.59375 168.316406 188.730469 168.53125 188.140625 C 168.785156 187.445312 169.4375 186.972656 170.179688 186.949219 C 172.71875 186.867188 176.332031 186.617188 177.492188 186.324219 C 179.1875 185.894531 180.125 184.070312 179.496094 182.4375 L 178.691406 180.339844 L 179.398438 178.953125 L 178.550781 177.550781 L 179.964844 176.316406 L 179.398438 173.703125 L 180.949219 173.246094 C 182.453125 172.804688 182.90625 170.898438 181.761719 169.824219 C 181.761719 169.824219 180.515625 168.675781 179.351562 167.605469 C 178.777344 167.082031 178.453125 166.339844 178.460938 165.5625 C 178.480469 163.6875 178.367188 160.277344 177.914062 158.910156 C 177.914062 158.90625 177.914062 158.898438 177.910156 158.894531 C 177.101562 156.460938 175.792969 154.253906 174.101562 152.402344 C 170.703125 148.675781 165.761719 146.382812 160.292969 146.515625 C 150.949219 146.746094 142.898438 154.804688 142.675781 164.148438 C 142.535156 169.921875 145.105469 175.105469 149.207031 178.503906 C 151.175781 180.140625 152.003906 182.796875 151.257812 185.246094 Z M 165.9375 194.339844 " fill-opacity="1" fill-rule="nonzero"/><path fill="#000000" d="M 165.9375 194.796875 C 165.882812 194.796875 165.828125 194.789062 165.777344 194.769531 C 165.539062 194.679688 165.421875 194.414062 165.507812 194.179688 C 165.652344 193.796875 166.234375 192.429688 166.847656 190.984375 C 167.414062 189.648438 168 188.265625 168.101562 187.984375 C 168.421875 187.109375 169.230469 186.523438 170.164062 186.492188 C 172.804688 186.40625 176.3125 186.148438 177.378906 185.878906 C 178.058594 185.710938 178.632812 185.253906 178.953125 184.628906 C 179.28125 184 179.324219 183.261719 179.070312 182.601562 L 178.265625 180.5 C 178.21875 180.378906 178.226562 180.246094 178.285156 180.128906 L 178.875 178.972656 L 178.15625 177.789062 C 178.042969 177.597656 178.082031 177.351562 178.25 177.207031 L 179.460938 176.148438 L 178.953125 173.800781 C 178.902344 173.566406 179.039062 173.332031 179.269531 173.265625 L 180.820312 172.808594 C 181.367188 172.648438 181.769531 172.222656 181.902344 171.667969 C 182.035156 171.113281 181.867188 170.550781 181.449219 170.160156 C 181.398438 170.113281 180.175781 168.984375 179.042969 167.945312 C 178.375 167.332031 177.996094 166.460938 178.003906 165.558594 C 178.023438 163.644531 177.902344 160.339844 177.484375 159.0625 C 177.480469 159.054688 177.476562 159.042969 177.476562 159.035156 C 176.695312 156.683594 175.445312 154.554688 173.765625 152.710938 C 170.320312 148.9375 165.414062 146.847656 160.304688 146.972656 C 151.210938 147.195312 143.347656 155.066406 143.132812 164.15625 C 143 169.585938 145.320312 174.6875 149.5 178.152344 C 150.535156 179.015625 151.292969 180.152344 151.6875 181.4375 C 152.082031 182.730469 152.085938 184.09375 151.695312 185.378906 C 151.621094 185.621094 151.363281 185.757812 151.121094 185.683594 C 150.882812 185.609375 150.746094 185.351562 150.820312 185.113281 C 151.511719 182.847656 150.761719 180.390625 148.914062 178.859375 C 146.808594 177.109375 145.085938 174.882812 143.9375 172.410156 C 142.726562 169.8125 142.148438 167.027344 142.214844 164.136719 C 142.273438 161.792969 142.800781 159.492188 143.789062 157.296875 C 144.742188 155.183594 146.070312 153.261719 147.738281 151.589844 C 149.410156 149.917969 151.328125 148.589844 153.441406 147.636719 C 155.636719 146.648438 157.9375 146.117188 160.28125 146.058594 C 163.019531 145.992188 165.667969 146.507812 168.15625 147.59375 C 170.554688 148.640625 172.667969 150.15625 174.441406 152.09375 C 176.207031 154.03125 177.519531 156.265625 178.339844 158.742188 C 178.34375 158.75 178.347656 158.761719 178.347656 158.769531 C 178.839844 160.253906 178.9375 163.863281 178.917969 165.566406 C 178.914062 166.210938 179.183594 166.832031 179.660156 167.269531 C 180.8125 168.328125 182.058594 169.476562 182.074219 169.488281 C 182.074219 169.492188 182.074219 169.492188 182.074219 169.492188 C 182.734375 170.109375 183 171.003906 182.792969 171.882812 C 182.582031 172.757812 181.941406 173.433594 181.078125 173.6875 L 179.9375 174.023438 L 180.410156 176.21875 C 180.449219 176.382812 180.390625 176.550781 180.265625 176.660156 L 179.140625 177.644531 L 179.789062 178.71875 C 179.871094 178.851562 179.878906 179.023438 179.804688 179.164062 L 179.191406 180.363281 L 179.921875 182.273438 C 180.269531 183.175781 180.214844 184.191406 179.765625 185.050781 C 179.324219 185.90625 178.535156 186.53125 177.601562 186.765625 C 176.277344 187.101562 172.355469 187.335938 170.195312 187.40625 C 169.636719 187.425781 169.152344 187.773438 168.960938 188.296875 C 168.851562 188.601562 168.285156 189.933594 167.6875 191.34375 C 167.105469 192.714844 166.503906 194.136719 166.367188 194.5 C 166.296875 194.683594 166.121094 194.796875 165.9375 194.796875 Z M 165.9375 194.796875 " fill-opacity="1" fill-rule="nonzero"/></g><path fill="#000000" d="M 153.816406 179.597656 C 153.589844 179.597656 153.394531 179.429688 153.363281 179.199219 L 152.953125 175.886719 C 152.914062 175.5625 153.0625 175.242188 153.347656 175.039062 C 153.363281 175.027344 153.378906 175.019531 153.394531 175.011719 L 156.316406 173.398438 C 156.535156 173.277344 156.816406 173.359375 156.9375 173.578125 C 157.058594 173.800781 156.976562 174.078125 156.757812 174.199219 L 153.867188 175.792969 C 153.867188 175.792969 153.867188 175.796875 153.863281 175.796875 L 154.273438 179.085938 C 154.304688 179.335938 154.125 179.5625 153.875 179.59375 C 153.855469 179.597656 153.835938 179.597656 153.816406 179.597656 Z M 153.816406 179.597656 " fill-opacity="1" fill-rule="nonzero"/><path fill="#000000" d="M 160.65625 178.132812 C 158.03125 178.132812 155.449219 177.367188 153.253906 175.921875 C 153.042969 175.785156 152.984375 175.5 153.121094 175.289062 C 153.261719 175.078125 153.542969 175.019531 153.753906 175.160156 C 155.863281 176.546875 158.261719 177.222656 160.640625 177.222656 C 163.972656 177.222656 167.273438 175.902344 169.722656 173.351562 C 173.835938 169.0625 174.378906 162.402344 171.007812 157.519531 C 170.863281 157.3125 170.914062 157.027344 171.125 156.882812 C 171.332031 156.738281 171.617188 156.792969 171.757812 157 C 173.496094 159.519531 174.328125 162.59375 174.097656 165.664062 C 173.984375 167.191406 173.613281 168.675781 173 170.074219 C 172.367188 171.519531 171.484375 172.835938 170.378906 173.984375 C 169.261719 175.148438 167.964844 176.09375 166.523438 176.789062 C 165.132812 177.464844 163.644531 177.890625 162.097656 178.054688 C 161.617188 178.105469 161.136719 178.132812 160.65625 178.132812 Z M 160.65625 178.132812 " fill-opacity="1" fill-rule="nonzero"/><path fill="#000000" d="M 164.4375 155.835938 C 164.277344 155.835938 164.121094 155.75 164.039062 155.597656 C 163.914062 155.378906 163.996094 155.101562 164.21875 154.976562 L 167.144531 153.363281 L 166.734375 150.050781 C 166.703125 149.796875 166.878906 149.570312 167.128906 149.539062 C 167.378906 149.507812 167.609375 149.6875 167.640625 149.9375 L 168.054688 153.292969 C 168.097656 153.640625 167.925781 153.976562 167.621094 154.144531 L 164.660156 155.777344 C 164.589844 155.816406 164.511719 155.835938 164.4375 155.835938 Z M 167.148438 153.402344 Z M 167.148438 153.402344 " fill-opacity="1" fill-rule="nonzero"/><path fill="#000000" d="M 149.882812 172.441406 C 149.738281 172.441406 149.59375 172.371094 149.507812 172.242188 C 147.789062 169.722656 146.972656 166.65625 147.210938 163.597656 C 147.328125 162.078125 147.699219 160.597656 148.3125 159.207031 C 148.945312 157.769531 149.824219 156.457031 150.925781 155.3125 C 152.023438 154.167969 153.296875 153.234375 154.710938 152.542969 C 156.074219 151.871094 157.535156 151.441406 159.054688 151.261719 C 162.097656 150.898438 165.195312 151.585938 167.78125 153.203125 C 167.996094 153.335938 168.0625 153.617188 167.929688 153.832031 C 167.792969 154.046875 167.511719 154.109375 167.296875 153.976562 C 162.289062 150.851562 155.679688 151.679688 151.585938 155.945312 C 147.488281 160.210938 146.933594 166.847656 150.261719 171.726562 C 150.402344 171.933594 150.351562 172.21875 150.140625 172.359375 C 150.0625 172.414062 149.972656 172.441406 149.882812 172.441406 Z M 149.882812 172.441406 " fill-opacity="1" fill-rule="nonzero"/><path fill="#d9d9d9" d="M 169.917969 166.65625 L 168.441406 166.65625 C 168.273438 166.65625 168.128906 166.769531 168.078125 166.929688 C 167.945312 167.351562 167.773438 167.757812 167.574219 168.148438 C 167.496094 168.296875 167.519531 168.476562 167.636719 168.597656 L 168.679688 169.640625 C 168.960938 169.917969 168.960938 170.371094 168.679688 170.648438 L 166.734375 172.59375 C 166.457031 172.875 166.003906 172.875 165.722656 172.59375 L 164.679688 171.550781 C 164.5625 171.433594 164.382812 171.410156 164.234375 171.488281 C 163.84375 171.6875 163.4375 171.859375 163.015625 171.992188 C 162.855469 172.042969 162.742188 172.1875 162.742188 172.355469 L 162.742188 173.832031 C 162.742188 174.226562 162.421875 174.546875 162.027344 174.546875 L 159.277344 174.546875 C 158.882812 174.546875 158.5625 174.226562 158.5625 173.832031 L 158.5625 172.355469 C 158.5625 172.1875 158.449219 172.042969 158.292969 171.992188 C 157.867188 171.859375 157.460938 171.6875 157.070312 171.488281 C 156.921875 171.410156 156.742188 171.433594 156.625 171.550781 L 155.582031 172.59375 C 155.300781 172.875 154.847656 172.875 154.570312 172.59375 L 152.625 170.648438 C 152.34375 170.371094 152.34375 169.917969 152.625 169.640625 L 153.667969 168.597656 C 153.785156 168.476562 153.808594 168.296875 153.730469 168.148438 C 153.53125 167.757812 153.359375 167.351562 153.226562 166.929688 C 153.175781 166.769531 153.03125 166.65625 152.863281 166.65625 L 151.390625 166.65625 C 150.996094 166.65625 150.675781 166.335938 150.675781 165.941406 L 150.675781 163.191406 C 150.675781 162.796875 150.996094 162.476562 151.390625 162.476562 L 152.863281 162.476562 C 153.03125 162.476562 153.175781 162.367188 153.226562 162.207031 C 153.359375 161.78125 153.53125 161.375 153.730469 160.988281 C 153.808594 160.835938 153.785156 160.65625 153.667969 160.539062 L 152.625 159.496094 C 152.34375 159.214844 152.34375 158.761719 152.625 158.484375 L 154.570312 156.539062 C 154.847656 156.257812 155.300781 156.257812 155.582031 156.539062 L 156.625 157.582031 C 156.742188 157.699219 156.921875 157.722656 157.070312 157.648438 C 157.460938 157.445312 157.867188 157.277344 158.292969 157.140625 C 158.449219 157.089844 158.5625 156.945312 158.5625 156.777344 L 158.5625 155.304688 C 158.5625 154.910156 158.882812 154.589844 159.277344 154.589844 L 162.027344 154.589844 C 162.421875 154.589844 162.742188 154.910156 162.742188 155.304688 L 162.742188 156.777344 C 162.742188 156.945312 162.855469 157.089844 163.015625 157.140625 C 163.4375 157.277344 163.84375 157.445312 164.234375 157.648438 C 164.382812 157.722656 164.5625 157.699219 164.679688 157.582031 L 165.722656 156.539062 C 166.003906 156.257812 166.457031 156.257812 166.734375 156.539062 L 168.679688 158.484375 C 168.960938 158.761719 168.960938 159.214844 168.679688 159.496094 L 167.636719 160.539062 C 167.519531 160.65625 167.496094 160.835938 167.574219 160.988281 C 167.773438 161.375 167.945312 161.78125 168.078125 162.207031 C 168.128906 162.367188 168.273438 162.476562 168.441406 162.476562 L 169.917969 162.476562 C 170.3125 162.476562 170.628906 162.796875 170.628906 163.191406 L 170.628906 165.941406 C 170.628906 166.335938 170.3125 166.65625 169.917969 166.65625 Z M 169.917969 166.65625 " fill-opacity="1" fill-rule="nonzero"/><path fill="#000000" d="M 162.027344 175.003906 L 159.277344 175.003906 C 158.628906 175.003906 158.105469 174.476562 158.105469 173.832031 L 158.105469 172.414062 C 157.695312 172.28125 157.292969 172.113281 156.90625 171.917969 L 155.902344 172.917969 C 155.683594 173.140625 155.386719 173.261719 155.074219 173.261719 C 154.761719 173.261719 154.46875 173.140625 154.246094 172.917969 L 152.300781 170.972656 C 151.84375 170.515625 151.84375 169.773438 152.300781 169.316406 L 153.304688 168.3125 C 153.105469 167.929688 152.941406 167.527344 152.804688 167.113281 L 151.390625 167.113281 C 150.742188 167.113281 150.21875 166.589844 150.21875 165.941406 L 150.21875 163.191406 C 150.21875 162.542969 150.742188 162.019531 151.390625 162.019531 L 152.804688 162.019531 C 152.941406 161.609375 153.105469 161.207031 153.304688 160.820312 L 152.300781 159.816406 C 152.078125 159.597656 151.957031 159.300781 151.957031 158.988281 C 151.957031 158.675781 152.078125 158.382812 152.300781 158.160156 L 154.246094 156.214844 C 154.46875 155.992188 154.761719 155.871094 155.074219 155.871094 C 155.386719 155.871094 155.683594 155.992188 155.902344 156.214844 L 156.90625 157.21875 C 157.292969 157.019531 157.695312 156.855469 158.105469 156.722656 L 158.105469 155.304688 C 158.105469 154.65625 158.628906 154.132812 159.277344 154.132812 L 162.027344 154.132812 C 162.675781 154.132812 163.199219 154.65625 163.199219 155.304688 L 163.199219 156.722656 C 163.609375 156.855469 164.015625 157.019531 164.398438 157.21875 L 165.402344 156.214844 C 165.859375 155.757812 166.601562 155.757812 167.058594 156.214844 L 169.003906 158.160156 C 169.460938 158.617188 169.460938 159.363281 169.003906 159.816406 L 168.003906 160.820312 C 168.199219 161.207031 168.367188 161.609375 168.5 162.019531 L 169.917969 162.019531 C 170.5625 162.019531 171.085938 162.542969 171.085938 163.191406 L 171.085938 165.941406 C 171.085938 166.589844 170.5625 167.113281 169.917969 167.113281 L 168.5 167.113281 C 168.367188 167.527344 168.199219 167.929688 168.003906 168.3125 L 169.003906 169.316406 C 169.460938 169.773438 169.460938 170.515625 169.003906 170.972656 L 167.058594 172.917969 C 166.601562 173.375 165.859375 173.375 165.402344 172.917969 L 164.398438 171.917969 C 164.015625 172.113281 163.609375 172.28125 163.199219 172.414062 L 163.199219 173.832031 C 163.199219 174.476562 162.675781 175.003906 162.027344 175.003906 Z M 156.890625 170.984375 C 157.023438 170.984375 157.15625 171.015625 157.28125 171.082031 C 157.648438 171.273438 158.035156 171.433594 158.429688 171.558594 C 158.78125 171.667969 159.019531 171.988281 159.019531 172.355469 L 159.019531 173.832031 C 159.019531 173.972656 159.132812 174.085938 159.277344 174.085938 L 162.027344 174.085938 C 162.171875 174.085938 162.285156 173.972656 162.285156 173.832031 L 162.285156 172.355469 C 162.285156 171.988281 162.523438 171.667969 162.875 171.558594 C 163.269531 171.433594 163.65625 171.273438 164.023438 171.082031 C 164.351562 170.910156 164.746094 170.96875 165.003906 171.230469 L 166.046875 172.273438 C 166.148438 172.371094 166.3125 172.371094 166.410156 172.273438 L 168.359375 170.324219 C 168.457031 170.226562 168.457031 170.0625 168.359375 169.960938 L 167.316406 168.917969 C 167.054688 168.660156 166.996094 168.265625 167.167969 167.9375 C 167.355469 167.570312 167.515625 167.183594 167.640625 166.789062 C 167.753906 166.4375 168.074219 166.199219 168.441406 166.199219 L 169.917969 166.199219 C 170.058594 166.199219 170.171875 166.085938 170.171875 165.941406 L 170.171875 163.191406 C 170.171875 163.050781 170.058594 162.933594 169.917969 162.933594 L 168.441406 162.933594 C 168.074219 162.933594 167.753906 162.695312 167.640625 162.34375 C 167.515625 161.949219 167.355469 161.5625 167.167969 161.195312 C 166.996094 160.867188 167.054688 160.472656 167.316406 160.214844 L 168.359375 159.171875 C 168.457031 159.070312 168.457031 158.910156 168.359375 158.808594 L 166.410156 156.863281 C 166.3125 156.761719 166.148438 156.761719 166.046875 156.863281 L 165.003906 157.90625 C 164.746094 158.164062 164.351562 158.222656 164.023438 158.050781 C 163.65625 157.863281 163.269531 157.703125 162.875 157.578125 C 162.523438 157.464844 162.285156 157.144531 162.285156 156.777344 L 162.285156 155.304688 C 162.285156 155.160156 162.171875 155.046875 162.027344 155.046875 L 159.277344 155.046875 C 159.132812 155.046875 159.019531 155.160156 159.019531 155.304688 L 159.019531 156.777344 C 159.019531 157.144531 158.78125 157.464844 158.429688 157.578125 C 158.035156 157.703125 157.648438 157.863281 157.28125 158.050781 C 156.953125 158.222656 156.558594 158.164062 156.300781 157.90625 L 155.257812 156.863281 C 155.207031 156.8125 155.144531 156.785156 155.074219 156.785156 C 155.007812 156.785156 154.941406 156.8125 154.894531 156.863281 L 152.945312 158.808594 C 152.898438 158.855469 152.871094 158.921875 152.871094 158.988281 C 152.871094 159.058594 152.898438 159.121094 152.945312 159.171875 L 153.992188 160.214844 C 154.25 160.472656 154.308594 160.867188 154.136719 161.195312 C 153.949219 161.5625 153.789062 161.949219 153.664062 162.34375 C 153.550781 162.695312 153.230469 162.933594 152.863281 162.933594 L 151.390625 162.933594 C 151.246094 162.933594 151.132812 163.050781 151.132812 163.191406 L 151.132812 165.941406 C 151.132812 166.085938 151.246094 166.199219 151.390625 166.199219 L 152.863281 166.199219 C 153.230469 166.199219 153.550781 166.4375 153.664062 166.789062 C 153.789062 167.183594 153.949219 167.570312 154.136719 167.9375 C 154.308594 168.265625 154.25 168.660156 153.988281 168.917969 L 152.945312 169.960938 C 152.847656 170.0625 152.847656 170.226562 152.945312 170.324219 L 154.894531 172.273438 C 154.941406 172.320312 155.007812 172.347656 155.074219 172.347656 C 155.144531 172.347656 155.207031 172.320312 155.257812 172.273438 L 156.300781 171.230469 C 156.460938 171.070312 156.671875 170.984375 156.890625 170.984375 Z M 156.890625 170.984375 " fill-opacity="1" fill-rule="nonzero"/><path fill="#ffffff" d="M 165.199219 164.566406 C 165.199219 164.867188 165.167969 165.160156 165.109375 165.453125 C 165.050781 165.746094 164.964844 166.03125 164.851562 166.304688 C 164.738281 166.582031 164.597656 166.84375 164.433594 167.09375 C 164.265625 167.339844 164.078125 167.570312 163.867188 167.78125 C 163.65625 167.992188 163.425781 168.179688 163.179688 168.347656 C 162.929688 168.511719 162.667969 168.652344 162.390625 168.765625 C 162.117188 168.878906 161.832031 168.96875 161.539062 169.023438 C 161.246094 169.082031 160.949219 169.113281 160.652344 169.113281 C 160.355469 169.113281 160.058594 169.082031 159.765625 169.023438 C 159.472656 168.96875 159.1875 168.878906 158.914062 168.765625 C 158.636719 168.652344 158.375 168.511719 158.128906 168.347656 C 157.878906 168.179688 157.648438 167.992188 157.4375 167.78125 C 157.226562 167.570312 157.039062 167.339844 156.875 167.09375 C 156.707031 166.84375 156.566406 166.582031 156.453125 166.304688 C 156.339844 166.03125 156.253906 165.746094 156.195312 165.453125 C 156.136719 165.160156 156.105469 164.867188 156.105469 164.566406 C 156.105469 164.269531 156.136719 163.972656 156.195312 163.679688 C 156.253906 163.386719 156.339844 163.101562 156.453125 162.828125 C 156.566406 162.550781 156.707031 162.289062 156.875 162.042969 C 157.039062 161.792969 157.226562 161.5625 157.4375 161.351562 C 157.648438 161.140625 157.878906 160.953125 158.128906 160.789062 C 158.375 160.621094 158.636719 160.480469 158.914062 160.367188 C 159.1875 160.253906 159.472656 160.167969 159.765625 160.109375 C 160.058594 160.050781 160.355469 160.023438 160.652344 160.023438 C 160.949219 160.023438 161.246094 160.050781 161.539062 160.109375 C 161.832031 160.167969 162.117188 160.253906 162.390625 160.367188 C 162.667969 160.480469 162.929688 160.621094 163.179688 160.789062 C 163.425781 160.953125 163.65625 161.140625 163.867188 161.351562 C 164.078125 161.5625 164.265625 161.792969 164.433594 162.042969 C 164.597656 162.289062 164.738281 162.550781 164.851562 162.828125 C 164.964844 163.101562 165.050781 163.386719 165.109375 163.679688 C 165.167969 163.972656 165.199219 164.269531 165.199219 164.566406 Z M 165.199219 164.566406 " fill-opacity="1" fill-rule="nonzero"/><path fill="#000000" d="M 160.652344 169.570312 C 157.894531 169.570312 155.648438 167.324219 155.648438 164.566406 C 155.648438 161.808594 157.894531 159.5625 160.652344 159.5625 C 163.410156 159.5625 165.65625 161.808594 165.65625 164.566406 C 165.65625 167.324219 163.410156 169.570312 160.652344 169.570312 Z M 160.652344 160.480469 C 158.398438 160.480469 156.5625 162.3125 156.5625 164.566406 C 156.5625 166.820312 158.398438 168.65625 160.652344 168.65625 C 162.90625 168.65625 164.742188 166.820312 164.742188 164.566406 C 164.742188 162.3125 162.90625 160.480469 160.652344 160.480469 Z M 160.652344 160.480469 " fill-opacity="1" fill-rule="nonzero"/></svg>