<svg xmlns="http://www.w3.org/2000/svg" xmlns:xlink="http://www.w3.org/1999/xlink" width="500" zoomAndPan="magnify" viewBox="0 0 375 374.999991" height="500" preserveAspectRatio="xMidYMid meet" version="1.0"><defs><clipPath id="715cc76cdc"><path d="M 93.976562 77.542969 L 281.023438 77.542969 L 281.023438 264.585938 L 93.976562 264.585938 Z M 93.976562 77.542969 " clip-rule="nonzero"/></clipPath><clipPath id="6ed7149aef"><path d="M 187.5 77.542969 C 135.847656 77.542969 93.976562 119.414062 93.976562 171.0625 C 93.976562 222.714844 135.847656 264.585938 187.5 264.585938 C 239.152344 264.585938 281.023438 222.714844 281.023438 171.0625 C 281.023438 119.414062 239.152344 77.542969 187.5 77.542969 Z M 187.5 77.542969 " clip-rule="nonzero"/></clipPath><clipPath id="fa55074c35"><path d="M 113.71875 97.28125 L 261.28125 97.28125 L 261.28125 244.847656 L 113.71875 244.847656 Z M 113.71875 97.28125 " clip-rule="nonzero"/></clipPath><clipPath id="4569a4c012"><path d="M 187.5 97.28125 C 146.75 97.28125 113.71875 130.3125 113.71875 171.0625 C 113.71875 211.8125 146.75 244.847656 187.5 244.847656 C 228.25 244.847656 261.28125 211.8125 261.28125 171.0625 C 261.28125 130.3125 228.25 97.28125 187.5 97.28125 Z M 187.5 97.28125 " clip-rule="nonzero"/></clipPath><clipPath id="6b55cf6af0"><path d="M 167.839844 249.066406 L 207.160156 249.066406 L 207.160156 297.601562 L 167.839844 297.601562 Z M 167.839844 249.066406 " clip-rule="nonzero"/></clipPath><clipPath id="1f6e5976fb"><path d="M 180.953125 296.324219 C 182.96875 297.007812 185.261719 297.457031 187.511719 297.457031 C 189.761719 297.457031 191.925781 297.074219 193.917969 296.386719 C 193.960938 296.367188 194.003906 296.367188 194.046875 296.34375 C 201.535156 293.601562 207.054688 286.363281 207.160156 277.898438 L 207.160156 249.066406 L 167.839844 249.066406 L 167.839844 277.878906 C 167.945312 286.40625 173.378906 293.644531 180.953125 296.324219 Z M 180.953125 296.324219 " clip-rule="nonzero"/></clipPath><clipPath id="c3e2721ef1"><path d="M 142.90625 135.75 L 223 135.75 L 223 206.25 L 142.90625 206.25 Z M 142.90625 135.75 " clip-rule="nonzero"/></clipPath><clipPath id="ecb43874b9"><path d="M 225 167 L 233.65625 167 L 233.65625 176 L 225 176 Z M 225 167 " clip-rule="nonzero"/></clipPath></defs><g clip-path="url(#715cc76cdc)"><g clip-path="url(#6ed7149aef)"><path fill="#008efe" d="M 93.976562 77.542969 L 281.023438 77.542969 L 281.023438 264.585938 L 93.976562 264.585938 Z M 93.976562 77.542969 " fill-opacity="1" fill-rule="nonzero"/></g></g><g clip-path="url(#fa55074c35)"><g clip-path="url(#4569a4c012)"><path fill="#ffffff" d="M 113.71875 97.28125 L 261.28125 97.28125 L 261.28125 244.847656 L 113.71875 244.847656 Z M 113.71875 97.28125 " fill-opacity="1" fill-rule="nonzero"/></g></g><g clip-path="url(#6b55cf6af0)"><g clip-path="url(#1f6e5976fb)"><path fill="#008efe" d="M 167.839844 249.066406 L 207.160156 249.066406 L 207.160156 297.445312 L 167.839844 297.445312 Z M 167.839844 249.066406 " fill-opacity="1" fill-rule="nonzero"/></g></g><g clip-path="url(#c3e2721ef1)"><path fill="#000000" d="M 144.230469 193.007812 L 158.253906 205.265625 C 158.890625 205.828125 159.742188 206.25 160.664062 206.25 L 194.65625 206.25 C 196.640625 206.25 198.195312 204.628906 198.195312 202.65625 L 198.195312 191.390625 L 200.109375 191.390625 L 202.515625 193.785156 C 202.589844 193.855469 202.660156 193.925781 202.730469 193.996094 C 202.730469 193.996094 202.800781 194.066406 202.800781 194.066406 C 202.871094 194.066406 202.871094 194.136719 202.941406 194.136719 C 203.011719 194.136719 203.011719 194.136719 203.082031 194.207031 C 203.15625 194.207031 203.15625 194.207031 203.226562 194.277344 C 203.296875 194.277344 203.4375 194.277344 203.507812 194.277344 L 206.835938 194.277344 C 206.765625 193.855469 206.695312 193.359375 206.695312 192.867188 C 206.695312 192.375 206.765625 191.882812 206.835938 191.460938 L 204.074219 191.460938 L 201.667969 189.066406 C 201.597656 188.996094 201.527344 188.925781 201.453125 188.855469 C 201.453125 188.855469 201.382812 188.785156 201.382812 188.785156 C 201.3125 188.785156 201.3125 188.714844 201.242188 188.714844 C 201.171875 188.714844 201.171875 188.714844 201.101562 188.640625 C 201.03125 188.640625 201.03125 188.640625 200.960938 188.570312 C 200.886719 188.570312 200.746094 188.570312 200.675781 188.570312 L 198.195312 188.570312 L 198.195312 182.9375 L 213.566406 182.9375 C 213.496094 182.515625 213.421875 182.023438 213.421875 181.527344 C 213.421875 181.035156 213.496094 180.542969 213.566406 180.121094 L 198.195312 180.121094 L 198.195312 173.078125 L 222.417969 173.078125 C 222.347656 172.65625 222.277344 172.160156 222.277344 171.667969 C 222.277344 171.175781 222.347656 170.683594 222.417969 170.261719 L 198.195312 170.261719 L 198.195312 163.921875 L 213.210938 163.921875 C 213.140625 163.5 213.070312 163.007812 213.070312 162.511719 C 213.070312 162.019531 213.140625 161.527344 213.210938 161.105469 L 198.195312 161.105469 L 198.195312 154.765625 L 200.675781 154.765625 C 200.746094 154.765625 200.886719 154.765625 200.960938 154.765625 C 201.03125 154.765625 201.03125 154.765625 201.101562 154.695312 C 201.171875 154.695312 201.171875 154.695312 201.242188 154.625 C 201.3125 154.625 201.3125 154.554688 201.382812 154.554688 C 201.382812 154.554688 201.453125 154.554688 201.453125 154.484375 C 201.527344 154.414062 201.597656 154.34375 201.667969 154.273438 L 204.074219 151.878906 L 206.835938 151.878906 C 206.765625 151.457031 206.695312 150.960938 206.695312 150.46875 C 206.695312 149.976562 206.765625 149.484375 206.835938 149.0625 L 203.507812 149.0625 C 203.4375 149.0625 203.296875 149.0625 203.226562 149.0625 C 203.15625 149.0625 203.15625 149.0625 203.082031 149.132812 C 203.011719 149.132812 203.011719 149.132812 202.941406 149.203125 C 202.871094 149.203125 202.871094 149.273438 202.800781 149.273438 C 202.800781 149.273438 202.730469 149.273438 202.730469 149.34375 C 202.660156 149.414062 202.589844 149.484375 202.515625 149.554688 L 200.109375 151.949219 L 198.195312 151.949219 L 198.195312 139.339844 C 198.195312 137.371094 196.566406 135.75 194.65625 135.75 L 146.496094 135.75 C 144.515625 135.75 142.957031 137.371094 142.957031 139.339844 L 142.957031 190.261719 C 142.957031 191.390625 143.453125 192.304688 144.230469 193.007812 Z M 149.613281 193.925781 L 156.199219 194.136719 C 156.554688 194.136719 156.910156 194.488281 156.910156 194.910156 L 157.050781 200.476562 Z M 145.789062 139.339844 C 145.789062 138.917969 146.144531 138.566406 146.496094 138.566406 L 194.65625 138.566406 C 195.082031 138.566406 195.363281 138.917969 195.363281 139.339844 L 195.363281 202.585938 C 195.363281 203.011719 195.011719 203.363281 194.65625 203.363281 L 160.664062 203.363281 C 160.308594 203.363281 159.953125 203.011719 159.953125 202.585938 L 159.8125 194.769531 C 159.742188 192.867188 158.253906 191.320312 156.34375 191.25 L 146.496094 191.035156 C 146.144531 191.035156 145.789062 190.683594 145.789062 190.261719 Z M 145.789062 139.339844 " fill-opacity="1" fill-rule="nonzero"/></g><path fill="#000000" d="M 153.578125 158.992188 L 187.574219 158.992188 C 188.351562 158.992188 188.992188 158.359375 188.992188 157.582031 C 188.992188 156.808594 188.351562 156.175781 187.574219 156.175781 L 153.578125 156.175781 C 152.800781 156.175781 152.164062 156.808594 152.164062 157.582031 C 152.164062 158.359375 152.800781 158.992188 153.578125 158.992188 Z M 153.578125 158.992188 " fill-opacity="1" fill-rule="nonzero"/><path fill="#000000" d="M 165.054688 151.03125 C 165.054688 150.960938 165.125 150.820312 165.125 150.679688 C 165.125 150.539062 165.125 150.398438 165.195312 150.257812 C 165.195312 150.117188 165.195312 149.976562 165.195312 149.835938 C 165.195312 149.695312 165.195312 149.625 165.195312 149.554688 C 165.195312 149.34375 165.195312 149.132812 165.195312 148.921875 C 165.195312 148.707031 165.125 148.496094 165.125 148.285156 L 160.589844 146.808594 L 165.125 145.1875 C 165.195312 144.976562 165.195312 144.765625 165.195312 144.554688 C 165.195312 144.34375 165.195312 144.132812 165.195312 143.988281 C 165.195312 143.847656 165.195312 143.566406 165.195312 143.285156 C 165.195312 143.003906 165.125 142.722656 165.125 142.582031 L 157.828125 145.46875 C 157.6875 145.890625 157.6875 146.3125 157.6875 146.738281 C 157.6875 147.160156 157.757812 147.652344 157.828125 148.074219 Z M 165.054688 151.03125 " fill-opacity="1" fill-rule="nonzero"/><path fill="#000000" d="M 168.097656 153.003906 C 168.3125 153.003906 168.523438 153.003906 168.804688 153.003906 C 169.019531 153.003906 169.230469 152.933594 169.515625 152.933594 L 173.765625 140.539062 C 173.480469 140.46875 173.199219 140.46875 172.914062 140.398438 C 172.703125 140.398438 172.417969 140.398438 172.277344 140.398438 C 172.0625 140.398438 171.851562 140.398438 171.570312 140.398438 C 171.355469 140.398438 171.144531 140.46875 170.859375 140.46875 L 166.609375 152.863281 C 166.894531 152.933594 167.175781 152.933594 167.460938 153.003906 C 167.671875 153.003906 167.886719 153.003906 168.097656 153.003906 Z M 168.097656 153.003906 " fill-opacity="1" fill-rule="nonzero"/><path fill="#000000" d="M 175.039062 148.992188 C 175.039062 149.203125 175.039062 149.414062 175.039062 149.625 C 175.039062 149.695312 175.039062 149.835938 175.039062 149.90625 C 175.039062 150.046875 175.039062 150.1875 175.039062 150.328125 C 175.039062 150.46875 175.039062 150.609375 175.109375 150.75 C 175.109375 150.890625 175.179688 151.03125 175.179688 151.105469 L 182.402344 148.144531 C 182.546875 147.652344 182.546875 147.230469 182.546875 146.808594 C 182.546875 146.382812 182.476562 145.960938 182.402344 145.539062 L 175.179688 142.582031 C 175.109375 142.792969 175.109375 143.003906 175.109375 143.285156 C 175.109375 143.566406 175.109375 143.777344 175.109375 143.988281 C 175.109375 144.203125 175.109375 144.414062 175.109375 144.554688 C 175.109375 144.765625 175.179688 144.976562 175.179688 145.1875 L 179.714844 146.808594 L 175.179688 148.285156 C 175.039062 148.496094 175.039062 148.78125 175.039062 148.992188 Z M 175.039062 148.992188 " fill-opacity="1" fill-rule="nonzero"/><path fill="#000000" d="M 213.777344 146.3125 C 211.441406 146.3125 209.527344 148.214844 209.527344 150.539062 C 209.527344 152.863281 211.441406 154.765625 213.777344 154.765625 C 216.113281 154.765625 218.027344 152.863281 218.027344 150.539062 C 218.027344 148.214844 216.113281 146.3125 213.777344 146.3125 Z M 213.777344 151.949219 C 213 151.949219 212.363281 151.316406 212.363281 150.539062 C 212.363281 149.765625 213 149.132812 213.777344 149.132812 C 214.558594 149.132812 215.195312 149.765625 215.195312 150.539062 C 215.195312 151.316406 214.558594 151.949219 213.777344 151.949219 Z M 213.777344 151.949219 " fill-opacity="1" fill-rule="nonzero"/><path fill="#000000" d="M 220.152344 166.738281 C 222.488281 166.738281 224.402344 164.835938 224.402344 162.511719 C 224.402344 160.1875 222.488281 158.289062 220.152344 158.289062 C 217.816406 158.289062 215.902344 160.1875 215.902344 162.511719 C 215.902344 164.835938 217.816406 166.738281 220.152344 166.738281 Z M 220.152344 161.105469 C 220.929688 161.105469 221.566406 161.738281 221.566406 162.511719 C 221.566406 163.289062 220.929688 163.921875 220.152344 163.921875 C 219.371094 163.921875 218.734375 163.289062 218.734375 162.511719 C 218.734375 161.738281 219.371094 161.105469 220.152344 161.105469 Z M 220.152344 161.105469 " fill-opacity="1" fill-rule="nonzero"/><g clip-path="url(#ecb43874b9)"><path fill="#000000" d="M 225.109375 171.667969 C 225.109375 173.992188 227.019531 175.894531 229.359375 175.894531 C 231.695312 175.894531 233.609375 173.992188 233.609375 171.667969 C 233.609375 169.34375 231.695312 167.441406 229.359375 167.441406 C 227.019531 167.441406 225.109375 169.34375 225.109375 171.667969 Z M 230.773438 171.667969 C 230.773438 172.445312 230.136719 173.078125 229.359375 173.078125 C 228.578125 173.078125 227.941406 172.445312 227.941406 171.667969 C 227.941406 170.894531 228.578125 170.261719 229.359375 170.261719 C 230.136719 170.261719 230.773438 170.894531 230.773438 171.667969 Z M 230.773438 171.667969 " fill-opacity="1" fill-rule="nonzero"/></g><path fill="#000000" d="M 213.777344 188.570312 C 211.441406 188.570312 209.527344 190.472656 209.527344 192.796875 C 209.527344 195.121094 211.441406 197.023438 213.777344 197.023438 C 216.113281 197.023438 218.027344 195.121094 218.027344 192.796875 C 218.027344 190.472656 216.113281 188.570312 213.777344 188.570312 Z M 213.777344 194.207031 C 213 194.207031 212.363281 193.574219 212.363281 192.796875 C 212.363281 192.023438 213 191.390625 213.777344 191.390625 C 214.558594 191.390625 215.195312 192.023438 215.195312 192.796875 C 215.195312 193.574219 214.558594 194.207031 213.777344 194.207031 Z M 213.777344 194.207031 " fill-opacity="1" fill-rule="nonzero"/><path fill="#000000" d="M 183.890625 174.484375 L 183.113281 174.484375 C 182.828125 173.5 182.476562 172.585938 181.980469 171.738281 L 182.546875 171.175781 C 183.464844 170.261719 183.464844 168.851562 182.546875 168.007812 L 180.703125 166.175781 C 179.785156 165.261719 178.367188 165.261719 177.515625 166.175781 L 176.878906 166.738281 C 176.03125 166.246094 175.109375 165.894531 174.117188 165.613281 L 174.117188 164.835938 C 174.117188 163.570312 173.125 162.582031 171.851562 162.582031 L 169.300781 162.582031 C 168.027344 162.582031 167.035156 163.570312 167.035156 164.835938 L 167.035156 165.613281 C 166.042969 165.894531 165.125 166.246094 164.273438 166.738281 L 163.707031 166.175781 C 162.785156 165.261719 161.371094 165.261719 160.519531 166.175781 L 158.679688 168.007812 C 157.757812 168.921875 157.757812 170.332031 158.679688 171.175781 L 159.246094 171.738281 C 158.75 172.585938 158.394531 173.5 158.113281 174.484375 L 157.332031 174.484375 C 156.058594 174.484375 155.066406 175.472656 155.066406 176.738281 L 155.066406 179.273438 C 155.066406 180.542969 156.058594 181.527344 157.332031 181.527344 L 158.113281 181.527344 C 158.394531 182.515625 158.75 183.429688 159.246094 184.277344 L 158.679688 184.839844 C 157.757812 185.753906 157.757812 187.164062 158.679688 188.007812 L 160.519531 189.839844 C 161.441406 190.753906 162.859375 190.753906 163.707031 189.839844 L 164.273438 189.277344 C 165.125 189.769531 166.042969 190.121094 167.035156 190.402344 L 167.035156 191.179688 C 167.035156 192.445312 168.027344 193.433594 169.300781 193.433594 L 171.851562 193.433594 C 173.125 193.433594 174.117188 192.445312 174.117188 191.179688 L 174.117188 190.402344 C 175.109375 190.121094 176.03125 189.769531 176.878906 189.277344 L 177.445312 189.839844 C 178.367188 190.753906 179.785156 190.753906 180.632812 189.839844 L 182.476562 188.007812 C 183.394531 187.09375 183.394531 185.683594 182.476562 184.839844 L 181.910156 184.277344 C 182.402344 183.429688 182.757812 182.515625 183.042969 181.527344 L 183.820312 181.527344 C 185.09375 181.527344 186.085938 180.542969 186.085938 179.273438 L 186.085938 176.738281 C 186.15625 175.472656 185.167969 174.484375 183.890625 174.484375 Z M 183.324219 178.710938 L 181.980469 178.710938 C 181.269531 178.710938 180.703125 179.203125 180.5625 179.839844 C 180.28125 181.246094 179.785156 182.515625 178.933594 183.640625 C 178.578125 184.207031 178.652344 184.980469 179.074219 185.402344 L 180.066406 186.390625 L 179.074219 187.515625 L 178.085938 186.53125 C 177.589844 186.035156 176.808594 185.964844 176.3125 186.390625 C 175.179688 187.164062 173.835938 187.726562 172.488281 188.007812 C 171.851562 188.148438 171.355469 188.714844 171.355469 189.417969 L 171.355469 190.683594 L 169.867188 190.683594 L 169.867188 189.347656 C 169.867188 188.640625 169.375 188.078125 168.734375 187.9375 C 167.320312 187.65625 166.042969 187.164062 164.910156 186.316406 C 164.34375 185.964844 163.566406 186.035156 163.140625 186.460938 L 162.078125 187.515625 L 161.015625 186.460938 L 162.007812 185.472656 C 162.503906 184.980469 162.574219 184.207031 162.148438 183.710938 C 161.371094 182.585938 160.804688 181.246094 160.519531 179.910156 C 160.378906 179.273438 159.8125 178.78125 159.105469 178.78125 L 157.828125 178.78125 L 157.828125 177.304688 L 159.175781 177.304688 C 159.882812 177.304688 160.449219 176.808594 160.589844 176.175781 C 160.875 174.769531 161.371094 173.5 162.21875 172.375 C 162.574219 171.808594 162.503906 171.035156 162.078125 170.613281 L 161.015625 169.554688 L 162.078125 168.5 L 163.070312 169.484375 C 163.566406 169.980469 164.34375 170.050781 164.839844 169.625 C 165.972656 168.851562 167.320312 168.289062 168.664062 168.007812 C 169.300781 167.867188 169.796875 167.300781 169.796875 166.597656 L 169.796875 165.332031 L 171.285156 165.332031 L 171.285156 166.667969 C 171.285156 167.371094 171.78125 167.9375 172.417969 168.078125 C 173.835938 168.359375 175.109375 168.851562 176.242188 169.695312 C 176.808594 170.050781 177.589844 169.980469 178.011719 169.554688 L 179.003906 168.570312 L 180.066406 169.625 L 179.074219 170.613281 C 178.578125 171.105469 178.507812 171.878906 178.933594 172.375 C 179.714844 173.5 180.28125 174.839844 180.5625 176.175781 C 180.703125 176.808594 181.269531 177.304688 181.980469 177.304688 L 183.324219 177.304688 Z M 183.324219 178.710938 " fill-opacity="1" fill-rule="nonzero"/><path fill="#000000" d="M 170.578125 170.964844 C 166.683594 170.964844 163.496094 174.132812 163.496094 178.007812 C 163.496094 181.882812 166.683594 185.050781 170.578125 185.050781 C 174.472656 185.050781 177.660156 181.882812 177.660156 178.007812 C 177.660156 174.132812 174.472656 170.964844 170.578125 170.964844 Z M 170.578125 182.234375 C 168.238281 182.234375 166.328125 180.332031 166.328125 178.007812 C 166.328125 175.683594 168.238281 173.78125 170.578125 173.78125 C 172.914062 173.78125 174.828125 175.683594 174.828125 178.007812 C 174.828125 180.332031 172.914062 182.234375 170.578125 182.234375 Z M 170.578125 182.234375 " fill-opacity="1" fill-rule="nonzero"/><path fill="#000000" d="M 224.753906 181.527344 C 224.753906 179.203125 222.84375 177.304688 220.503906 177.304688 C 218.167969 177.304688 216.257812 179.203125 216.257812 181.527344 C 216.257812 183.851562 218.167969 185.753906 220.503906 185.753906 C 222.84375 185.753906 224.753906 183.851562 224.753906 181.527344 Z M 219.089844 181.527344 C 219.089844 180.753906 219.726562 180.121094 220.503906 180.121094 C 221.285156 180.121094 221.921875 180.753906 221.921875 181.527344 C 221.921875 182.304688 221.285156 182.9375 220.503906 182.9375 C 219.726562 182.9375 219.089844 182.304688 219.089844 181.527344 Z M 219.089844 181.527344 " fill-opacity="1" fill-rule="nonzero"/></svg>