<svg xmlns="http://www.w3.org/2000/svg" xmlns:xlink="http://www.w3.org/1999/xlink" width="500" zoomAndPan="magnify" viewBox="0 0 375 374.999991" height="500" preserveAspectRatio="xMidYMid meet" version="1.0"><defs><clipPath id="679b3f157b"><path d="M 93.414062 77.257812 L 281.585938 77.257812 L 281.585938 265.429688 L 93.414062 265.429688 Z M 93.414062 77.257812 " clip-rule="nonzero"/></clipPath><clipPath id="7d62a7bc8d"><path d="M 187.5 77.257812 C 135.539062 77.257812 93.414062 119.382812 93.414062 171.34375 C 93.414062 223.308594 135.539062 265.429688 187.5 265.429688 C 239.460938 265.429688 281.585938 223.308594 281.585938 171.34375 C 281.585938 119.382812 239.460938 77.257812 187.5 77.257812 Z M 187.5 77.257812 " clip-rule="nonzero"/></clipPath><clipPath id="2df39d91f0"><path d="M 113.71875 97.5625 L 261.28125 97.5625 L 261.28125 245.128906 L 113.71875 245.128906 Z M 113.71875 97.5625 " clip-rule="nonzero"/></clipPath><clipPath id="a1ab162ef6"><path d="M 187.5 97.5625 C 146.75 97.5625 113.71875 130.597656 113.71875 171.34375 C 113.71875 212.09375 146.75 245.128906 187.5 245.128906 C 228.25 245.128906 261.28125 212.09375 261.28125 171.34375 C 261.28125 130.597656 228.25 97.5625 187.5 97.5625 Z M 187.5 97.5625 " clip-rule="nonzero"/></clipPath><clipPath id="62878b28a4"><path d="M 167.839844 249.347656 L 207.160156 249.347656 L 207.160156 297.882812 L 167.839844 297.882812 Z M 167.839844 249.347656 " clip-rule="nonzero"/></clipPath><clipPath id="e3151d453b"><path d="M 180.953125 296.605469 C 182.96875 297.289062 185.261719 297.742188 187.511719 297.742188 C 189.761719 297.742188 191.925781 297.355469 193.917969 296.667969 C 193.960938 296.648438 194.003906 296.648438 194.046875 296.625 C 201.535156 293.882812 207.054688 286.644531 207.160156 278.183594 L 207.160156 249.347656 L 167.839844 249.347656 L 167.839844 278.160156 C 167.945312 286.6875 173.378906 293.925781 180.953125 296.605469 Z M 180.953125 296.605469 " clip-rule="nonzero"/></clipPath><clipPath id="1b900b3a17"><path d="M 150.046875 130.613281 L 224.296875 130.613281 L 224.296875 212 L 150.046875 212 Z M 150.046875 130.613281 " clip-rule="nonzero"/></clipPath></defs><g clip-path="url(#679b3f157b)"><g clip-path="url(#7d62a7bc8d)"><path fill="#ff7f00" d="M 93.414062 77.257812 L 281.585938 77.257812 L 281.585938 265.429688 L 93.414062 265.429688 Z M 93.414062 77.257812 " fill-opacity="1" fill-rule="nonzero"/></g></g><g clip-path="url(#2df39d91f0)"><g clip-path="url(#a1ab162ef6)"><path fill="#ffffff" d="M 113.71875 97.5625 L 261.28125 97.5625 L 261.28125 245.128906 L 113.71875 245.128906 Z M 113.71875 97.5625 " fill-opacity="1" fill-rule="nonzero"/></g></g><g clip-path="url(#62878b28a4)"><g clip-path="url(#e3151d453b)"><path fill="#ff7f00" d="M 167.839844 249.347656 L 207.160156 249.347656 L 207.160156 297.726562 L 167.839844 297.726562 Z M 167.839844 249.347656 " fill-opacity="1" fill-rule="nonzero"/></g></g><g clip-path="url(#1b900b3a17)"><path fill="#000000" d="M 213.394531 185.203125 C 211.359375 187.292969 208.449219 189.8125 205.207031 192.300781 C 198.371094 197.554688 191.628906 201.503906 188.820312 201.90625 C 183.398438 202.679688 180.898438 202.0625 178.894531 201.570312 C 175.824219 200.8125 173.714844 200.507812 167.816406 203.246094 L 162.105469 191.097656 L 174.589844 184.351562 C 175.554688 183.832031 176.585938 183.796875 177.582031 184.25 L 188.109375 189.050781 C 188.886719 189.40625 189.285156 190.238281 189.078125 191.070312 C 188.921875 191.699219 188.695312 192.234375 188.058594 192.570312 C 187.746094 192.734375 187.445312 192.769531 187.160156 192.664062 L 179.871094 190.003906 C 179.679688 189.933594 179.476562 189.914062 179.273438 189.945312 L 175.835938 190.453125 C 175.167969 190.550781 174.707031 191.175781 174.804688 191.847656 C 174.902344 192.519531 175.523438 192.984375 176.195312 192.886719 L 179.324219 192.421875 L 186.324219 194.976562 C 188.1875 195.65625 190.148438 194.59375 191.039062 192.859375 L 191.761719 192.871094 C 193.214844 192.894531 194.515625 192.519531 195.738281 191.730469 C 196.46875 191.261719 197.59375 190.488281 198.898438 189.59375 C 201.402344 187.871094 204.835938 185.519531 207.890625 183.636719 C 212.542969 180.773438 213.980469 180.457031 214.382812 180.453125 C 215.550781 180.441406 216.058594 180.527344 216.5 181.023438 C 216.445312 181.304688 216.074219 182.460938 213.394531 185.203125 Z M 166.457031 206.902344 C 166.5625 206.613281 166.546875 206.308594 166.421875 206.039062 L 158.832031 189.902344 C 158.5625 189.328125 157.878906 189.074219 157.3125 189.339844 L 153.675781 191.035156 C 153.109375 191.300781 152.851562 191.988281 153.117188 192.554688 L 160.707031 208.691406 C 160.976562 209.265625 161.660156 209.519531 162.226562 209.253906 L 165.863281 207.554688 C 166.140625 207.425781 166.351562 207.195312 166.457031 206.902344 Z M 214.363281 177.992188 C 211.648438 178.015625 204.84375 182.53125 197.515625 187.5625 C 196.226562 188.445312 195.113281 189.210938 194.414062 189.660156 C 193.453125 190.28125 192.6875 190.421875 191.578125 190.410156 C 191.492188 188.878906 190.574219 187.472656 189.121094 186.8125 L 178.59375 182.011719 C 176.902344 181.238281 175.070312 181.300781 173.429688 182.183594 L 161.058594 188.871094 L 161.050781 188.855469 C 160.203125 187.058594 158.066406 186.277344 156.277344 187.113281 L 152.644531 188.804688 C 150.847656 189.644531 150.054688 191.804688 150.898438 193.605469 L 158.488281 209.742188 C 159.34375 211.554688 161.496094 212.304688 163.261719 211.484375 L 166.898438 209.785156 C 168.523438 209.03125 169.339844 207.1875 168.824219 205.484375 C 174.257812 202.960938 175.820312 203.34375 178.308594 203.957031 C 180.519531 204.503906 183.273438 205.183594 189.164062 204.339844 C 192.878906 203.808594 200.074219 199.222656 205.570312 195.109375 C 211.074219 190.988281 217.410156 185.441406 218.6875 182.222656 C 219.210938 180.902344 218.878906 180.066406 218.503906 179.59375 C 217.214844 177.96875 215.496094 177.984375 214.363281 177.992188 Z M 219.703125 138.664062 L 213.566406 144.574219 C 213.066406 145.054688 212.269531 145.023438 211.808594 144.511719 L 208.785156 141.152344 C 208.335938 140.648438 208.375 139.867188 208.875 139.414062 C 209.378906 138.960938 210.152344 139 210.605469 139.503906 L 212.78125 141.921875 L 218.007812 136.890625 C 218.496094 136.421875 219.269531 136.4375 219.738281 136.925781 C 220.207031 137.417969 220.191406 138.195312 219.703125 138.664062 Z M 188.492188 171.554688 C 184.988281 171.554688 182.136719 168.695312 182.136719 165.179688 C 182.136719 161.664062 184.988281 158.804688 188.492188 158.804688 C 191.996094 158.804688 194.84375 161.664062 194.84375 165.179688 C 194.84375 168.695312 191.996094 171.554688 188.492188 171.554688 Z M 188.492188 156.347656 C 183.636719 156.347656 179.6875 160.308594 179.6875 165.179688 C 179.6875 170.050781 183.636719 174.011719 188.492188 174.011719 C 193.347656 174.011719 197.296875 170.050781 197.296875 165.179688 C 197.296875 160.308594 193.347656 156.347656 188.492188 156.347656 Z M 158.714844 143 L 160.972656 140.730469 L 158.714844 138.46875 C 158.238281 137.984375 158.238281 137.207031 158.714844 136.730469 C 159.195312 136.25 159.972656 136.25 160.449219 136.730469 L 162.707031 138.992188 L 164.964844 136.730469 C 165.445312 136.25 166.21875 136.25 166.699219 136.730469 C 167.175781 137.207031 167.175781 137.984375 166.699219 138.46875 L 164.441406 140.730469 L 166.699219 143 C 167.46875 143.773438 166.917969 145.097656 165.832031 145.097656 C 165.519531 145.097656 165.207031 144.976562 164.964844 144.738281 L 162.707031 142.472656 L 160.449219 144.738281 C 159.972656 145.214844 159.195312 145.214844 158.714844 144.738281 C 158.238281 144.257812 158.238281 143.476562 158.714844 143 Z M 214.277344 148.34375 C 218.457031 148.34375 221.863281 144.929688 221.863281 140.730469 C 221.863281 136.535156 218.457031 133.121094 214.277344 133.121094 C 210.09375 133.121094 206.691406 136.535156 206.691406 140.730469 C 206.691406 144.929688 210.09375 148.34375 214.277344 148.34375 Z M 214.277344 130.664062 C 208.742188 130.664062 204.238281 135.179688 204.238281 140.730469 C 204.238281 146.285156 208.742188 150.804688 214.277344 150.804688 C 219.808594 150.804688 224.3125 146.285156 224.3125 140.730469 C 224.3125 135.179688 219.808594 130.664062 214.277344 130.664062 Z M 162.707031 133.121094 C 158.527344 133.121094 155.121094 136.535156 155.121094 140.730469 C 155.121094 144.929688 158.527344 148.34375 162.707031 148.34375 C 166.890625 148.34375 170.292969 144.929688 170.292969 140.730469 C 170.292969 136.535156 166.890625 133.121094 162.707031 133.121094 Z M 162.707031 150.804688 C 168.242188 150.804688 172.746094 146.285156 172.746094 140.730469 C 172.746094 135.179688 168.242188 130.660156 162.707031 130.660156 C 157.171875 130.660156 152.667969 135.179688 152.667969 140.730469 C 152.667969 146.285156 157.171875 150.804688 162.707031 150.804688 Z M 203.707031 171.183594 L 201.078125 168.253906 C 200.828125 167.976562 200.71875 167.597656 200.777344 167.230469 C 201.003906 165.886719 201 164.472656 200.777344 163.128906 C 200.71875 162.757812 200.828125 162.382812 201.078125 162.105469 L 203.707031 159.171875 L 201.285156 154.964844 L 197.433594 155.785156 C 197.070312 155.863281 196.691406 155.769531 196.402344 155.53125 C 195.335938 154.652344 194.148438 153.960938 192.863281 153.476562 C 192.515625 153.347656 192.246094 153.0625 192.128906 152.707031 L 190.914062 148.957031 L 186.066406 148.957031 L 184.855469 152.707031 C 184.738281 153.0625 184.46875 153.347656 184.117188 153.476562 C 182.835938 153.960938 181.648438 154.652344 180.582031 155.53125 C 180.292969 155.769531 179.914062 155.863281 179.546875 155.785156 L 175.703125 154.964844 L 173.277344 159.171875 L 175.90625 162.105469 C 176.15625 162.382812 176.265625 162.757812 176.207031 163.128906 C 175.980469 164.5 175.980469 165.859375 176.207031 167.230469 C 176.265625 167.601562 176.15625 167.976562 175.90625 168.253906 L 173.277344 171.183594 L 175.703125 175.394531 L 179.546875 174.578125 C 179.914062 174.496094 180.292969 174.589844 180.582031 174.828125 C 181.648438 175.710938 182.835938 176.398438 184.117188 176.882812 C 184.46875 177.011719 184.738281 177.296875 184.855469 177.652344 L 186.066406 181.402344 L 190.914062 181.402344 L 192.128906 177.652344 C 192.246094 177.296875 192.515625 177.015625 192.863281 176.882812 C 194.148438 176.398438 195.339844 175.710938 196.402344 174.832031 C 196.691406 174.589844 197.070312 174.496094 197.4375 174.578125 L 201.285156 175.394531 Z M 215.300781 152.625 C 215.265625 152.574219 215.226562 152.519531 215.183594 152.472656 C 215.179688 152.472656 215.179688 152.472656 215.179688 152.472656 C 214.953125 152.214844 214.625 152.070312 214.269531 152.070312 C 214.253906 152.046875 213.691406 152.09375 213.355469 152.488281 L 209.246094 158.5625 C 208.867188 159.125 209.015625 159.890625 209.574219 160.269531 C 210.136719 160.648438 210.898438 160.503906 211.277344 159.941406 L 213.050781 157.3125 L 213.050781 161.011719 C 213.050781 162.726562 211.65625 164.125 209.945312 164.125 L 203.359375 164.125 C 203.339844 163.855469 203.316406 163.589844 203.28125 163.324219 L 205.9375 160.367188 C 206.40625 159.84375 206.484375 159.082031 206.136719 158.476562 L 203.101562 153.203125 C 202.75 152.59375 202.054688 152.285156 201.371094 152.429688 L 197.488281 153.257812 C 196.5 152.503906 195.421875 151.878906 194.285156 151.398438 L 193.058594 147.613281 C 192.839844 146.945312 192.226562 146.5 191.527344 146.5 L 185.457031 146.5 C 184.757812 146.5 184.140625 146.945312 183.925781 147.613281 L 182.699219 151.398438 C 181.558594 151.882812 180.488281 152.503906 179.496094 153.257812 L 175.613281 152.429688 C 174.929688 152.285156 174.230469 152.59375 173.882812 153.203125 L 170.847656 158.476562 C 170.5 159.082031 170.578125 159.84375 171.046875 160.363281 L 173.699219 163.324219 C 173.667969 163.589844 173.644531 163.855469 173.625 164.125 L 167.039062 164.125 C 165.324219 164.125 163.933594 162.726562 163.933594 161.011719 L 163.933594 157.3125 L 165.707031 159.941406 C 166.085938 160.503906 166.847656 160.648438 167.40625 160.269531 C 167.96875 159.890625 168.117188 159.125 167.738281 158.5625 L 163.628906 152.488281 C 163.59375 152.445312 163.554688 152.40625 163.511719 152.371094 C 163.511719 152.371094 163.511719 152.371094 163.511719 152.367188 C 163.492188 152.367188 163.21875 152.070312 162.695312 152.070312 C 162.136719 152.074219 161.785156 152.476562 161.785156 152.492188 L 157.679688 158.5625 C 157.300781 159.125 157.445312 159.890625 158.007812 160.269531 C 158.570312 160.648438 159.332031 160.503906 159.710938 159.941406 L 161.484375 157.3125 L 161.484375 161.011719 C 161.484375 164.082031 163.976562 166.582031 167.039062 166.582031 L 173.652344 166.582031 C 173.667969 166.734375 173.683594 166.886719 173.699219 167.035156 L 171.046875 169.992188 C 170.578125 170.515625 170.5 171.277344 170.847656 171.882812 L 173.882812 177.15625 C 174.230469 177.765625 174.929688 178.074219 175.613281 177.929688 L 179.496094 177.101562 C 180.488281 177.855469 181.558594 178.476562 182.699219 178.960938 L 183.925781 182.746094 C 184.144531 183.414062 184.757812 183.859375 185.457031 183.859375 L 191.527344 183.859375 C 192.226562 183.859375 192.839844 183.414062 193.058594 182.746094 L 194.285156 178.960938 C 195.425781 178.476562 196.5 177.855469 197.492188 177.101562 L 201.371094 177.929688 C 202.054688 178.074219 202.75 177.765625 203.101562 177.15625 L 206.136719 171.882812 C 206.484375 171.277344 206.40625 170.515625 205.9375 169.992188 L 203.28125 167.035156 C 203.300781 166.886719 203.316406 166.734375 203.332031 166.582031 L 209.945312 166.582031 C 213.007812 166.582031 215.503906 164.082031 215.503906 161.007812 L 215.503906 157.3125 L 217.273438 159.941406 C 217.652344 160.503906 218.414062 160.648438 218.976562 160.269531 C 219.539062 159.890625 219.683594 159.125 219.304688 158.5625 Z M 215.300781 152.625 " fill-opacity="1" fill-rule="evenodd"/></g></svg>