<svg width="24" height="24" viewBox="0 0 16 16" fill="none" xmlns="http://www.w3.org/2000/svg">
<path fill-rule="evenodd" clip-rule="evenodd" d="M13.3333 12C13.7015 12 14 11.7015 14 11.3333V11.3333C14 10.9651 13.7015 10.6667 13.3333 10.6667H2.66667C2.29848 10.6667 2 10.9651 2 11.3333V11.3333C2 11.7015 2.29848 12 2.66667 12H13.3333ZM13.3333 8.66667C13.7015 8.66667 14 8.36819 14 8V8C14 7.63181 13.7015 7.33333 13.3333 7.33333H2.66667C2.29848 7.33333 2 7.63181 2 8V8C2 8.36819 2.29848 8.66667 2.66667 8.66667H13.3333ZM2 4.66667C2 5.03486 2.29848 5.33333 2.66667 5.33333H13.3333C13.7015 5.33333 14 5.03486 14 4.66667V4.66667C14 4.29848 13.7015 4 13.3333 4H2.66667C2.29848 4 2 4.29848 2 4.66667V4.66667Z" fill="#C2D1D9"/>
<mask id="mask0_1098_9785" style="mask-type:luminance" maskUnits="userSpaceOnUse" x="2" y="4" width="12" height="8">
<path fill-rule="evenodd" clip-rule="evenodd" d="M13.3333 12C13.7015 12 14 11.7015 14 11.3333V11.3333C14 10.9651 13.7015 10.6667 13.3333 10.6667H2.66667C2.29848 10.6667 2 10.9651 2 11.3333V11.3333C2 11.7015 2.29848 12 2.66667 12H13.3333ZM13.3333 8.66667C13.7015 8.66667 14 8.36819 14 8V8C14 7.63181 13.7015 7.33333 13.3333 7.33333H2.66667C2.29848 7.33333 2 7.63181 2 8V8C2 8.36819 2.29848 8.66667 2.66667 8.66667H13.3333ZM2 4.66667C2 5.03486 2.29848 5.33333 2.66667 5.33333H13.3333C13.7015 5.33333 14 5.03486 14 4.66667V4.66667C14 4.29848 13.7015 4 13.3333 4H2.66667C2.29848 4 2 4.29848 2 4.66667V4.66667Z" fill="white"/>
</mask>
<g mask="url(#mask0_1098_9785)">
<rect width="24" height="24" fill="white"/>
</g>
</svg>
