<?xml version="1.0" encoding="UTF-8"?>
<svg version="1.1" xmlns="http://www.w3.org/2000/svg" width="898" height="857">
<path d="M0 0 C296.34 0 592.68 0 898 0 C898 282.81 898 565.62 898 857 C601.66 857 305.32 857 0 857 C0 574.19 0 291.38 0 0 Z " fill="#FEFEFE" transform="translate(0,0)"/>
<path d="M0 0 C1.30649002 -0.00101212 1.30649002 -0.00101212 2.63937378 -0.00204468 C91.58218457 0.1061398 180.81545454 28.31604688 253.4375 86.25 C254.36820313 86.99121094 255.29890625 87.73242188 256.2578125 88.49609375 C261.90437156 93.03378814 267.3161625 97.78021077 272.63671875 102.6953125 C274.80984571 104.67749525 277.00703926 106.60775545 279.234375 108.52734375 C283.67432323 112.40099073 287.84616094 116.51110616 292 120.6875 C292.71607422 121.39970703 293.43214844 122.11191406 294.16992188 122.84570312 C298.7988429 127.48304803 303.17614504 132.27455509 307.4375 137.25 C308.283125 138.21421875 309.12875 139.1784375 310 140.171875 C323.53118634 155.87152069 335.5028546 172.65563133 346.4375 190.25 C346.86836914 190.94061523 347.29923828 191.63123047 347.74316406 192.34277344 C380.78816418 245.74328431 398.98255261 305.01843901 405.4375 367.25 C405.54352539 368.2392749 405.64955078 369.2285498 405.75878906 370.24780273 C406.6431093 379.42143656 406.68103456 388.60407074 406.6875 397.8125 C406.68851212 399.11899002 406.68851212 399.11899002 406.68954468 400.45187378 C406.5813602 489.39468457 378.37145312 578.62795454 320.4375 651.25 C319.69628906 652.18070313 318.95507812 653.11140625 318.19140625 654.0703125 C313.65371186 659.71687156 308.90728923 665.1286625 303.9921875 670.44921875 C302.01000475 672.62234571 300.07974455 674.81953926 298.16015625 677.046875 C294.28650927 681.48682323 290.17639384 685.65866094 286 689.8125 C285.28779297 690.52857422 284.57558594 691.24464844 283.84179688 691.98242188 C279.20445197 696.6113429 274.41294491 700.98864504 269.4375 705.25 C268.47328125 706.095625 267.5090625 706.94125 266.515625 707.8125 C245.84507284 725.62800352 223.24027936 740.93889045 199.4375 754.25 C198.28556152 754.89485352 198.28556152 754.89485352 197.11035156 755.55273438 C176.22906055 767.12061496 154.42862456 776.16260891 131.8125 783.6875 C130.70779861 784.0555928 130.70779861 784.0555928 129.58078003 784.43112183 C114.53109655 789.41597832 99.35643217 793.99278762 83.75 796.875 C82.10064453 797.18401245 82.10064453 797.18401245 80.41796875 797.49926758 C69.46988429 799.50248389 58.5034763 801.0700275 47.4375 802.25 C46.48633301 802.35441406 45.53516602 802.45882812 44.55517578 802.56640625 C13.31336767 805.86105379 -18.43277536 805.33258684 -49.5625 801.25 C-50.42311035 801.13785156 -51.2837207 801.02570312 -52.17041016 800.91015625 C-57.3406475 800.20438128 -62.44671287 799.2735612 -67.5625 798.25 C-68.56216797 798.05567383 -69.56183594 797.86134766 -70.59179688 797.66113281 C-123.5559146 787.27022526 -173.59834953 767.22610031 -218.5625 737.25 C-218.5625 736.59 -218.5625 735.93 -218.5625 735.25 C47.9375 581.5 47.9375 581.5 51.18798828 579.62475586 C53.35307071 578.37564482 55.51810982 577.12645871 57.68310547 575.87719727 C63.12365706 572.73797691 68.56497216 569.60009437 74.0078125 566.46484375 C84.45956199 560.44252671 94.90049548 554.40330663 105.3125 548.3125 C114.58313931 542.89041301 123.89686699 537.54675988 133.22796631 532.22976685 C141.32457843 527.61515971 149.39538801 522.95915114 157.4375 518.25 C166.66550529 512.8464354 175.9374467 507.52347639 185.22851562 502.22949219 C193.32494133 497.61497196 201.39556509 492.95904745 209.4375 488.25 C218.07247557 483.19369077 226.74356319 478.20392878 235.4375 473.25 C245.15874506 467.71014067 254.84644868 462.11625068 264.50439453 456.46655273 C275.02834625 450.31233258 285.59130137 444.22630004 296.15527344 438.14111328 C300.50356958 435.63576503 304.85042341 433.12792178 309.19702148 430.61962891 C311.34467831 429.38051522 313.49262418 428.14190236 315.64086914 426.90380859 C320.71553957 423.97855998 325.7875591 421.04897413 330.8508606 418.10409546 C333.24065668 416.7145137 335.63186836 415.32737828 338.02319336 413.94042969 C339.70890589 412.96136747 341.39256587 411.97877394 343.07617188 410.99609375 C344.09904297 410.403125 345.12191406 409.81015625 346.17578125 409.19921875 C347.07337158 408.67674561 347.97096191 408.15427246 348.89575195 407.6159668 C351.35963502 406.2918456 353.82114731 405.23293426 356.4375 404.25 C356.4375 403.59 356.4375 402.93 356.4375 402.25 C355.73149658 401.98606445 355.02549316 401.72212891 354.2980957 401.45019531 C351.26890942 400.17926592 348.51669805 398.68237207 345.66796875 397.046875 C344.54438965 396.40355225 343.42081055 395.76022949 342.26318359 395.09741211 C341.05038279 394.39840128 339.83765681 393.69926061 338.625 393 C337.36290022 392.2752852 336.10069169 391.55075976 334.83837891 390.82641602 C325.99473637 385.74625437 317.17882033 380.61874397 308.37524414 375.46948242 C297.85005252 369.31376359 287.28528019 363.22721107 276.71972656 357.14111328 C271.29090058 354.01319852 265.86430719 350.88141552 260.4375 347.75 C258.27084417 346.49998121 256.1041775 345.24998122 253.9375 344 C180.27083333 301.5 106.60416667 259 32.9375 216.5 C31.86483887 215.88116943 30.79217773 215.26233887 29.68701172 214.62475586 C27.52192929 213.37564482 25.35689018 212.12645871 23.19189453 210.87719727 C17.75134294 207.73797691 12.31002784 204.60009437 6.8671875 201.46484375 C-3.58456199 195.44252671 -14.02549548 189.40330663 -24.4375 183.3125 C-33.11512241 178.23724877 -41.82855568 173.22741233 -50.5625 168.25 C-60.28365617 162.7099827 -69.97144658 157.11625191 -79.62939453 151.46655273 C-90.15334625 145.31233258 -100.71630137 139.22630004 -111.28027344 133.14111328 C-116.70909942 130.01319852 -122.13569281 126.88141552 -127.5625 123.75 C-129.72915583 122.49998121 -131.8958225 121.24998122 -134.0625 120 C-173.0625 97.5 -173.0625 97.5 -176.31835938 95.62158203 C-178.46545136 94.38289998 -180.61258614 93.1442921 -182.75976562 91.90576172 C-187.85838809 88.9646665 -192.95655296 86.02278587 -198.05322266 83.07830811 C-200.47297665 81.68041399 -202.89297263 80.28293911 -205.31298828 78.88549805 C-207.03051052 77.89347676 -208.74768052 76.90084571 -210.46484375 75.90820312 C-211.49738281 75.31201172 -212.52992188 74.71582031 -213.59375 74.1015625 C-214.50705078 73.57385254 -215.42035156 73.04614258 -216.36132812 72.50244141 C-217.74238691 71.71663489 -219.14128495 70.96060752 -220.5625 70.25 C-220.5625 69.59 -220.5625 68.93 -220.5625 68.25 C-218.03225522 66.52609696 -215.50475548 64.9353706 -212.875 63.375 C-212.06409912 62.8888623 -211.25319824 62.40272461 -210.41772461 61.90185547 C-207.80453575 60.34227124 -205.18373884 58.79600783 -202.5625 57.25 C-201.33563477 56.51716797 -201.33563477 56.51716797 -200.08398438 55.76953125 C-177.29505796 42.17997161 -153.5106446 31.24408453 -128.5625 22.25 C-127.84771484 21.98783691 -127.13292969 21.72567383 -126.39648438 21.45556641 C-95.49094408 10.18290698 -63.14681478 4.62979691 -30.5625 1.25 C-29.5732251 1.14397461 -28.5839502 1.03794922 -27.56469727 0.92871094 C-18.39106344 0.0443907 -9.20842926 0.00646544 0 0 Z " fill="#0038A8" transform="translate(436.5625,20.75)"/>
<path d="M0 0 C1.10272751 0.00424484 2.20545502 0.00848969 3.34159851 0.01286316 C6.85688898 0.0296297 10.37160211 0.06727924 13.88671875 0.10546875 C16.27277817 0.12051816 18.65884659 0.13420611 21.04492188 0.14648438 C26.88821717 0.17952663 32.73117671 0.22970639 38.57421875 0.29296875 C38.73049447 11.21490486 38.34954771 21.97596075 37.38671875 32.85546875 C37.32208435 33.60121155 37.25744995 34.34695435 37.19085693 35.11529541 C30.42750206 111.95570747 1.62388526 188.29392114 -47.42578125 248.29296875 C-48.16699219 249.22367188 -48.90820312 250.154375 -49.671875 251.11328125 C-54.20956939 256.75984031 -58.95599202 262.17163125 -63.87109375 267.4921875 C-65.8532765 269.66531446 -67.7835367 271.86250801 -69.703125 274.08984375 C-73.57677198 278.52979198 -77.68688741 282.70162969 -81.86328125 286.85546875 C-82.57548828 287.57154297 -83.28769531 288.28761719 -84.02148438 289.02539062 C-88.65882928 293.65431165 -93.45033634 298.03161379 -98.42578125 302.29296875 C-99.39 303.13859375 -100.35421875 303.98421875 -101.34765625 304.85546875 C-122.01820841 322.67097227 -144.62300189 337.9818592 -168.42578125 351.29296875 C-169.19374023 351.72287109 -169.96169922 352.15277344 -170.75292969 352.59570312 C-191.6342207 364.16358371 -213.43465669 373.20557766 -236.05078125 380.73046875 C-236.78724884 380.97586395 -237.52371643 381.22125916 -238.28250122 381.47409058 C-253.3321847 386.45894707 -268.50684908 391.03575637 -284.11328125 393.91796875 C-285.76263672 394.2269812 -285.76263672 394.2269812 -287.4453125 394.54223633 C-298.39339696 396.54545264 -309.35980495 398.11299625 -320.42578125 399.29296875 C-321.37694824 399.39738281 -322.32811523 399.50179688 -323.30810547 399.609375 C-354.54991358 402.90402254 -386.29605661 402.37555559 -417.42578125 398.29296875 C-418.2863916 398.18082031 -419.14700195 398.06867188 -420.03369141 397.953125 C-425.20392875 397.24735003 -430.30999412 396.31652995 -435.42578125 395.29296875 C-436.42544922 395.09864258 -437.42511719 394.90431641 -438.45507812 394.70410156 C-491.41919585 384.31319401 -541.46163078 364.26906906 -586.42578125 334.29296875 C-586.42578125 333.63296875 -586.42578125 332.97296875 -586.42578125 332.29296875 C-319.92578124 178.54296875 -319.92578124 178.54296875 -316.67529297 176.66772461 C-314.51021054 175.41861357 -312.34517143 174.16942746 -310.18017578 172.92016602 C-304.73962419 169.78094566 -299.29830909 166.64306312 -293.85546875 163.5078125 C-283.40371926 157.48549546 -272.96278577 151.44627538 -262.55078125 145.35546875 C-253.28014194 139.93338176 -243.96641426 134.58972863 -234.63531494 129.2727356 C-226.53870282 124.65812846 -218.46789324 120.00211989 -210.42578125 115.29296875 C-201.19777596 109.88940415 -191.92583455 104.56644514 -182.63476562 99.27246094 C-174.53833992 94.65794071 -166.46771616 90.0020162 -158.42578125 85.29296875 C-149.79080568 80.23665952 -141.11971806 75.24689753 -132.42578125 70.29296875 C-122.70453619 64.75310942 -113.01683257 59.15921943 -103.35888672 53.50952148 C-92.834935 47.35530133 -82.27197988 41.26926879 -71.70800781 35.18408203 C-66.27918186 32.05616728 -60.85256761 28.92442032 -55.42578125 25.79296875 C-49.28866438 22.25176672 -43.15140364 18.71081765 -37.01242065 15.17285156 C-34.62151528 13.79489937 -32.23079453 12.41662703 -29.84008789 11.03833008 C-28.15594162 10.06755893 -26.47152894 9.09725001 -24.78710938 8.12695312 C-23.76423828 7.53720703 -22.74136719 6.94746094 -21.6875 6.33984375 C-20.78990967 5.82260742 -19.89231934 5.30537109 -18.9675293 4.77246094 C-16.42194455 3.37094771 -16.42194455 3.37094771 -14.31103516 1.62084961 C-9.67789511 -0.51146116 -5.03417212 -0.07299342 0 0 Z " fill="#CE1126" transform="translate(804.42578125,423.70703125)"/>
<path d="M0 0 C5.17555054 2.41837238 9.00205273 5.04003408 12 10 C12.1940918 13.29345703 12.1940918 13.29345703 11.82421875 17.1953125 C11.69672971 18.72099112 11.57077145 20.24679814 11.44604492 21.77270508 C11.37211517 22.6064566 11.29818542 23.44020813 11.22201538 24.29922485 C10.8089043 29.32464311 10.5595993 34.36018429 10.28125 39.39453125 C10.15306829 41.60876602 10.02415246 43.82295841 9.89453125 46.03710938 C9.69630494 49.43769898 9.49851042 52.83831022 9.30224609 56.23901367 C9.10915781 59.58260317 8.9141292 62.92607493 8.71875 66.26953125 C8.661427 67.26982864 8.604104 68.27012604 8.54504395 69.30073547 C8.13873177 76.21074594 7.60298385 83.1044422 7 90 C8.65 90 10.3 90 12 90 C12.11214844 88.36611328 12.11214844 88.36611328 12.2265625 86.69921875 C13.76182565 66.73663156 16.83789577 46.95090329 19.69143677 27.14382935 C20.13007963 24.09623538 20.5651351 21.04813513 21 18 C22.13199353 18.9080162 23.25532363 19.82683826 24.375 20.75 C25.00148438 21.26046875 25.62796875 21.7709375 26.2734375 22.296875 C28.19293356 24.19031456 29.06060211 25.47177899 30 28 C29.79167175 30.69396973 29.79167175 30.69396973 29.14135742 33.80664062 C28.90418503 34.9746521 28.66701263 36.14266357 28.4226532 37.34606934 C28.15298233 38.60342896 27.88331146 39.86078857 27.60546875 41.15625 C27.33480791 42.46350651 27.065319 43.77100616 26.79695129 45.07873535 C26.08756908 48.51896074 25.36187894 51.95554993 24.63287354 55.3916626 C23.89541587 58.88268633 23.17418119 62.37705493 22.45117188 65.87109375 C18.21687484 86.28013927 18.21687484 86.28013927 17 91 C18.48886719 91.29390625 18.48886719 91.29390625 20.0078125 91.59375 C30.19297094 93.77700426 38.25982512 97.37351242 47 103 C47.27172028 102.26804916 47.54344055 101.53609833 47.82339478 100.78196716 C48.95232466 98.11272364 50.22772922 95.89968838 51.82568359 93.48852539 C52.39322357 92.62735611 52.96076355 91.76618683 53.54550171 90.87892151 C54.15697052 89.96110397 54.76843933 89.04328644 55.3984375 88.09765625 C56.02980621 87.14233505 56.66117493 86.18701385 57.31167603 85.20274353 C59.32855761 82.15317313 61.35168977 79.10780799 63.375 76.0625 C64.72957868 74.01654877 66.08374993 71.97032772 67.4375 69.92382812 C73.84636904 60.24007355 73.84636904 60.24007355 76.54223633 56.20770264 C77.44584098 54.83924325 78.33375552 53.46010838 79.19604492 52.06524658 C80.06674027 50.66821002 81.02471379 49.32613662 82 48 C85.015625 47.4140625 85.015625 47.4140625 88.25 47.625 C89.86648438 47.70621094 89.86648438 47.70621094 91.515625 47.7890625 C92.33546875 47.85867188 93.1553125 47.92828125 94 48 C92.20759969 52.14753096 89.46488208 55.55182267 86.75 59.125 C86.22204834 59.82439697 85.69409668 60.52379395 85.15014648 61.24438477 C81.16361487 66.50865834 77.12106354 71.72866053 73.0625 76.9375 C72.48508057 77.6790332 71.90766113 78.42056641 71.31274414 79.18457031 C68.92152296 82.25420628 66.53009186 85.32361386 64.12988281 88.38623047 C62.30964909 90.71113515 60.49787097 93.04241148 58.6875 95.375 C57.85134155 96.43642212 57.85134155 96.43642212 56.99829102 97.51928711 C56.23150024 98.51134155 56.23150024 98.51134155 55.44921875 99.5234375 C54.99893311 100.10013184 54.54864746 100.67682617 54.0847168 101.27099609 C52.89709702 103.16402406 52.42473623 104.81743564 52 107 C55.9537735 107.44082802 55.9537735 107.44082802 58.04296875 105.19921875 C59.10451172 103.95591797 59.10451172 103.95591797 60.1875 102.6875 C60.98027344 101.76839844 61.77304687 100.84929687 62.58984375 99.90234375 C64.83220454 97.20206164 67.04601942 94.48163707 69.25 91.75 C73.34822522 86.67737158 77.73109151 81.94092006 82.19775391 77.19677734 C85.48112163 73.6906131 88.61295791 70.12115988 91.625 66.375 C92.69234375 65.07755859 92.69234375 65.07755859 93.78125 63.75390625 C94.94596318 62.30826753 96.10538825 60.85705226 97.20703125 59.36279297 C104.32617194 49.71172879 104.32617194 49.71172879 108.95361328 48.47998047 C113.36149776 47.98470093 117.61272579 48.36055922 122 49 C123.6736797 62.77827225 123.6736797 62.77827225 120.0078125 67.64453125 C118.14718774 69.09797581 116.22858706 70.4791019 114.26953125 71.796875 C110.64493889 74.23925265 107.6449126 76.98606674 104.5 80 C99.76714907 84.4441352 94.87822946 88.59188567 89.8125 92.65625 C86.02909889 95.80908426 82.45745063 99.16615015 78.86450195 102.53222656 C73.77330903 107.2741213 68.4507234 111.67437582 63 116 C63.66 117.32 64.32 118.64 65 120 C70.66624179 116.49890751 75.89448035 112.56061883 81.0625 108.375 C86.8968436 103.65035017 92.82006616 99.07781033 98.84423828 94.59814453 C104.84132822 90.1359105 110.77176541 85.58964794 116.68115234 81.01196289 C117.36258301 80.48723389 118.04401367 79.96250488 118.74609375 79.421875 C119.35122803 78.95362305 119.9563623 78.48537109 120.57983398 78.00292969 C122 77 122 77 123 77 C124.36029139 87.16457955 124.36029139 87.16457955 121.40634155 91.15029907 C119.02718908 93.07523245 116.59613552 94.68048378 113.98046875 96.26953125 C113.05212723 96.87963547 112.12378571 97.48973969 111.16731262 98.11833191 C108.19797098 100.05672403 105.19518686 101.93429323 102.1875 103.8125 C100.20650047 105.09186516 98.22795281 106.37503533 96.25195312 107.66210938 C91.74099894 110.58796017 87.20575896 113.47159453 82.6524353 116.33096313 C78.08978693 119.20199578 73.54571576 122.10225895 69 125 C69.81404297 126.57587891 69.81404297 126.57587891 70.64453125 128.18359375 C80 146.46769888 80 146.46769888 80 154 C81.02879272 153.77449463 81.02879272 153.77449463 82.07836914 153.54443359 C95.62063467 150.58573203 109.17684435 147.70196874 122.77804565 145.02618408 C124.12527807 144.76051668 125.47206952 144.49260242 126.81838989 144.22235107 C128.71743548 143.84202777 130.61845962 143.47162553 132.51953125 143.1015625 C133.60339111 142.88838379 134.68725098 142.67520508 135.80395508 142.45556641 C144.78025256 141.17607889 144.78025256 141.17607889 148.21484375 143.49609375 C148.78332031 144.13675781 149.35179687 144.77742187 149.9375 145.4375 C150.52402344 146.07558594 151.11054688 146.71367187 151.71484375 147.37109375 C153 149 153 149 153 150 C140.006516 152.29206045 126.98037117 154.13592869 113.89111328 155.78979492 C110.71184717 156.19233064 107.53365576 156.602712 104.35546875 157.01367188 C102.31516339 157.27390226 100.27480084 157.53368474 98.234375 157.79296875 C96.8234256 157.97571602 96.8234256 157.97571602 95.38397217 158.16215515 C90.88991291 158.72461778 86.54066275 159.14512462 82 159 C82 160.65 82 162.3 82 164 C89.22266674 163.59409128 96.4451355 163.1847873 103.66748047 162.77319336 C106.12121285 162.63375104 108.57498849 162.4950678 111.02880859 162.35717773 C114.56880326 162.15811591 118.10863007 161.95626717 121.6484375 161.75390625 C122.73426117 161.6934462 123.82008484 161.63298615 124.93881226 161.57069397 C130.57474725 161.24571699 136.18383358 160.82990902 141.79774475 160.23268127 C159.43348814 158.36936082 159.43348814 158.36936082 165.16015625 162.0078125 C167.35917501 164.23122608 169.24596499 166.4151063 171 169 C168.85925562 173.61578312 166.32281654 177.20857223 162 180 C158.05458419 180.76463416 154.33404274 180.40838149 150.3515625 180.03515625 C149.21731842 179.95959 148.08307434 179.88402374 146.91445923 179.8061676 C144.50305376 179.64453522 142.09258838 179.46831396 139.68322754 179.27862549 C134.86906705 178.9144482 130.05220353 178.67100503 125.23065186 178.42807007 C119.27721334 178.12563568 113.32638004 177.77765975 107.375 177.4375 C104.89193904 177.2973141 102.40886615 177.15733931 99.92578125 177.01757812 C93.950382 176.68080363 87.97513199 176.34148196 82 176 C82 177.65 82 179.3 82 181 C82.83015625 181.02578125 83.6603125 181.0515625 84.515625 181.078125 C96.06640127 181.60975069 107.38623177 183.25288271 118.81640625 184.953125 C123.46460927 185.64249042 128.11390445 186.28200332 132.77734375 186.859375 C133.82913818 186.98973145 134.88093262 187.12008789 135.96459961 187.25439453 C137.93997072 187.49557633 139.91602827 187.73122186 141.89282227 187.96044922 C142.77381592 188.0688916 143.65480957 188.17733398 144.5625 188.2890625 C145.32691406 188.37881348 146.09132813 188.46856445 146.87890625 188.56103516 C149.17759772 189.03675422 150.95441341 189.86530245 153 191 C150.94487362 193.81264736 148.87957343 196.02234961 146 198 C143.57414246 198.18711853 143.57414246 198.18711853 140.93041992 197.83959961 C139.95946381 197.71648407 138.98850769 197.59336853 137.98812866 197.46652222 C133.28096874 196.73161588 128.60114393 195.92014885 123.92578125 195.00390625 C122.91710495 194.81030014 121.90842865 194.61669403 120.8691864 194.41722107 C118.75532081 194.01040976 116.64194559 193.60104266 114.52905273 193.18920898 C111.31149277 192.56230375 108.09244133 191.94357992 104.87304688 191.32617188 C102.8071997 190.92755967 100.74144132 190.52848692 98.67578125 190.12890625 C97.24737663 189.85379967 97.24737663 189.85379967 95.79011536 189.57313538 C90.47904856 188.53536993 85.2374424 187.36240261 80 186 C79.95875 187.03125 79.9175 188.0625 79.875 189.125 C78.73234843 198.41525404 73.61404925 207.00845481 69 215 C69.48700378 215.32049316 69.97400757 215.64098633 70.47576904 215.97119141 C75.60343067 219.34576424 80.73076099 222.72084002 85.85791016 226.09619141 C87.76440294 227.35119991 89.67097658 228.60608561 91.57763672 229.86083984 C121.65442868 249.65442868 121.65442868 249.65442868 123 251 C123.07244053 253.01964199 123.08377188 255.04167124 123.0625 257.0625 C123.05347656 258.16722656 123.04445313 259.27195312 123.03515625 260.41015625 C123.02355469 261.26480469 123.01195312 262.11945313 123 263 C116.51907445 258.99552567 110.62954037 254.3760228 104.71801758 249.59448242 C99.97516803 245.76306176 95.1519587 242.06548298 90.25390625 238.43359375 C87.7000416 236.53464953 85.17357557 234.60220828 82.65234375 232.66015625 C81.89356934 232.07613037 81.13479492 231.49210449 80.35302734 230.89038086 C78.85826335 229.73831963 77.36502565 228.58427457 75.87353516 227.42797852 C72.35581111 224.71998075 68.88421527 222.17394436 65 220 C64.01 221.32 63.02 222.64 62 224 C62.53496094 224.21527344 63.06992187 224.43054688 63.62109375 224.65234375 C66.86937539 226.4925033 69.38418973 228.99843045 72.0625 231.5625 C76.09937297 235.36351073 80.16752927 239.03275103 84.5 242.5 C89.8994058 246.83528933 94.94050366 251.49451461 100 256.21484375 C102.36007542 258.41527566 104.75159287 260.57081457 107.1875 262.6875 C107.78949219 263.22761719 108.39148438 263.76773437 109.01171875 264.32421875 C111.06601322 266.10640257 111.06601322 266.10640257 113.70703125 267.89453125 C118.16172865 271.25268775 120.71470165 273.23713798 121.6328125 278.91015625 C121.72759948 282.63493332 121.43872978 286.30004553 121 290 C108.21180056 291.51638729 108.21180056 291.51638729 103.31640625 288.16015625 C101.00402138 285.55099472 98.99354121 282.85946162 97 280 C95.59795965 278.23826015 94.18095983 276.48833207 92.75 274.75 C92.01265625 273.83734375 91.2753125 272.9246875 90.515625 271.984375 C87.08745315 267.91741336 83.44746317 264.06844449 79.80224609 260.19677734 C75.75132803 255.87097978 71.98112516 251.38190872 68.27734375 246.75390625 C64.05828186 241.65195319 59.51692481 236.83775311 55 232 C54.01 232.33 53.02 232.66 52 233 C53.60120796 238.24782998 56.94145507 242.03619383 60.3125 246.25 C61.5853026 247.86275493 62.85742203 249.47604922 64.12890625 251.08984375 C64.7748877 251.90694824 65.42086914 252.72405273 66.08642578 253.56591797 C69.01142379 257.28653932 71.88245492 261.04752829 74.75 264.8125 C75.81497351 266.20843302 76.88007528 267.60426821 77.9453125 269 C78.45481445 269.66773438 78.96431641 270.33546875 79.48925781 271.0234375 C82.64001473 275.14569477 85.80903122 279.25390928 88.9765625 283.36328125 C89.64429688 284.23339844 90.31203125 285.10351562 91 286 C91.58523438 286.73605469 92.17046875 287.47210937 92.7734375 288.23046875 C94 290 94 290 94 292 C89.67886727 293.06914624 86.29061728 293.29941497 82 292 C78.33787467 287.82649681 75.92046593 283.15866093 73.29931641 278.28759766 C71.19503745 274.58276981 68.69655044 271.18790516 66.1875 267.75 C61.55192388 261.28755093 57.10063613 254.72013784 52.75 248.0625 C52.17660889 247.19141602 51.60321777 246.32033203 51.01245117 245.42285156 C50.48756104 244.61428711 49.9626709 243.80572266 49.421875 242.97265625 C48.95362305 242.25343994 48.48537109 241.53422363 48.00292969 240.79321289 C47 239 47 239 47 237 C46.07960938 237.53109375 45.15921875 238.0621875 44.2109375 238.609375 C35.61897853 243.44528009 27.6158025 246.64922761 18 249 C19.63902443 261.06379747 22.13552017 272.95085236 24.5625 284.875 C25.18214425 287.92518495 25.80087142 290.97554523 26.41722107 294.02639771 C26.79808259 295.91114171 27.18083557 297.79550486 27.56581116 299.67941284 C28.05891782 302.11702152 28.5363418 304.5566326 29 307 C29.13324173 307.69124466 29.26648346 308.38248932 29.40376282 309.09468079 C30.1983465 313.70787265 30.1983465 313.70787265 28.34765625 316.43359375 C27.59355469 317.09488281 26.83945312 317.75617188 26.0625 318.4375 C25.31097656 319.11683594 24.55945313 319.79617188 23.78515625 320.49609375 C23.19605469 320.99238281 22.60695313 321.48867188 22 322 C19.93435505 318.5219208 19.51473656 315.36992085 19.0703125 311.375 C18.99511383 310.72357025 18.91991516 310.0721405 18.84243774 309.40097046 C18.68099321 307.99820236 18.52280572 306.59505631 18.36755371 305.19158936 C17.9559191 301.47227279 17.52120448 297.75567667 17.0859375 294.0390625 C16.9979187 293.28404449 16.9098999 292.52902649 16.81921387 291.75112915 C15.79847878 283.10737146 14.53278589 274.5023556 13.21923828 265.8984375 C12.41926234 260.53626239 11.78246356 255.42287256 12 250 C10.35 250 8.7 250 7 250 C7.08564209 251.19262451 7.17128418 252.38524902 7.25952148 253.61401367 C7.58446449 258.14850448 7.90607417 262.68322718 8.22680664 267.21801758 C8.36460563 269.160137 8.50324313 271.10219716 8.64282227 273.04418945 C9.45249385 284.31820853 10.1765526 295.58762536 10.66905212 306.88041687 C10.87770384 311.64861716 11.14835807 316.40524713 11.5030365 321.16497803 C11.79144702 326.09548821 11.81290261 329.76483086 8.9921875 334.05078125 C6.77228745 336.28807863 4.58306802 338.20107763 2 340 C0.91481889 339.08552154 -0.16804738 338.16829593 -1.25 337.25 C-1.85328125 336.73953125 -2.4565625 336.2290625 -3.078125 335.703125 C-3.71234375 335.14109375 -4.3465625 334.5790625 -5 334 C-5.69339981 333.43697678 -6.38679962 332.87395355 -7.10121155 332.29386902 C-9.62773572 329.24165142 -9.43705634 327.51459455 -9.30249023 323.5949707 C-9.26606415 322.34745026 -9.22963806 321.09992981 -9.19210815 319.81460571 C-9.12871246 318.55578583 -9.06531677 317.29696594 -9 316 C-8.94586945 314.88241302 -8.89173889 313.76482605 -8.83596802 312.6133728 C-8.64365477 309.232677 -8.40867294 305.85748028 -8.16015625 302.48046875 C-8.07374374 301.25644852 -7.98733124 300.03242828 -7.89830017 298.77131653 C-7.71649141 296.2091145 -7.53235061 293.64707694 -7.34594727 291.08520508 C-7.06196965 287.18020705 -6.78525661 283.27474568 -6.50976562 279.36914062 C-6.3311503 276.86455326 -6.152128 274.35999489 -5.97265625 271.85546875 C-5.89032242 270.69903366 -5.80798859 269.54259857 -5.72315979 268.35112 C-5.27490753 262.21447349 -4.72598861 256.11016872 -4 250 C-5.98 250 -7.96 250 -10 250 C-10.02578125 250.97453125 -10.0515625 251.9490625 -10.078125 252.953125 C-10.56367342 266.27033539 -12.51376887 279.29574356 -14.48583984 292.46142578 C-15.43370904 298.98489022 -16.24642412 305.52626247 -17.04833984 312.0690918 C-17.16000488 312.95636963 -17.27166992 313.84364746 -17.38671875 314.7578125 C-17.48170654 315.5327002 -17.57669434 316.30758789 -17.67456055 317.10595703 C-18 319 -18 319 -19 321 C-21 321 -21 321 -22.54296875 319.85546875 C-25.06901973 317.29341704 -26.92611612 315.30031159 -27.13624573 311.60215759 C-27.0314238 310.73691971 -26.92660187 309.87168182 -26.81860352 308.98022461 C-26.7010672 308.00906708 -26.58353088 307.03790955 -26.46243286 306.037323 C-25.70050593 301.0328815 -24.74792846 296.08384017 -23.71484375 291.12890625 C-23.49429825 290.04415512 -23.27375275 288.95940399 -23.04652405 287.84178162 C-22.34910117 284.41418469 -21.64398488 280.98823961 -20.9375 277.5625 C-20.22817951 274.11162817 -19.52062826 270.66042962 -18.81776428 267.20823669 C-18.38211712 265.06946077 -17.94267688 262.93145312 -17.49900818 260.79432678 C-17.30202835 259.82909592 -17.10504852 258.86386505 -16.90209961 257.86938477 C-16.64015053 256.60010887 -16.64015053 256.60010887 -16.37290955 255.30519104 C-15.89353771 252.73108205 -15.89353771 252.73108205 -16 249 C-17.52367187 248.56300781 -17.52367187 248.56300781 -19.078125 248.1171875 C-20.46892315 247.70370697 -21.85953826 247.28961041 -23.25 246.875 C-23.91257812 246.68679688 -24.57515625 246.49859375 -25.2578125 246.3046875 C-31.88180159 244.30499268 -37.88187602 241.19828605 -44 238 C-44.34776993 238.52902924 -44.69553986 239.05805847 -45.05384827 239.6031189 C-48.70266639 245.15308286 -52.35356045 250.70167708 -56.00561523 256.24951172 C-57.36486269 258.31492251 -58.72359607 260.38067171 -60.08178711 262.44677734 C-62.04402886 265.43157549 -64.00817038 268.41511601 -65.97265625 271.3984375 C-66.57086685 272.30927094 -67.16907745 273.22010437 -67.78541565 274.15853882 C-69.51289157 276.77967638 -71.25419358 279.39104335 -73 282 C-73.61975204 282.94026031 -74.23950409 283.88052063 -74.8780365 284.84927368 C-75.48998367 285.75752899 -76.10193085 286.6657843 -76.73242188 287.6015625 C-77.28031372 288.42269531 -77.82820557 289.24382812 -78.3927002 290.08984375 C-80 292 -80 292 -83.30859375 292.9765625 C-84.34113281 292.86054687 -85.37367188 292.74453125 -86.4375 292.625 C-87.48808594 292.53476562 -88.53867187 292.44453125 -89.62109375 292.3515625 C-90.40613281 292.23554687 -91.19117188 292.11953125 -92 292 C-88.11357328 286.00132788 -84.00144541 280.28704601 -79.5625 274.6875 C-73.66855408 267.18698106 -67.91676904 259.59081902 -62.21875 251.94067383 C-58.34001166 246.74586145 -54.38767377 241.64941117 -50.22265625 236.6796875 C-48.80383099 235.07676195 -48.80383099 235.07676195 -49 233 C-50.32 232.67 -51.64 232.34 -53 232 C-53.76183594 232.89460937 -54.52367187 233.78921875 -55.30859375 234.7109375 C-60.79628755 241.14195417 -66.32272291 247.52378171 -72 253.7890625 C-76.49594892 258.75919353 -80.86657086 263.83433995 -85.20507812 268.94189453 C-86.75917172 270.76073416 -88.3305181 272.56366814 -89.90234375 274.3671875 C-91.93054109 276.70611146 -93.84099427 279.0889066 -95.69140625 281.5703125 C-101.78200038 289.42066341 -101.78200038 289.42066341 -105.94042969 290.50683594 C-110.35557075 291.00568685 -114.60441302 290.64065235 -119 290 C-120.82252453 277.49545667 -120.82252453 277.49545667 -116.71484375 271.87109375 C-114.19723572 269.43201506 -111.46042869 267.29053214 -108.64160156 265.21142578 C-106.20936401 263.41654733 -103.89437715 261.48509488 -101.5625 259.5625 C-100.22445312 258.48548828 -100.22445312 258.48548828 -98.859375 257.38671875 C-94.41661746 253.67835146 -90.21625026 249.71843802 -85.984375 245.7734375 C-82.39601051 242.42861705 -78.7230364 239.19393938 -75 236 C-74.44038574 235.51934082 -73.88077148 235.03868164 -73.30419922 234.54345703 C-69.20662702 231.02448938 -65.10457539 227.51079552 -61 224 C-61.66 222.68 -62.32 221.36 -63 220 C-72.16799861 226.81979188 -81.25702849 233.72736076 -90.25830078 240.76586914 C-96.01440805 245.25757517 -101.83154966 249.66096212 -107.69921875 254.00585938 C-110.65704514 256.20390583 -113.5352028 258.43445217 -116.328125 260.83984375 C-119 263 -119 263 -121 263 C-121.56843054 258.86878222 -121.74896425 255.11689124 -121 251 C-118.47382319 247.68645623 -115.28351459 245.83331137 -111.7265625 243.73046875 C-110.77365326 243.12036453 -109.82074402 242.51026031 -108.83895874 241.88166809 C-105.79130204 239.94266146 -102.7108489 238.06499391 -99.625 236.1875 C-97.58735021 234.90826016 -95.55216105 233.62509197 -93.51953125 232.33789062 C-89.75261528 229.95563197 -85.97068518 227.60131296 -82.17431641 225.26635742 C-76.97641409 222.0388038 -71.974139 218.56049049 -67 215 C-68.52662973 211.13019019 -70.21465167 207.38315824 -72 203.625 C-74.77823786 197.62807194 -77 192.68202104 -77 186 C-91.92583094 188.82493514 -106.82372242 191.75098322 -121.6875 194.88671875 C-139.64719546 198.67056091 -139.64719546 198.67056091 -143 198 C-145.59284004 195.88242596 -147.81653619 193.53230122 -150 191 C-147.27624846 188.27624846 -145.38105734 188.49052826 -141.5703125 188.0703125 C-140.91609818 187.99511383 -140.26188385 187.91991516 -139.58784485 187.84243774 C-138.17322555 187.68047913 -136.75816595 187.52233103 -135.34274292 187.36755371 C-131.59499015 186.9576634 -127.85029822 186.52161142 -124.10546875 186.0859375 C-123.34406082 185.9979187 -122.58265289 185.9098999 -121.798172 185.81921387 C-113.16656905 184.80842559 -104.57617876 183.54039816 -95.98681641 182.21923828 C-90.24894514 181.36076214 -84.80224947 180.80307517 -79 181 C-79 179.35 -79 177.7 -79 176 C-79.85475922 176.0501123 -80.70951843 176.10022461 -81.59017944 176.15185547 C-89.68077908 176.62566774 -97.77153618 177.09667592 -105.86247826 177.56460571 C-110.02120248 177.80521778 -114.17985995 178.04687958 -118.33837891 178.29101562 C-122.35827056 178.52697321 -126.37831892 178.76007507 -130.39848709 178.99127197 C-131.92537872 179.07957147 -133.45221315 179.16886649 -134.97898483 179.25921631 C-158.06708183 180.62359517 -158.06708183 180.62359517 -161.9453125 178.03125 C-162.66460937 177.1959375 -163.38390625 176.360625 -164.125 175.5 C-164.87007812 174.6646875 -165.61515625 173.829375 -166.3828125 172.96875 C-166.91648438 172.3190625 -167.45015625 171.669375 -168 171 C-165.68742616 166.18302592 -163.77720991 162.68704648 -159 160 C-156.11119073 159.72227979 -153.51216912 159.62961223 -150.6328125 159.7109375 C-149.8032756 159.72323395 -148.97373871 159.7355304 -148.11906433 159.74819946 C-138.80555617 159.93443612 -129.51026634 160.52016501 -120.21948242 161.171875 C-117.3050242 161.37552237 -114.38995569 161.56734679 -111.47460938 161.7578125 C-100.59124022 162.48831403 -89.80424149 163.48664854 -79 165 C-79 163.02 -79 161.04 -79 159 C-80.0725 159.03609375 -81.145 159.0721875 -82.25 159.109375 C-87.92049378 159.10440959 -93.41290286 158.14316281 -99 157.25 C-111.18816647 155.36447659 -123.39468283 153.77819153 -135.63867188 152.30761719 C-136.93224609 152.15067383 -138.22582031 151.99373047 -139.55859375 151.83203125 C-140.70642334 151.69514893 -141.85425293 151.5582666 -143.03686523 151.41723633 C-145.4299528 151.08026783 -147.67730004 150.65140676 -150 150 C-148.38982481 146.04775181 -146.47733439 143.50055507 -143 141 C-139.0883345 140.89211194 -135.42395328 141.82184835 -131.625 142.6875 C-130.47990967 142.92428467 -129.33481934 143.16106934 -128.1550293 143.4050293 C-125.57225722 143.94153573 -122.993783 144.48839263 -120.41650391 145.04980469 C-115.46781563 146.12280343 -110.50595945 147.12840438 -105.54296875 148.1328125 C-96.02323165 150.06272382 -86.51014659 152.02341597 -77 154 C-76.94294891 153.3944075 -76.88589783 152.788815 -76.82711792 152.16487122 C-76.74607819 151.36385483 -76.66503845 150.56283844 -76.58154297 149.73754883 C-76.50386688 148.94633133 -76.4261908 148.15511383 -76.34616089 147.33992004 C-75.82024377 143.78491415 -74.59472828 140.97428041 -73.125 137.6875 C-72.61195313 136.51574219 -72.09890625 135.34398437 -71.5703125 134.13671875 C-70 131 -70 131 -68.2421875 128.76953125 C-67.62730469 127.89361328 -67.62730469 127.89361328 -67 127 C-68.17720556 123.46838333 -68.97244936 123.07257894 -72.00976562 121.0925293 C-73.28744812 120.2510157 -73.28744812 120.2510157 -74.59094238 119.39250183 C-75.5199939 118.79246841 -76.44904541 118.192435 -77.40625 117.57421875 C-78.36011597 116.94900833 -79.31398193 116.32379791 -80.29675293 115.67964172 C-83.35954789 113.67455932 -86.42957483 111.68087384 -89.5 109.6875 C-91.53955677 108.35557428 -93.57862535 107.02290066 -95.6171875 105.68945312 C-99.39343819 103.22013715 -103.17288491 100.75585623 -106.95507812 98.2956543 C-107.79418228 97.74562744 -108.63328644 97.19560059 -109.49781799 96.62890625 C-111.19639353 95.52314324 -112.90462702 94.43210342 -114.62120056 93.35449219 C-115.4389949 92.83298584 -116.25678925 92.31147949 -117.09936523 91.77416992 C-118.19534279 91.08710213 -118.19534279 91.08710213 -119.3134613 90.38615417 C-121 89 -121 89 -121.87890625 85.7890625 C-121.77449219 84.74492187 -121.67007813 83.70078125 -121.5625 82.625 C-121.48128906 81.56539063 -121.40007812 80.50578125 -121.31640625 79.4140625 C-121.15978516 78.21910156 -121.15978516 78.21910156 -121 77 C-116.85247187 78.79239909 -113.44817034 81.53510613 -109.875 84.25 C-109.17850342 84.77577637 -108.48200684 85.30155273 -107.7644043 85.84326172 C-100.88932515 91.04978061 -94.08611097 96.34852977 -87.2890625 101.65625 C-82.44690488 105.43654992 -77.57589698 109.17846323 -72.69921875 112.9140625 C-70.86408694 114.33223961 -69.06109721 115.79279112 -67.2890625 117.2890625 C-65.16303253 119.28328232 -65.16303253 119.28328232 -62.6875 118.75 C-61.8521875 118.37875 -61.8521875 118.37875 -61 118 C-62.54572776 114.18371168 -64.88771245 112.02974257 -67.9375 109.3125 C-68.67057373 108.65677002 -68.67057373 108.65677002 -69.41845703 107.98779297 C-72.66485692 105.10777101 -75.99608503 102.3489711 -79.375 99.625 C-83.578144 96.23614031 -87.56203177 92.68760734 -91.5 89 C-95.4590394 85.29295781 -99.46603869 81.72420286 -103.6875 78.3125 C-104.5640625 77.58804688 -105.440625 76.86359375 -106.34375 76.1171875 C-108.99226963 73.95406112 -108.99226963 73.95406112 -111.90625 72.0078125 C-118.55217744 67.06070359 -118.55217744 67.06070359 -119.42529297 63.04296875 C-119.85190909 58.31933889 -119.51939665 53.70342524 -119 49 C-106.21180056 47.48361271 -106.21180056 47.48361271 -101.31640625 50.83984375 C-99.0040361 53.44898868 -96.99431435 56.14109851 -95 59 C-93.57676579 60.78231909 -92.1389913 62.5531166 -90.6875 64.3125 C-89.94886719 65.22644531 -89.21023437 66.14039063 -88.44921875 67.08203125 C-85.24319082 70.90165304 -81.85010216 74.5246441 -78.44213867 78.16333008 C-74.55147381 82.34095544 -70.94482887 86.69329871 -67.37890625 91.15234375 C-64.01857331 95.17481126 -60.43506525 98.97870891 -56.80859375 102.76171875 C-53 106.78851318 -53 106.78851318 -53 109 C-51.35 108.34 -49.7 107.68 -48 107 C-53.38096398 99.4997178 -58.92860631 92.14790992 -64.57568359 84.84667969 C-67.78593228 80.68447176 -70.97111959 76.50298844 -74.16040039 72.32470703 C-76.74408152 68.94194531 -79.33336499 65.56412593 -81.9453125 62.203125 C-82.6269043 61.32430664 -82.6269043 61.32430664 -83.32226562 60.42773438 C-84.53829089 58.86166886 -85.75731262 57.29793133 -86.9765625 55.734375 C-88.82944998 53.230473 -90.45252513 50.70068863 -92 48 C-87.81022856 47.30868771 -84.17863873 47.17084351 -80 48 C-77.94702148 49.97021484 -77.94702148 49.97021484 -76.18359375 52.6484375 C-75.50989746 53.6494751 -74.83620117 54.6505127 -74.14208984 55.68188477 C-73.4352002 56.77686279 -72.72831055 57.87184082 -72 59 C-71.24497908 60.13405037 -70.4879434 61.26676167 -69.72900391 62.39819336 C-67.31098047 66.01745231 -64.93555786 69.66366632 -62.5625 73.3125 C-61.76001483 74.54117843 -60.95728108 75.76969453 -60.15429688 76.99804688 C-54.72874723 85.30582947 -49.35580319 93.64712555 -44 102 C-43.47680176 101.73783691 -42.95360352 101.47567383 -42.41455078 101.20556641 C-39.9906108 99.9997296 -37.55803207 98.81237793 -35.125 97.625 C-34.30257812 97.2125 -33.48015625 96.8 -32.6328125 96.375 C-26.84181902 93.56998753 -21.36143501 91.95480883 -15 91 C-15.1858667 90.08114014 -15.3717334 89.16228027 -15.56323242 88.21557617 C-17.57695333 78.24953999 -19.57068859 68.27962164 -21.54388428 58.30548096 C-21.83844579 56.81659134 -22.13338161 55.32777569 -22.42877197 53.83905029 C-23.3014265 49.43728777 -24.15578235 45.03232627 -25 40.625 C-25.21938232 39.51664795 -25.43876465 38.4082959 -25.66479492 37.26635742 C-25.8579126 36.2426001 -26.05103027 35.21884277 -26.25 34.1640625 C-26.42015625 33.28186035 -26.5903125 32.3996582 -26.765625 31.49072266 C-27.0999035 27.93831718 -26.81471466 25.0949955 -24.66015625 22.19921875 C-23.86931641 21.45091797 -23.86931641 21.45091797 -23.0625 20.6875 C-22.53785156 20.17574219 -22.01320313 19.66398437 -21.47265625 19.13671875 C-20 18 -20 18 -18 18 C-17.86424561 19.16756836 -17.72849121 20.33513672 -17.58862305 21.53808594 C-17.07191454 25.97434942 -16.55081977 30.41008952 -16.02856445 34.84570312 C-15.80540898 36.74595902 -15.58335934 38.64634519 -15.36254883 40.546875 C-14.09513904 51.44833137 -12.76114542 62.31778667 -10.93009949 73.14154053 C-10.02033097 78.79560543 -9.85615902 84.27804409 -10 90 C-8.02 90 -6.04 90 -4 90 C-4.08040527 89.09685059 -4.16081055 88.19370117 -4.24365234 87.26318359 C-5.67507318 71.10099258 -7.07219722 54.9375254 -8.1875 38.75 C-8.27112793 37.58259277 -8.35475586 36.41518555 -8.44091797 35.21240234 C-8.66717411 31.80882871 -8.84812602 28.40768743 -9 25 C-9.03191437 24.34842926 -9.06382874 23.69685852 -9.09671021 23.02554321 C-9.18695219 20.99753385 -9.24598173 18.97075002 -9.296875 16.94140625 C-9.33522461 15.72912354 -9.37357422 14.51684082 -9.41308594 13.26782227 C-8.80904864 8.48943032 -6.50375956 6.3389825 -2.84765625 3.41796875 C-2.23792969 2.95003906 -1.62820313 2.48210937 -1 2 C-0.67 1.34 -0.34 0.68 0 0 Z " fill="#FCD119" transform="translate(345,254)"/>
<path d="M0 0 C0.33 0 0.66 0 1 0 C1.33 10.23 1.66 20.46 2 31 C11.24 34.3 20.48 37.6 30 41 C30 41.66 30 42.32 30 43 C25.71006667 44.50499009 21.41777842 46.00314637 17.125 47.5 C15.29001953 48.14388672 15.29001953 48.14388672 13.41796875 48.80078125 C12.25136719 49.20683594 11.08476563 49.61289062 9.8828125 50.03125 C8.80402832 50.40830078 7.72524414 50.78535156 6.61376953 51.17382812 C4 52 4 52 2 52 C2.00523682 52.7206665 2.01047363 53.44133301 2.01586914 54.18383789 C2.03676875 57.47671625 2.04970131 60.76958059 2.0625 64.0625 C2.07087891 65.19623047 2.07925781 66.32996094 2.08789062 67.49804688 C2.10424847 73.10878867 2.01812097 78.47649331 1 84 C-3.53610109 79.81282977 -6.94894601 74.80243021 -10.578125 69.84375 C-13.19138197 66.30661431 -15.75389956 62.9964004 -19 60 C-21.81335217 60.76782967 -24.62581814 61.53859207 -27.4375 62.3125 C-28.26193604 62.5388916 -29.08637207 62.7652832 -29.93579102 62.99853516 C-34.15481113 64.16846998 -38.31358072 65.39726226 -42.4375 66.875 C-46 68 -46 68 -49 67 C-48.27554688 66.02160156 -47.55109375 65.04320312 -46.8046875 64.03515625 C-44.31106385 60.66064465 -41.83847442 57.27126038 -39.37255859 53.87646484 C-38.21814403 52.29823106 -37.04305316 50.7351507 -35.86328125 49.17578125 C-35.31027344 48.41652344 -34.75726562 47.65726562 -34.1875 46.875 C-33.46626953 45.91207031 -33.46626953 45.91207031 -32.73046875 44.9296875 C-31.74991188 42.94675914 -31.74991188 42.94675914 -32.75292969 40.67895508 C-34.02490571 37.94649758 -35.47412815 35.65932274 -37.22265625 33.20703125 C-37.84333984 32.32982422 -38.46402344 31.45261719 -39.10351562 30.54882812 C-39.74998047 29.64583984 -40.39644531 28.74285156 -41.0625 27.8125 C-42.34612983 26.00727628 -43.62873429 24.20132288 -44.91015625 22.39453125 C-45.47871338 21.59893799 -46.04727051 20.80334473 -46.63305664 19.98364258 C-48 18 -48 18 -49 16 C-42.21973791 17.43254768 -35.59034598 19.18979498 -28.9375 21.125 C-27.97650391 21.40214844 -27.01550781 21.67929687 -26.02539062 21.96484375 C-23.68287721 22.64079289 -21.34111223 23.31921699 -19 24 C-14.19930718 19.5749339 -10.55126865 14.47536438 -6.75 9.1875 C-5.49769039 7.44973029 -4.24264078 5.71393064 -2.984375 3.98046875 C-2.16018066 2.83421021 -2.16018066 2.83421021 -1.31933594 1.66479492 C-0.66626465 0.84072144 -0.66626465 0.84072144 0 0 Z " fill="#FCD119" transform="translate(681,382)"/>
<path d="M0 0 C1 2 1 2 0.0625 5.125 C-0.4634375 6.548125 -0.4634375 6.548125 -1 8 C1.39161932 10.42086773 3.78903442 12.83591651 6.1875 15.25 C6.86103516 15.93191406 7.53457031 16.61382812 8.22851562 17.31640625 C11.06392559 20.16564748 13.82903325 22.86501448 16.98828125 25.359375 C17.65214844 25.90078125 18.31601563 26.4421875 19 27 C19 27.66 19 28.32 19 29 C8.95415947 29.15723924 -0.9811352 28.67192387 -11 28 C-11.35304199 28.78238037 -11.70608398 29.56476074 -12.06982422 30.37084961 C-13.38049949 33.26739454 -14.6968335 36.16127788 -16.01708984 39.0534668 C-16.5877407 40.30665765 -17.15611236 41.56088893 -17.72216797 42.81616211 C-18.53536155 44.61843264 -19.35739814 46.41670497 -20.1796875 48.21484375 C-20.91807861 49.84087524 -20.91807861 49.84087524 -21.67138672 51.49975586 C-23 54 -23 54 -25 55 C-25.84516531 51.79466559 -26.67397973 48.58531662 -27.5 45.375 C-27.85771484 44.01955078 -27.85771484 44.01955078 -28.22265625 42.63671875 C-28.44824219 41.75371094 -28.67382812 40.87070313 -28.90625 39.9609375 C-29.11572266 39.15446777 -29.32519531 38.34799805 -29.54101562 37.51708984 C-30.08814435 34.51661264 -30.33070549 32.04433327 -30 29 C-28.29101562 26.59399414 -28.29101562 26.59399414 -25.90625 24.28515625 C-25.04 23.43373047 -24.17375 22.58230469 -23.28125 21.70507812 C-21.90453125 20.39700195 -21.90453125 20.39700195 -20.5 19.0625 C-19.613125 18.19431641 -18.72625 17.32613281 -17.8125 16.43164062 C-13.18878107 11.93371405 -8.47244217 7.57240299 -3.57617188 3.37280273 C-2.34054414 2.29660467 -1.15865831 1.15865831 0 0 Z " fill="#FCD21B" transform="translate(178,118)"/>
<path d="M0 0 C2.3872196 2.97866168 4.07089415 5.97365821 5.69921875 9.421875 C6.18583984 10.44667969 6.67246094 11.47148438 7.17382812 12.52734375 C7.67333984 13.59082031 8.17285156 14.65429688 8.6875 15.75 C9.19861328 16.82894531 9.70972656 17.90789063 10.23632812 19.01953125 C11.49489953 21.67782224 12.74929268 24.33800229 14 27 C24.71460306 27.14036598 35.3120232 26.73259082 46 26 C43.64331662 29.05226834 41.32365965 31.7655974 38.375 34.25 C37.69179687 34.84039063 37.00859375 35.43078125 36.3046875 36.0390625 C34.63218507 37.46210694 32.94835729 38.87187473 31.2578125 40.2734375 C30.34773438 41.04945313 29.43765625 41.82546875 28.5 42.625 C27.6440625 43.33914063 26.788125 44.05328125 25.90625 44.7890625 C23.74570067 46.86781979 23.74570067 46.86781979 23.71875 49.7734375 C23.8115625 50.50820313 23.904375 51.24296875 24 52 C22.34289331 50.5845547 20.68681153 49.16789641 19.03515625 47.74609375 C17.77869251 46.66809127 16.51674907 45.59639399 15.24609375 44.53515625 C13.97074185 43.45262213 12.71447328 42.34740729 11.47265625 41.2265625 C10.08173476 39.97407396 8.68039738 38.73225609 7.24560547 37.53027344 C-4.57419807 27.57267742 -4.57419807 27.57267742 -5.55859375 21.625 C-5.03889701 18.22037253 -4.15231227 15.24310566 -3 12 C-2.44277508 9.73293423 -1.90033349 7.46216734 -1.375 5.1875 C-0.92271873 3.4567405 -0.46673458 1.72691796 0 0 Z " fill="#FCD21D" transform="translate(153,674)"/>
</svg>
