<svg width="1793" height="1058" viewBox="0 0 1793 1058" fill="none" xmlns="http://www.w3.org/2000/svg">
<path d="M843.988 24H838.377V5.81818H844.237C846.001 5.81818 847.51 6.18217 848.765 6.91016C850.019 7.63222 850.981 8.67093 851.65 10.0263C852.319 11.3757 852.653 12.9915 852.653 14.8736C852.653 16.7675 852.316 18.3981 851.641 19.7653C850.966 21.1265 849.984 22.1741 848.694 22.908C847.403 23.636 845.835 24 843.988 24ZM840.579 22.0469H843.846C845.35 22.0469 846.595 21.7569 847.584 21.1768C848.572 20.5968 849.309 19.7712 849.794 18.6999C850.28 17.6287 850.522 16.3532 850.522 14.8736C850.522 13.4058 850.283 12.1422 849.803 11.0827C849.324 10.0174 848.608 9.20064 847.655 8.63246C846.702 8.05836 845.515 7.77131 844.095 7.77131H840.579V22.0469ZM868.278 5.81818H870.48V17.8565C870.48 19.0994 870.187 20.2092 869.601 21.1857C869.021 22.1564 868.201 22.9228 867.142 23.4851C866.082 24.0414 864.839 24.3196 863.413 24.3196C861.987 24.3196 860.744 24.0414 859.684 23.4851C858.625 22.9228 857.802 22.1564 857.216 21.1857C856.636 20.2092 856.346 19.0994 856.346 17.8565V5.81818H858.548V17.679C858.548 18.5668 858.743 19.3569 859.134 20.0494C859.525 20.7359 860.081 21.2775 860.803 21.674C861.531 22.0646 862.401 22.2599 863.413 22.2599C864.425 22.2599 865.295 22.0646 866.023 21.674C866.751 21.2775 867.307 20.7359 867.692 20.0494C868.083 19.3569 868.278 18.5668 868.278 17.679V5.81818ZM874.877 24V5.81818H881.02C882.44 5.81818 883.606 6.06084 884.518 6.54616C885.429 7.02557 886.104 7.68549 886.542 8.52592C886.98 9.36636 887.199 10.3222 887.199 11.3935C887.199 12.4647 886.98 13.4147 886.542 14.2433C886.104 15.0719 885.432 15.7229 884.527 16.1964C883.621 16.6639 882.464 16.8977 881.055 16.8977H876.084V14.9091H880.984C881.955 14.9091 882.736 14.767 883.328 14.483C883.926 14.1989 884.358 13.7964 884.624 13.2756C884.897 12.7488 885.033 12.1214 885.033 11.3935C885.033 10.6655 884.897 10.0292 884.624 9.48473C884.352 8.94022 883.917 8.52 883.319 8.22408C882.722 7.92223 881.931 7.77131 880.949 7.77131H877.078V24H874.877ZM883.435 15.8324L887.909 24H885.352L880.949 15.8324H883.435ZM891.613 24H889.305L895.981 5.81818H898.254L904.93 24H902.622L897.189 8.6946H897.047L891.613 24ZM892.466 16.8977H901.77V18.8509H892.466V16.8977ZM907.762 24V5.81818H914.119C915.385 5.81818 916.43 6.03717 917.253 6.47514C918.075 6.9072 918.688 7.49017 919.09 8.22408C919.493 8.95206 919.694 9.75994 919.694 10.6477C919.694 11.429 919.555 12.0741 919.277 12.5831C919.005 13.0921 918.644 13.4946 918.194 13.7905C917.75 14.0864 917.267 14.3054 916.747 14.4474V14.625C917.303 14.6605 917.862 14.8558 918.425 15.2109C918.987 15.5661 919.457 16.075 919.836 16.7379C920.215 17.4008 920.404 18.2116 920.404 19.1705C920.404 20.0819 920.197 20.9016 919.783 21.6296C919.369 22.3576 918.715 22.9347 917.821 23.3608C916.927 23.7869 915.764 24 914.332 24H907.762ZM909.964 22.0469H914.332C915.77 22.0469 916.791 21.7687 917.395 21.2124C918.004 20.6501 918.309 19.9695 918.309 19.1705C918.309 18.5549 918.152 17.9867 917.839 17.4659C917.525 16.9392 917.078 16.5189 916.498 16.2053C915.918 15.8857 915.231 15.7259 914.438 15.7259H909.964V22.0469ZM909.964 13.8082H914.048C914.711 13.8082 915.308 13.678 915.841 13.4176C916.38 13.1572 916.806 12.7902 917.119 12.3168C917.439 11.8433 917.599 11.2869 917.599 10.6477C917.599 9.84872 917.321 9.17105 916.764 8.6147C916.208 8.05244 915.326 7.77131 914.119 7.77131H909.964V13.8082ZM924.022 24V5.81818H926.224V22.0469H934.675V24H924.022ZM938.085 24V5.81818H949.058V7.77131H940.286V13.9148H948.489V15.8679H940.286V22.0469H949.2V24H938.085ZM777.05 35.8182L782.448 51.1236H782.661L788.059 35.8182H790.367L783.691 54H781.418L774.742 35.8182H777.05ZM793.199 54V35.8182H804.172V37.7713H795.401V43.9148H803.604V45.8679H795.401V52.0469H804.314V54H793.199ZM808.141 54V35.8182H814.284C815.705 35.8182 816.871 36.0608 817.782 36.5462C818.693 37.0256 819.368 37.6855 819.806 38.5259C820.244 39.3664 820.463 40.3222 820.463 41.3935C820.463 42.4647 820.244 43.4147 819.806 44.2433C819.368 45.0719 818.696 45.7229 817.791 46.1964C816.885 46.6639 815.728 46.8977 814.32 46.8977H809.348V44.9091H814.249C815.219 44.9091 816.001 44.767 816.592 44.483C817.19 44.1989 817.622 43.7964 817.889 43.2756C818.161 42.7488 818.297 42.1214 818.297 41.3935C818.297 40.6655 818.161 40.0292 817.889 39.4847C817.616 38.9402 817.181 38.52 816.583 38.2241C815.986 37.9222 815.196 37.7713 814.213 37.7713H810.342V54H808.141ZM816.699 45.8324L821.173 54H818.617L814.213 45.8324H816.699ZM834.075 40.3636C833.969 39.464 833.536 38.7656 832.779 38.2685C832.021 37.7713 831.092 37.5227 829.991 37.5227C829.186 37.5227 828.482 37.6529 827.878 37.9134C827.281 38.1738 826.813 38.5318 826.476 38.9876C826.144 39.4433 825.978 39.9612 825.978 40.5412C825.978 41.0265 826.094 41.4438 826.325 41.793C826.561 42.1362 826.863 42.4233 827.23 42.6541C827.597 42.879 827.982 43.0655 828.384 43.2134C828.787 43.3555 829.157 43.4709 829.494 43.5597L831.341 44.0568C831.814 44.1811 832.341 44.3527 832.921 44.5717C833.507 44.7907 834.066 45.0896 834.599 45.4684C835.137 45.8413 835.581 46.3207 835.931 46.9066C836.28 47.4925 836.454 48.2116 836.454 49.0639C836.454 50.0464 836.197 50.9342 835.682 51.7273C835.173 52.5204 834.427 53.1507 833.445 53.6183C832.468 54.0858 831.282 54.3196 829.885 54.3196C828.583 54.3196 827.455 54.1095 826.502 53.6893C825.555 53.2691 824.81 52.6831 824.265 51.9315C823.726 51.1798 823.422 50.3068 823.351 49.3125H825.623C825.683 49.9991 825.913 50.5672 826.316 51.017C826.724 51.4609 827.239 51.7924 827.861 52.0114C828.488 52.2244 829.163 52.331 829.885 52.331C830.725 52.331 831.48 52.1948 832.149 51.9226C832.817 51.6444 833.347 51.2597 833.738 50.7685C834.128 50.2713 834.324 49.6913 834.324 49.0284C834.324 48.4247 834.155 47.9335 833.818 47.5547C833.48 47.1759 833.036 46.8681 832.486 46.6314C831.936 46.3946 831.341 46.1875 830.701 46.0099L828.464 45.3707C827.044 44.9624 825.919 44.3794 825.091 43.6218C824.262 42.8642 823.848 41.8729 823.848 40.6477C823.848 39.6297 824.123 38.742 824.673 37.9844C825.23 37.2209 825.976 36.629 826.911 36.2088C827.852 35.7827 828.902 35.5696 830.062 35.5696C831.234 35.5696 832.276 35.7797 833.187 36.1999C834.099 36.6142 834.821 37.1824 835.353 37.9045C835.892 38.6265 836.176 39.4463 836.206 40.3636H834.075ZM842.276 35.8182V54H840.074V35.8182H842.276ZM862.031 44.9091C862.031 46.8267 861.685 48.4839 860.993 49.8807C860.3 51.2775 859.35 52.3546 858.143 53.1122C856.936 53.8698 855.556 54.2486 854.006 54.2486C852.455 54.2486 851.076 53.8698 849.869 53.1122C848.661 52.3546 847.711 51.2775 847.019 49.8807C846.326 48.4839 845.98 46.8267 845.98 44.9091C845.98 42.9915 846.326 41.3343 847.019 39.9375C847.711 38.5407 848.661 37.4635 849.869 36.706C851.076 35.9484 852.455 35.5696 854.006 35.5696C855.556 35.5696 856.936 35.9484 858.143 36.706C859.35 37.4635 860.3 38.5407 860.993 39.9375C861.685 41.3343 862.031 42.9915 862.031 44.9091ZM859.901 44.9091C859.901 43.3348 859.637 42.006 859.111 40.9229C858.59 39.8398 857.882 39.0201 856.989 38.4638C856.101 37.9074 855.107 37.6293 854.006 37.6293C852.905 37.6293 851.908 37.9074 851.014 38.4638C850.126 39.0201 849.419 39.8398 848.892 40.9229C848.371 42.006 848.111 43.3348 848.111 44.9091C848.111 46.4834 848.371 47.8121 848.892 48.8952C849.419 49.9783 850.126 50.7981 851.014 51.3544C851.908 51.9107 852.905 52.1889 854.006 52.1889C855.107 52.1889 856.101 51.9107 856.989 51.3544C857.882 50.7981 858.59 49.9783 859.111 48.8952C859.637 47.8121 859.901 46.4834 859.901 44.9091ZM880.151 35.8182V54H878.02L868.113 39.7244H867.935V54H865.733V35.8182H867.864L877.807 50.1293H877.985V35.8182H880.151ZM884.557 54V35.8182H895.53V37.7713H886.758V43.9148H894.962V45.8679H886.758V52.0469H895.672V54H884.557ZM905.109 54H899.498V35.8182H905.357C907.121 35.8182 908.63 36.1822 909.885 36.9102C911.14 37.6322 912.102 38.6709 912.77 40.0263C913.439 41.3757 913.774 42.9915 913.774 44.8736C913.774 46.7675 913.436 48.3981 912.762 49.7653C912.087 51.1265 911.104 52.1741 909.814 52.908C908.524 53.636 906.955 54 905.109 54ZM901.7 52.0469H904.967C906.47 52.0469 907.716 51.7569 908.704 51.1768C909.693 50.5968 910.43 49.7712 910.915 48.6999C911.4 47.6287 911.643 46.3532 911.643 44.8736C911.643 43.4058 911.403 42.1422 910.924 41.0827C910.444 40.0174 909.728 39.2006 908.775 38.6325C907.823 38.0584 906.636 37.7713 905.215 37.7713H901.7V52.0469ZM939.129 41.5H936.927C936.797 40.8667 936.569 40.3104 936.243 39.831C935.924 39.3516 935.533 38.9491 935.072 38.6236C934.616 38.2921 934.11 38.0436 933.553 37.8778C932.997 37.7121 932.417 37.6293 931.813 37.6293C930.713 37.6293 929.715 37.9074 928.822 38.4638C927.934 39.0201 927.227 39.8398 926.7 40.9229C926.179 42.006 925.919 43.3348 925.919 44.9091C925.919 46.4834 926.179 47.8121 926.7 48.8952C927.227 49.9783 927.934 50.7981 928.822 51.3544C929.715 51.9107 930.713 52.1889 931.813 52.1889C932.417 52.1889 932.997 52.1061 933.553 51.9403C934.11 51.7746 934.616 51.529 935.072 51.2035C935.533 50.872 935.924 50.4666 936.243 49.9872C936.569 49.5019 936.797 48.9455 936.927 48.3182H939.129C938.963 49.2474 938.661 50.079 938.223 50.8129C937.785 51.5468 937.241 52.1712 936.59 52.6861C935.939 53.1951 935.208 53.5827 934.397 53.8491C933.592 54.1154 932.731 54.2486 931.813 54.2486C930.263 54.2486 928.884 53.8698 927.676 53.1122C926.469 52.3546 925.519 51.2775 924.827 49.8807C924.134 48.4839 923.788 46.8267 923.788 44.9091C923.788 42.9915 924.134 41.3343 924.827 39.9375C925.519 38.5407 926.469 37.4635 927.676 36.706C928.884 35.9484 930.263 35.5696 931.813 35.5696C932.731 35.5696 933.592 35.7028 934.397 35.9691C935.208 36.2354 935.939 36.6261 936.59 37.141C937.241 37.65 937.785 38.2714 938.223 39.0053C938.661 39.7333 938.963 40.5649 939.129 41.5ZM958.027 44.9091C958.027 46.8267 957.681 48.4839 956.989 49.8807C956.296 51.2775 955.346 52.3546 954.139 53.1122C952.932 53.8698 951.553 54.2486 950.002 54.2486C948.451 54.2486 947.072 53.8698 945.865 53.1122C944.657 52.3546 943.708 51.2775 943.015 49.8807C942.323 48.4839 941.976 46.8267 941.976 44.9091C941.976 42.9915 942.323 41.3343 943.015 39.9375C943.708 38.5407 944.657 37.4635 945.865 36.706C947.072 35.9484 948.451 35.5696 950.002 35.5696C951.553 35.5696 952.932 35.9484 954.139 36.706C955.346 37.4635 956.296 38.5407 956.989 39.9375C957.681 41.3343 958.027 42.9915 958.027 44.9091ZM955.897 44.9091C955.897 43.3348 955.633 42.006 955.107 40.9229C954.586 39.8398 953.879 39.0201 952.985 38.4638C952.097 37.9074 951.103 37.6293 950.002 37.6293C948.901 37.6293 947.904 37.9074 947.01 38.4638C946.122 39.0201 945.415 39.8398 944.888 40.9229C944.367 42.006 944.107 43.3348 944.107 44.9091C944.107 46.4834 944.367 47.8121 944.888 48.8952C945.415 49.9783 946.122 50.7981 947.01 51.3544C947.904 51.9107 948.901 52.1889 950.002 52.1889C951.103 52.1889 952.097 51.9107 952.985 51.3544C953.879 50.7981 954.586 49.9783 955.107 48.8952C955.633 47.8121 955.897 46.4834 955.897 44.9091ZM961.73 54V35.8182H967.873C969.299 35.8182 970.465 36.0756 971.371 36.5906C972.282 37.0996 972.957 37.7891 973.395 38.6591C973.833 39.5291 974.052 40.4998 974.052 41.571C974.052 42.6423 973.833 43.6159 973.395 44.4918C972.963 45.3678 972.294 46.0662 971.389 46.587C970.483 47.1019 969.323 47.3594 967.909 47.3594H963.505V45.4062H967.837C968.814 45.4062 969.598 45.2376 970.19 44.9002C970.782 44.5629 971.211 44.1071 971.477 43.533C971.75 42.953 971.886 42.299 971.886 41.571C971.886 40.843 971.75 40.192 971.477 39.6179C971.211 39.0438 970.779 38.594 970.181 38.2685C969.583 37.937 968.79 37.7713 967.802 37.7713H963.931V54H961.73ZM979.8 35.8182V54H977.599V35.8182H979.8ZM984.215 54V35.8182H995.188V37.7713H986.417V43.9148H994.62V45.8679H986.417V52.0469H995.33V54H984.215ZM1009.1 40.3636C1008.99 39.464 1008.56 38.7656 1007.8 38.2685C1007.05 37.7713 1006.12 37.5227 1005.02 37.5227C1004.21 37.5227 1003.51 37.6529 1002.9 37.9134C1002.3 38.1738 1001.84 38.5318 1001.5 38.9876C1001.17 39.4433 1001 39.9612 1001 40.5412C1001 41.0265 1001.12 41.4438 1001.35 41.793C1001.59 42.1362 1001.89 42.4233 1002.25 42.6541C1002.62 42.879 1003.01 43.0655 1003.41 43.2134C1003.81 43.3555 1004.18 43.4709 1004.52 43.5597L1006.37 44.0568C1006.84 44.1811 1007.37 44.3527 1007.95 44.5717C1008.53 44.7907 1009.09 45.0896 1009.62 45.4684C1010.16 45.8413 1010.61 46.3207 1010.95 46.9066C1011.3 47.4925 1011.48 48.2116 1011.48 49.0639C1011.48 50.0464 1011.22 50.9342 1010.71 51.7273C1010.2 52.5204 1009.45 53.1507 1008.47 53.6183C1007.49 54.0858 1006.31 54.3196 1004.91 54.3196C1003.61 54.3196 1002.48 54.1095 1001.53 53.6893C1000.58 53.2691 999.834 52.6831 999.289 51.9315C998.751 51.1798 998.446 50.3068 998.375 49.3125H1000.65C1000.71 49.9991 1000.94 50.5672 1001.34 51.017C1001.75 51.4609 1002.26 51.7924 1002.88 52.0114C1003.51 52.2244 1004.19 52.331 1004.91 52.331C1005.75 52.331 1006.5 52.1948 1007.17 51.9226C1007.84 51.6444 1008.37 51.2597 1008.76 50.7685C1009.15 50.2713 1009.35 49.6913 1009.35 49.0284C1009.35 48.4247 1009.18 47.9335 1008.84 47.5547C1008.5 47.1759 1008.06 46.8681 1007.51 46.6314C1006.96 46.3946 1006.37 46.1875 1005.73 46.0099L1003.49 45.3707C1002.07 44.9624 1000.94 44.3794 1000.12 43.6218C999.287 42.8642 998.872 41.8729 998.872 40.6477C998.872 39.6297 999.147 38.742 999.698 37.9844C1000.25 37.2209 1001 36.629 1001.94 36.2088C1002.88 35.7827 1003.93 35.5696 1005.09 35.5696C1006.26 35.5696 1007.3 35.7797 1008.21 36.1999C1009.12 36.6142 1009.85 37.1824 1010.38 37.9045C1010.92 38.6265 1011.2 39.4463 1011.23 40.3636H1009.1Z" fill="black"/>
<path d="M193.579 264V245.818H204.481V247.771H195.78V253.915H203.664V255.868H195.78V264H193.579ZM206.727 264H204.419L211.095 245.818H213.367L220.044 264H217.735L212.302 248.695H212.16L206.727 264ZM207.579 256.898H216.883V258.851H207.579V256.898ZM234.807 245.818H237.009V257.857C237.009 259.099 236.716 260.209 236.13 261.186C235.55 262.156 234.73 262.923 233.671 263.485C232.612 264.041 231.369 264.32 229.942 264.32C228.516 264.32 227.273 264.041 226.214 263.485C225.154 262.923 224.331 262.156 223.746 261.186C223.166 260.209 222.876 259.099 222.876 257.857V245.818H225.077V257.679C225.077 258.567 225.273 259.357 225.663 260.049C226.054 260.736 226.61 261.277 227.332 261.674C228.06 262.065 228.93 262.26 229.942 262.26C230.954 262.26 231.824 262.065 232.552 261.674C233.28 261.277 233.837 260.736 234.221 260.049C234.612 259.357 234.807 258.567 234.807 257.679V245.818ZM241.406 264V245.818H243.608V262.047H252.059V264H241.406ZM252.057 247.771V245.818H265.693V247.771H259.976V264H257.774V247.771H252.057ZM275.128 247.771V245.818H288.765V247.771H283.047V264H280.846V247.771H275.128ZM306.747 254.909C306.747 256.827 306.4 258.484 305.708 259.881C305.016 261.277 304.066 262.355 302.858 263.112C301.651 263.87 300.272 264.249 298.721 264.249C297.17 264.249 295.791 263.87 294.584 263.112C293.377 262.355 292.427 261.277 291.734 259.881C291.042 258.484 290.696 256.827 290.696 254.909C290.696 252.991 291.042 251.334 291.734 249.938C292.427 248.541 293.377 247.464 294.584 246.706C295.791 245.948 297.17 245.57 298.721 245.57C300.272 245.57 301.651 245.948 302.858 246.706C304.066 247.464 305.016 248.541 305.708 249.938C306.4 251.334 306.747 252.991 306.747 254.909ZM304.616 254.909C304.616 253.335 304.353 252.006 303.826 250.923C303.305 249.84 302.598 249.02 301.704 248.464C300.816 247.907 299.822 247.629 298.721 247.629C297.62 247.629 296.623 247.907 295.729 248.464C294.842 249.02 294.134 249.84 293.608 250.923C293.087 252.006 292.826 253.335 292.826 254.909C292.826 256.483 293.087 257.812 293.608 258.895C294.134 259.978 294.842 260.798 295.729 261.354C296.623 261.911 297.62 262.189 298.721 262.189C299.822 262.189 300.816 261.911 301.704 261.354C302.598 260.798 303.305 259.978 303.826 258.895C304.353 257.812 304.616 256.483 304.616 254.909ZM310.449 264V245.818H312.65V262.047H321.102V264H310.449ZM324.511 264V245.818H335.484V247.771H326.713V253.915H334.916V255.868H326.713V262.047H335.626V264H324.511ZM339.453 264V245.818H345.596C347.017 245.818 348.183 246.061 349.094 246.546C350.005 247.026 350.68 247.685 351.118 248.526C351.556 249.366 351.775 250.322 351.775 251.393C351.775 252.465 351.556 253.415 351.118 254.243C350.68 255.072 350.008 255.723 349.103 256.196C348.197 256.664 347.04 256.898 345.632 256.898H340.66V254.909H345.561C346.531 254.909 347.313 254.767 347.904 254.483C348.502 254.199 348.934 253.796 349.201 253.276C349.473 252.749 349.609 252.121 349.609 251.393C349.609 250.665 349.473 250.029 349.201 249.485C348.928 248.94 348.493 248.52 347.896 248.224C347.298 247.922 346.508 247.771 345.525 247.771H341.654V264H339.453ZM348.011 255.832L352.485 264H349.929L345.525 255.832H348.011ZM356.19 264H353.881L360.558 245.818H362.83L369.506 264H367.198L361.765 248.695H361.623L356.19 264ZM357.042 256.898H366.346V258.851H357.042V256.898ZM386.756 245.818V264H384.625L374.718 249.724H374.54V264H372.338V245.818H374.469L384.412 260.129H384.59V245.818H386.756ZM390.167 247.771V245.818H403.804V247.771H398.086V264H395.885V247.771H390.167ZM350.117 294H344.506V275.818H350.366C352.129 275.818 353.639 276.182 354.893 276.91C356.148 277.632 357.11 278.671 357.779 280.026C358.448 281.376 358.782 282.991 358.782 284.874C358.782 286.768 358.445 288.398 357.77 289.765C357.095 291.127 356.113 292.174 354.822 292.908C353.532 293.636 351.964 294 350.117 294ZM346.708 292.047H349.975C351.478 292.047 352.724 291.757 353.713 291.177C354.701 290.597 355.438 289.771 355.923 288.7C356.409 287.629 356.651 286.353 356.651 284.874C356.651 283.406 356.412 282.142 355.932 281.083C355.453 280.017 354.737 279.201 353.784 278.632C352.831 278.058 351.644 277.771 350.224 277.771H346.708V292.047ZM362.366 294H360.058L366.734 275.818H369.007L375.683 294H373.375L367.942 278.695H367.8L362.366 294ZM363.219 286.898H372.523V288.851H363.219V286.898ZM375.397 277.771V275.818H389.033V277.771H383.316V294H381.114V277.771H375.397ZM391.053 294H388.745L395.421 275.818H397.694L404.37 294H402.061L396.628 278.695H396.486L391.053 294ZM391.905 286.898H401.209V288.851H391.905V286.898Z" fill="black"/>
<path d="M17.7672 644.909C17.7672 646.827 17.421 648.484 16.7285 649.881C16.036 651.277 15.0861 652.355 13.8787 653.112C12.6713 653.87 11.2923 654.249 9.74166 654.249C8.19099 654.249 6.81197 653.87 5.60458 653.112C4.39719 652.355 3.44727 651.277 2.75479 649.881C2.06232 648.484 1.71609 646.827 1.71609 644.909C1.71609 642.991 2.06232 641.334 2.75479 639.938C3.44727 638.541 4.39719 637.464 5.60458 636.706C6.81197 635.948 8.19099 635.57 9.74166 635.57C11.2923 635.57 12.6713 635.948 13.8787 636.706C15.0861 637.464 16.036 638.541 16.7285 639.938C17.421 641.334 17.7672 642.991 17.7672 644.909ZM15.6365 644.909C15.6365 643.335 15.3732 642.006 14.8464 640.923C14.3256 639.84 13.6183 639.02 12.7246 638.464C11.8368 637.907 10.8425 637.629 9.74166 637.629C8.6408 637.629 7.64353 637.907 6.74982 638.464C5.86204 639.02 5.15477 639.84 4.62802 640.923C4.10719 642.006 3.84677 643.335 3.84677 644.909C3.84677 646.483 4.10719 647.812 4.62802 648.895C5.15477 649.978 5.86204 650.798 6.74982 651.354C7.64353 651.911 8.6408 652.189 9.74166 652.189C10.8425 652.189 11.8368 651.911 12.7246 651.354C13.6183 650.798 14.3256 649.978 14.8464 648.895C15.3732 647.812 15.6365 646.483 15.6365 644.909ZM35.8869 635.818V654H33.7562L23.8485 639.724H23.671V654H21.4693V635.818H23.6L33.5431 650.129H33.7207V635.818H35.8869ZM40.2925 654V635.818H51.2655V637.771H42.4942V643.915H50.6974V645.868H42.4942V652.047H51.4076V654H40.2925ZM72.2084 640.364C72.1018 639.464 71.6698 638.766 70.9122 638.268C70.1546 637.771 69.2254 637.523 68.1246 637.523C67.3196 637.523 66.6153 637.653 66.0116 637.913C65.4139 638.174 64.9463 638.532 64.6089 638.988C64.2775 639.443 64.1118 639.961 64.1118 640.541C64.1118 641.027 64.2272 641.444 64.458 641.793C64.6948 642.136 64.9966 642.423 65.3635 642.654C65.7305 642.879 66.1152 643.065 66.5177 643.213C66.9201 643.355 67.29 643.471 67.6274 643.56L69.474 644.057C69.9475 644.181 70.4742 644.353 71.0542 644.572C71.6402 644.791 72.1995 645.09 72.7322 645.468C73.2707 645.841 73.7146 646.321 74.0638 646.907C74.413 647.493 74.5876 648.212 74.5876 649.064C74.5876 650.046 74.3302 650.934 73.8153 651.727C73.3063 652.52 72.5605 653.151 71.578 653.618C70.6015 654.086 69.4148 654.32 68.018 654.32C66.7159 654.32 65.5885 654.109 64.6356 653.689C63.6886 653.269 62.9429 652.683 62.3983 651.931C61.8598 651.18 61.555 650.307 61.4839 649.312H63.7567C63.8158 649.999 64.0467 650.567 64.4491 651.017C64.8575 651.461 65.3724 651.792 65.9939 652.011C66.6212 652.224 67.296 652.331 68.018 652.331C68.8585 652.331 69.6131 652.195 70.2819 651.923C70.9507 651.644 71.4804 651.26 71.871 650.768C72.2616 650.271 72.4569 649.691 72.4569 649.028C72.4569 648.425 72.2883 647.933 71.9509 647.555C71.6135 647.176 71.1697 646.868 70.6192 646.631C70.0688 646.395 69.474 646.187 68.8348 646.01L66.5976 645.371C65.1771 644.962 64.0526 644.379 63.224 643.622C62.3954 642.864 61.9811 641.873 61.9811 640.648C61.9811 639.63 62.2563 638.742 62.8067 637.984C63.3631 637.221 64.1088 636.629 65.0439 636.209C65.985 635.783 67.0355 635.57 68.1956 635.57C69.3675 635.57 70.4091 635.78 71.3206 636.2C72.232 636.614 72.9541 637.182 73.4868 637.904C74.0254 638.627 74.3095 639.446 74.339 640.364H72.2084ZM77.2132 637.771V635.818H90.8496V637.771H85.1323V654H82.9306V637.771H77.2132ZM108.832 644.909C108.832 646.827 108.485 648.484 107.793 649.881C107.1 651.277 106.151 652.355 104.943 653.112C103.736 653.87 102.357 654.249 100.806 654.249C99.2554 654.249 97.8764 653.87 96.669 653.112C95.4616 652.355 94.5117 651.277 93.8192 649.881C93.1268 648.484 92.7805 646.827 92.7805 644.909C92.7805 642.991 93.1268 641.334 93.8192 639.938C94.5117 638.541 95.4616 637.464 96.669 636.706C97.8764 635.948 99.2554 635.57 100.806 635.57C102.357 635.57 103.736 635.948 104.943 636.706C106.151 637.464 107.1 638.541 107.793 639.938C108.485 641.334 108.832 642.991 108.832 644.909ZM106.701 644.909C106.701 643.335 106.438 642.006 105.911 640.923C105.39 639.84 104.683 639.02 103.789 638.464C102.901 637.907 101.907 637.629 100.806 637.629C99.7053 637.629 98.708 637.907 97.8143 638.464C96.9265 639.02 96.2192 639.84 95.6925 640.923C95.1716 642.006 94.9112 643.335 94.9112 644.909C94.9112 646.483 95.1716 647.812 95.6925 648.895C96.2192 649.978 96.9265 650.798 97.8143 651.354C98.708 651.911 99.7053 652.189 100.806 652.189C101.907 652.189 102.901 651.911 103.789 651.354C104.683 650.798 105.39 649.978 105.911 648.895C106.438 647.812 106.701 646.483 106.701 644.909ZM112.534 654V635.818H118.677C120.098 635.818 121.264 636.061 122.175 636.546C123.087 637.026 123.761 637.685 124.199 638.526C124.637 639.366 124.856 640.322 124.856 641.393C124.856 642.465 124.637 643.415 124.199 644.243C123.761 645.072 123.089 645.723 122.184 646.196C121.278 646.664 120.121 646.898 118.713 646.898H113.741V644.909H118.642C119.612 644.909 120.394 644.767 120.985 644.483C121.583 644.199 122.015 643.796 122.282 643.276C122.554 642.749 122.69 642.121 122.69 641.393C122.69 640.665 122.554 640.029 122.282 639.485C122.009 638.94 121.574 638.52 120.977 638.224C120.379 637.922 119.589 637.771 118.606 637.771H114.735V654H112.534ZM121.092 645.832L125.566 654H123.01L118.606 645.832H121.092ZM129.271 654H126.962L133.639 635.818H135.911L142.587 654H140.279L134.846 638.695H134.704L129.271 654ZM130.123 646.898H139.427V648.851H130.123V646.898ZM156.994 641.5C156.799 640.902 156.541 640.367 156.222 639.893C155.908 639.414 155.532 639.005 155.094 638.668C154.662 638.331 154.171 638.073 153.62 637.896C153.07 637.718 152.466 637.629 151.809 637.629C150.732 637.629 149.753 637.907 148.871 638.464C147.989 639.02 147.288 639.84 146.767 640.923C146.246 642.006 145.985 643.335 145.985 644.909C145.985 646.483 146.249 647.812 146.776 648.895C147.302 649.978 148.016 650.798 148.915 651.354C149.815 651.911 150.827 652.189 151.951 652.189C152.993 652.189 153.91 651.967 154.703 651.523C155.502 651.073 156.124 650.44 156.568 649.623C157.018 648.801 157.243 647.833 157.243 646.72L157.917 646.862H152.449V644.909H159.373V646.862C159.373 648.36 159.054 649.662 158.414 650.768C157.781 651.875 156.905 652.733 155.787 653.343C154.674 653.947 153.395 654.249 151.951 654.249C150.342 654.249 148.927 653.87 147.708 653.112C146.494 652.355 145.547 651.277 144.867 649.881C144.192 648.484 143.855 646.827 143.855 644.909C143.855 643.471 144.047 642.178 144.432 641.029C144.822 639.875 145.373 638.893 146.083 638.082C146.793 637.271 147.634 636.65 148.604 636.218C149.575 635.786 150.643 635.57 151.809 635.57C152.768 635.57 153.662 635.715 154.49 636.005C155.325 636.289 156.068 636.694 156.719 637.221C157.376 637.742 157.923 638.366 158.361 639.094C158.799 639.816 159.101 640.618 159.267 641.5H156.994ZM163.144 654V635.818H174.117V637.771H165.346V643.915H173.549V645.868H165.346V652.047H174.259V654H163.144ZM199.747 641.5H197.546C197.416 640.867 197.188 640.31 196.862 639.831C196.543 639.352 196.152 638.949 195.69 638.624C195.235 638.292 194.728 638.044 194.172 637.878C193.616 637.712 193.036 637.629 192.432 637.629C191.331 637.629 190.334 637.907 189.44 638.464C188.552 639.02 187.845 639.84 187.318 640.923C186.798 642.006 186.537 643.335 186.537 644.909C186.537 646.483 186.798 647.812 187.318 648.895C187.845 649.978 188.552 650.798 189.44 651.354C190.334 651.911 191.331 652.189 192.432 652.189C193.036 652.189 193.616 652.106 194.172 651.94C194.728 651.775 195.235 651.529 195.69 651.203C196.152 650.872 196.543 650.467 196.862 649.987C197.188 649.502 197.416 648.946 197.546 648.318H199.747C199.582 649.247 199.28 650.079 198.842 650.813C198.404 651.547 197.859 652.171 197.208 652.686C196.557 653.195 195.826 653.583 195.016 653.849C194.211 654.115 193.349 654.249 192.432 654.249C190.881 654.249 189.502 653.87 188.295 653.112C187.088 652.355 186.138 651.277 185.445 649.881C184.753 648.484 184.407 646.827 184.407 644.909C184.407 642.991 184.753 641.334 185.445 639.938C186.138 638.541 187.088 637.464 188.295 636.706C189.502 635.948 190.881 635.57 192.432 635.57C193.349 635.57 194.211 635.703 195.016 635.969C195.826 636.235 196.557 636.626 197.208 637.141C197.859 637.65 198.404 638.271 198.842 639.005C199.28 639.733 199.582 640.565 199.747 641.5ZM203.305 654V635.818H205.507V652.047H213.959V654H203.305ZM232.001 644.909C232.001 646.827 231.654 648.484 230.962 649.881C230.269 651.277 229.32 652.355 228.112 653.112C226.905 653.87 225.526 654.249 223.975 654.249C222.424 654.249 221.045 653.87 219.838 653.112C218.631 652.355 217.681 651.277 216.988 649.881C216.296 648.484 215.949 646.827 215.949 644.909C215.949 642.991 216.296 641.334 216.988 639.938C217.681 638.541 218.631 637.464 219.838 636.706C221.045 635.948 222.424 635.57 223.975 635.57C225.526 635.57 226.905 635.948 228.112 636.706C229.32 637.464 230.269 638.541 230.962 639.938C231.654 641.334 232.001 642.991 232.001 644.909ZM229.87 644.909C229.87 643.335 229.607 642.006 229.08 640.923C228.559 639.84 227.852 639.02 226.958 638.464C226.07 637.907 225.076 637.629 223.975 637.629C222.874 637.629 221.877 637.907 220.983 638.464C220.095 639.02 219.388 639.84 218.861 640.923C218.341 642.006 218.08 643.335 218.08 644.909C218.08 646.483 218.341 647.812 218.861 648.895C219.388 649.978 220.095 650.798 220.983 651.354C221.877 651.911 222.874 652.189 223.975 652.189C225.076 652.189 226.07 651.911 226.958 651.354C227.852 650.798 228.559 649.978 229.08 648.895C229.607 647.812 229.87 646.483 229.87 644.909ZM247.634 635.818H249.836V647.857C249.836 649.099 249.543 650.209 248.957 651.186C248.377 652.156 247.558 652.923 246.498 653.485C245.439 654.041 244.196 654.32 242.769 654.32C241.343 654.32 240.1 654.041 239.041 653.485C237.981 652.923 237.159 652.156 236.573 651.186C235.993 650.209 235.703 649.099 235.703 647.857V635.818H237.904V647.679C237.904 648.567 238.1 649.357 238.49 650.049C238.881 650.736 239.437 651.277 240.159 651.674C240.887 652.065 241.757 652.26 242.769 652.26C243.782 652.26 244.652 652.065 245.38 651.674C246.108 651.277 246.664 650.736 247.049 650.049C247.439 649.357 247.634 648.567 247.634 647.679V635.818ZM259.844 654H254.233V635.818H260.092C261.856 635.818 263.365 636.182 264.62 636.91C265.875 637.632 266.837 638.671 267.505 640.026C268.174 641.376 268.509 642.991 268.509 644.874C268.509 646.768 268.171 648.398 267.496 649.765C266.822 651.127 265.839 652.174 264.549 652.908C263.259 653.636 261.69 654 259.844 654ZM256.435 652.047H259.702C261.205 652.047 262.451 651.757 263.439 651.177C264.428 650.597 265.165 649.771 265.65 648.7C266.135 647.629 266.378 646.353 266.378 644.874C266.378 643.406 266.138 642.142 265.659 641.083C265.179 640.017 264.463 639.201 263.51 638.632C262.557 638.058 261.371 637.771 259.95 637.771H256.435V652.047ZM82.0783 684H79.7701L86.4462 665.818H88.7189L95.3951 684H93.0868L87.6536 668.695H87.5115L82.0783 684ZM82.9306 676.898H92.2346V678.851H82.9306V676.898ZM98.2271 684V665.818H104.371C105.791 665.818 106.957 666.061 107.868 666.546C108.78 667.026 109.455 667.685 109.893 668.526C110.331 669.366 110.55 670.322 110.55 671.393C110.55 672.465 110.331 673.415 109.893 674.243C109.455 675.072 108.783 675.723 107.877 676.196C106.972 676.664 105.815 676.898 104.406 676.898H99.4345V674.909H104.335C105.306 674.909 106.087 674.767 106.679 674.483C107.277 674.199 107.709 673.796 107.975 673.276C108.247 672.749 108.383 672.121 108.383 671.393C108.383 670.665 108.247 670.029 107.975 669.485C107.703 668.94 107.268 668.52 106.67 668.224C106.072 667.922 105.282 667.771 104.3 667.771H100.429V684H98.2271ZM106.785 675.832L111.26 684H108.703L104.3 675.832H106.785ZM128.849 671.5H126.647C126.517 670.867 126.289 670.31 125.964 669.831C125.644 669.352 125.253 668.949 124.792 668.624C124.336 668.292 123.83 668.044 123.274 667.878C122.717 667.712 122.137 667.629 121.534 667.629C120.433 667.629 119.436 667.907 118.542 668.464C117.654 669.02 116.947 669.84 116.42 670.923C115.899 672.006 115.639 673.335 115.639 674.909C115.639 676.483 115.899 677.812 116.42 678.895C116.947 679.978 117.654 680.798 118.542 681.354C119.436 681.911 120.433 682.189 121.534 682.189C122.137 682.189 122.717 682.106 123.274 681.94C123.83 681.775 124.336 681.529 124.792 681.203C125.253 680.872 125.644 680.467 125.964 679.987C126.289 679.502 126.517 678.946 126.647 678.318H128.849C128.683 679.247 128.381 680.079 127.943 680.813C127.505 681.547 126.961 682.171 126.31 682.686C125.659 683.195 124.928 683.583 124.117 683.849C123.312 684.115 122.451 684.249 121.534 684.249C119.983 684.249 118.604 683.87 117.397 683.112C116.189 682.355 115.239 681.277 114.547 679.881C113.854 678.484 113.508 676.827 113.508 674.909C113.508 672.991 113.854 671.334 114.547 669.938C115.239 668.541 116.189 667.464 117.397 666.706C118.604 665.948 119.983 665.57 121.534 665.57C122.451 665.57 123.312 665.703 124.117 665.969C124.928 666.235 125.659 666.626 126.31 667.141C126.961 667.65 127.505 668.271 127.943 669.005C128.381 669.733 128.683 670.565 128.849 671.5ZM132.407 684V665.818H134.608V673.915H144.303V665.818H146.505V684H144.303V675.868H134.608V684H132.407ZM153.114 665.818V684H150.913V665.818H153.114ZM156.535 667.771V665.818H170.171V667.771H164.454V684H162.252V667.771H156.535ZM173.569 684V665.818H184.542V667.771H175.771V673.915H183.974V675.868H175.771V682.047H184.684V684H173.569ZM203.141 671.5H200.939C200.809 670.867 200.581 670.31 200.256 669.831C199.936 669.352 199.545 668.949 199.084 668.624C198.628 668.292 198.122 668.044 197.566 667.878C197.009 667.712 196.429 667.629 195.826 667.629C194.725 667.629 193.728 667.907 192.834 668.464C191.946 669.02 191.239 669.84 190.712 670.923C190.191 672.006 189.931 673.335 189.931 674.909C189.931 676.483 190.191 677.812 190.712 678.895C191.239 679.978 191.946 680.798 192.834 681.354C193.728 681.911 194.725 682.189 195.826 682.189C196.429 682.189 197.009 682.106 197.566 681.94C198.122 681.775 198.628 681.529 199.084 681.203C199.545 680.872 199.936 680.467 200.256 679.987C200.581 679.502 200.809 678.946 200.939 678.318H203.141C202.975 679.247 202.673 680.079 202.235 680.813C201.797 681.547 201.253 682.171 200.602 682.686C199.951 683.195 199.22 683.583 198.409 683.849C197.604 684.115 196.743 684.249 195.826 684.249C194.275 684.249 192.896 683.87 191.689 683.112C190.481 682.355 189.531 681.277 188.839 679.881C188.146 678.484 187.8 676.827 187.8 674.909C187.8 672.991 188.146 671.334 188.839 669.938C189.531 668.541 190.481 667.464 191.689 666.706C192.896 665.948 194.275 665.57 195.826 665.57C196.743 665.57 197.604 665.703 198.409 665.969C199.22 666.235 199.951 666.626 200.602 667.141C201.253 667.65 201.797 668.271 202.235 669.005C202.673 669.733 202.975 670.565 203.141 671.5ZM205.704 667.771V665.818H219.341V667.771H213.623V684H211.422V667.771H205.704ZM234.671 665.818H236.872V677.857C236.872 679.099 236.579 680.209 235.993 681.186C235.413 682.156 234.594 682.923 233.534 683.485C232.475 684.041 231.232 684.32 229.806 684.32C228.379 684.32 227.136 684.041 226.077 683.485C225.017 682.923 224.195 682.156 223.609 681.186C223.029 680.209 222.739 679.099 222.739 677.857V665.818H224.941V677.679C224.941 678.567 225.136 679.357 225.526 680.049C225.917 680.736 226.473 681.277 227.195 681.674C227.923 682.065 228.794 682.26 229.806 682.26C230.818 682.26 231.688 682.065 232.416 681.674C233.144 681.277 233.7 680.736 234.085 680.049C234.475 679.357 234.671 678.567 234.671 677.679V665.818ZM241.269 684V665.818H247.413C248.833 665.818 249.999 666.061 250.91 666.546C251.822 667.026 252.497 667.685 252.935 668.526C253.373 669.366 253.592 670.322 253.592 671.393C253.592 672.465 253.373 673.415 252.935 674.243C252.497 675.072 251.825 675.723 250.919 676.196C250.014 676.664 248.857 676.898 247.448 676.898H242.476V674.909H247.377C248.348 674.909 249.129 674.767 249.721 674.483C250.319 674.199 250.751 673.796 251.017 673.276C251.289 672.749 251.425 672.121 251.425 671.393C251.425 670.665 251.289 670.029 251.017 669.485C250.745 668.94 250.31 668.52 249.712 668.224C249.114 667.922 248.324 667.771 247.342 667.771H243.471V684H241.269ZM249.827 675.832L254.302 684H251.745L247.342 675.832H249.827ZM257.26 684V665.818H268.233V667.771H259.462V673.915H267.665V675.868H259.462V682.047H268.375V684H257.26Z" fill="black"/>
<path d="M1410.83 257.5H1408.63C1408.5 256.867 1408.27 256.31 1407.95 255.831C1407.63 255.352 1407.24 254.949 1406.78 254.624C1406.32 254.292 1405.81 254.044 1405.26 253.878C1404.7 253.712 1404.12 253.629 1403.52 253.629C1402.42 253.629 1401.42 253.907 1400.53 254.464C1399.64 255.02 1398.93 255.84 1398.4 256.923C1397.88 258.006 1397.62 259.335 1397.62 260.909C1397.62 262.483 1397.88 263.812 1398.4 264.895C1398.93 265.978 1399.64 266.798 1400.53 267.354C1401.42 267.911 1402.42 268.189 1403.52 268.189C1404.12 268.189 1404.7 268.106 1405.26 267.94C1405.81 267.775 1406.32 267.529 1406.78 267.203C1407.24 266.872 1407.63 266.467 1407.95 265.987C1408.27 265.502 1408.5 264.946 1408.63 264.318H1410.83C1410.67 265.247 1410.36 266.079 1409.93 266.813C1409.49 267.547 1408.94 268.171 1408.29 268.686C1407.64 269.195 1406.91 269.583 1406.1 269.849C1405.3 270.115 1404.43 270.249 1403.52 270.249C1401.97 270.249 1400.59 269.87 1399.38 269.112C1398.17 268.355 1397.22 267.277 1396.53 265.881C1395.84 264.484 1395.49 262.827 1395.49 260.909C1395.49 258.991 1395.84 257.334 1396.53 255.938C1397.22 254.541 1398.17 253.464 1399.38 252.706C1400.59 251.948 1401.97 251.57 1403.52 251.57C1404.43 251.57 1405.3 251.703 1406.1 251.969C1406.91 252.235 1407.64 252.626 1408.29 253.141C1408.94 253.65 1409.49 254.271 1409.93 255.005C1410.36 255.733 1410.67 256.565 1410.83 257.5ZM1429.73 260.909C1429.73 262.827 1429.38 264.484 1428.69 265.881C1428 267.277 1427.05 268.355 1425.84 269.112C1424.64 269.87 1423.26 270.249 1421.71 270.249C1420.15 270.249 1418.78 269.87 1417.57 269.112C1416.36 268.355 1415.41 267.277 1414.72 265.881C1414.03 264.484 1413.68 262.827 1413.68 260.909C1413.68 258.991 1414.03 257.334 1414.72 255.938C1415.41 254.541 1416.36 253.464 1417.57 252.706C1418.78 251.948 1420.15 251.57 1421.71 251.57C1423.26 251.57 1424.64 251.948 1425.84 252.706C1427.05 253.464 1428 254.541 1428.69 255.938C1429.38 257.334 1429.73 258.991 1429.73 260.909ZM1427.6 260.909C1427.6 259.335 1427.34 258.006 1426.81 256.923C1426.29 255.84 1425.58 255.02 1424.69 254.464C1423.8 253.907 1422.81 253.629 1421.71 253.629C1420.6 253.629 1419.61 253.907 1418.71 254.464C1417.83 255.02 1417.12 255.84 1416.59 256.923C1416.07 258.006 1415.81 259.335 1415.81 260.909C1415.81 262.483 1416.07 263.812 1416.59 264.895C1417.12 265.978 1417.83 266.798 1418.71 267.354C1419.61 267.911 1420.6 268.189 1421.71 268.189C1422.81 268.189 1423.8 267.911 1424.69 267.354C1425.58 266.798 1426.29 265.978 1426.81 264.895C1427.34 263.812 1427.6 262.483 1427.6 260.909ZM1447.85 251.818V270H1445.72L1435.81 255.724H1435.63V270H1433.43V251.818H1435.56L1445.51 266.129H1445.68V251.818H1447.85ZM1462.2 256.364C1462.09 255.464 1461.66 254.766 1460.9 254.268C1460.15 253.771 1459.22 253.523 1458.12 253.523C1457.31 253.523 1456.61 253.653 1456 253.913C1455.41 254.174 1454.94 254.532 1454.6 254.988C1454.27 255.443 1454.1 255.961 1454.1 256.541C1454.1 257.027 1454.22 257.444 1454.45 257.793C1454.69 258.136 1454.99 258.423 1455.35 258.654C1455.72 258.879 1456.11 259.065 1456.51 259.213C1456.91 259.355 1457.28 259.471 1457.62 259.56L1459.47 260.057C1459.94 260.181 1460.47 260.353 1461.05 260.572C1461.63 260.791 1462.19 261.09 1462.72 261.468C1463.26 261.841 1463.71 262.321 1464.06 262.907C1464.4 263.493 1464.58 264.212 1464.58 265.064C1464.58 266.046 1464.32 266.934 1463.81 267.727C1463.3 268.52 1462.55 269.151 1461.57 269.618C1460.59 270.086 1459.41 270.32 1458.01 270.32C1456.71 270.32 1455.58 270.109 1454.63 269.689C1453.68 269.269 1452.93 268.683 1452.39 267.931C1451.85 267.18 1451.55 266.307 1451.48 265.312H1453.75C1453.81 265.999 1454.04 266.567 1454.44 267.017C1454.85 267.461 1455.36 267.792 1455.99 268.011C1456.61 268.224 1457.29 268.331 1458.01 268.331C1458.85 268.331 1459.6 268.195 1460.27 267.923C1460.94 267.644 1461.47 267.26 1461.86 266.768C1462.25 266.271 1462.45 265.691 1462.45 265.028C1462.45 264.425 1462.28 263.933 1461.94 263.555C1461.6 263.176 1461.16 262.868 1460.61 262.631C1460.06 262.395 1459.47 262.187 1458.83 262.01L1456.59 261.371C1455.17 260.962 1454.04 260.379 1453.22 259.622C1452.39 258.864 1451.97 257.873 1451.97 256.648C1451.97 255.63 1452.25 254.742 1452.8 253.984C1453.35 253.221 1454.1 252.629 1455.04 252.209C1455.98 251.783 1457.03 251.57 1458.19 251.57C1459.36 251.57 1460.4 251.78 1461.31 252.2C1462.22 252.614 1462.95 253.182 1463.48 253.904C1464.02 254.627 1464.3 255.446 1464.33 256.364H1462.2ZM1470.4 251.818V270H1468.2V251.818H1470.4ZM1484.76 256.364C1484.65 255.464 1484.22 254.766 1483.46 254.268C1482.7 253.771 1481.78 253.523 1480.67 253.523C1479.87 253.523 1479.17 253.653 1478.56 253.913C1477.96 254.174 1477.5 254.532 1477.16 254.988C1476.83 255.443 1476.66 255.961 1476.66 256.541C1476.66 257.027 1476.78 257.444 1477.01 257.793C1477.24 258.136 1477.55 258.423 1477.91 258.654C1478.28 258.879 1478.67 259.065 1479.07 259.213C1479.47 259.355 1479.84 259.471 1480.18 259.56L1482.02 260.057C1482.5 260.181 1483.02 260.353 1483.6 260.572C1484.19 260.791 1484.75 261.09 1485.28 261.468C1485.82 261.841 1486.26 262.321 1486.61 262.907C1486.96 263.493 1487.14 264.212 1487.14 265.064C1487.14 266.046 1486.88 266.934 1486.37 267.727C1485.86 268.52 1485.11 269.151 1484.13 269.618C1483.15 270.086 1481.96 270.32 1480.57 270.32C1479.27 270.32 1478.14 270.109 1477.19 269.689C1476.24 269.269 1475.49 268.683 1474.95 267.931C1474.41 267.18 1474.1 266.307 1474.03 265.312H1476.31C1476.37 265.999 1476.6 266.567 1477 267.017C1477.41 267.461 1477.92 267.792 1478.54 268.011C1479.17 268.224 1479.85 268.331 1480.57 268.331C1481.41 268.331 1482.16 268.195 1482.83 267.923C1483.5 267.644 1484.03 267.26 1484.42 266.768C1484.81 266.271 1485.01 265.691 1485.01 265.028C1485.01 264.425 1484.84 263.933 1484.5 263.555C1484.16 263.176 1483.72 262.868 1483.17 262.631C1482.62 262.395 1482.02 262.187 1481.38 262.01L1479.15 261.371C1477.73 260.962 1476.6 260.379 1475.77 259.622C1474.95 258.864 1474.53 257.873 1474.53 256.648C1474.53 255.63 1474.81 254.742 1475.36 253.984C1475.91 253.221 1476.66 252.629 1477.59 252.209C1478.53 251.783 1479.59 251.57 1480.75 251.57C1481.92 251.57 1482.96 251.78 1483.87 252.2C1484.78 252.614 1485.5 253.182 1486.04 253.904C1486.58 254.627 1486.86 255.446 1486.89 256.364H1484.76ZM1489.76 253.771V251.818H1503.4V253.771H1497.68V270H1495.48V253.771H1489.76ZM1506.8 270V251.818H1517.77V253.771H1509V259.915H1517.2V261.868H1509V268.047H1517.91V270H1506.8ZM1536.16 251.818V270H1534.03L1524.12 255.724H1523.94V270H1521.74V251.818H1523.87L1533.81 266.129H1533.99V251.818H1536.16ZM1539.57 253.771V251.818H1553.2V253.771H1547.49V270H1545.29V253.771H1539.57ZM1401.81 300H1396.2V281.818H1402.06C1403.82 281.818 1405.33 282.182 1406.59 282.91C1407.84 283.632 1408.81 284.671 1409.47 286.026C1410.14 287.376 1410.48 288.991 1410.48 290.874C1410.48 292.768 1410.14 294.398 1409.47 295.765C1408.79 297.127 1407.81 298.174 1406.52 298.908C1405.23 299.636 1403.66 300 1401.81 300ZM1398.4 298.047H1401.67C1403.17 298.047 1404.42 297.757 1405.41 297.177C1406.4 296.597 1407.13 295.771 1407.62 294.7C1408.1 293.629 1408.35 292.353 1408.35 290.874C1408.35 289.406 1408.11 288.142 1407.63 287.083C1407.15 286.017 1406.43 285.201 1405.48 284.632C1404.53 284.058 1403.34 283.771 1401.92 283.771H1398.4V298.047ZM1414.06 300H1411.75L1418.43 281.818H1420.7L1427.38 300H1425.07L1419.64 284.695H1419.49L1414.06 300ZM1414.91 292.898H1424.22V294.851H1414.91V292.898ZM1427.09 283.771V281.818H1440.73V283.771H1435.01V300H1432.81V283.771H1427.09ZM1442.75 300H1440.44L1447.12 281.818H1449.39L1456.06 300H1453.76L1448.32 284.695H1448.18L1442.75 300ZM1443.6 292.898H1452.9V294.851H1443.6V292.898ZM1465.93 300V281.818H1472.07C1473.49 281.818 1474.66 282.061 1475.57 282.546C1476.48 283.026 1477.16 283.685 1477.59 284.526C1478.03 285.366 1478.25 286.322 1478.25 287.393C1478.25 288.465 1478.03 289.415 1477.59 290.243C1477.16 291.072 1476.48 291.723 1475.58 292.196C1474.67 292.664 1473.52 292.898 1472.11 292.898H1467.14V290.909H1472.04C1473.01 290.909 1473.79 290.767 1474.38 290.483C1474.98 290.199 1475.41 289.796 1475.68 289.276C1475.95 288.749 1476.08 288.121 1476.08 287.393C1476.08 286.665 1475.95 286.029 1475.68 285.485C1475.4 284.94 1474.97 284.52 1474.37 284.224C1473.77 283.922 1472.98 283.771 1472 283.771H1468.13V300H1465.93ZM1474.49 291.832L1478.96 300H1476.4L1472 291.832H1474.49ZM1481.92 300V281.818H1492.89V283.771H1484.12V289.915H1492.32V291.868H1484.12V298.047H1493.03V300H1481.92ZM1496.86 300V281.818H1503C1504.43 281.818 1505.6 282.076 1506.5 282.591C1507.41 283.1 1508.09 283.789 1508.53 284.659C1508.96 285.529 1509.18 286.5 1509.18 287.571C1509.18 288.642 1508.96 289.616 1508.53 290.492C1508.09 291.368 1507.43 292.066 1506.52 292.587C1505.61 293.102 1504.45 293.359 1503.04 293.359H1498.64V291.406H1502.97C1503.95 291.406 1504.73 291.238 1505.32 290.9C1505.91 290.563 1506.34 290.107 1506.61 289.533C1506.88 288.953 1507.02 288.299 1507.02 287.571C1507.02 286.843 1506.88 286.192 1506.61 285.618C1506.34 285.044 1505.91 284.594 1505.31 284.268C1504.71 283.937 1503.92 283.771 1502.93 283.771H1499.06V300H1496.86ZM1512.73 300V281.818H1514.93V298.047H1523.38V300H1512.73ZM1528.99 281.818V300H1526.79V281.818H1528.99ZM1548.04 287.5H1545.84C1545.71 286.867 1545.48 286.31 1545.15 285.831C1544.83 285.352 1544.44 284.949 1543.98 284.624C1543.53 284.292 1543.02 284.044 1542.46 283.878C1541.91 283.712 1541.33 283.629 1540.72 283.629C1539.62 283.629 1538.63 283.907 1537.73 284.464C1536.84 285.02 1536.14 285.84 1535.61 286.923C1535.09 288.006 1534.83 289.335 1534.83 290.909C1534.83 292.483 1535.09 293.812 1535.61 294.895C1536.14 295.978 1536.84 296.798 1537.73 297.354C1538.63 297.911 1539.62 298.189 1540.72 298.189C1541.33 298.189 1541.91 298.106 1542.46 297.94C1543.02 297.775 1543.53 297.529 1543.98 297.203C1544.44 296.872 1544.83 296.467 1545.15 295.987C1545.48 295.502 1545.71 294.946 1545.84 294.318H1548.04C1547.87 295.247 1547.57 296.079 1547.13 296.813C1546.7 297.547 1546.15 298.171 1545.5 298.686C1544.85 299.195 1544.12 299.583 1543.31 299.849C1542.5 300.115 1541.64 300.249 1540.72 300.249C1539.17 300.249 1537.79 299.87 1536.59 299.112C1535.38 298.355 1534.43 297.277 1533.74 295.881C1533.04 294.484 1532.7 292.827 1532.7 290.909C1532.7 288.991 1533.04 287.334 1533.74 285.938C1534.43 284.541 1535.38 283.464 1536.59 282.706C1537.79 281.948 1539.17 281.57 1540.72 281.57C1541.64 281.57 1542.5 281.703 1543.31 281.969C1544.12 282.235 1544.85 282.626 1545.5 283.141C1546.15 283.65 1546.7 284.271 1547.13 285.005C1547.57 285.733 1547.87 286.565 1548.04 287.5ZM1552.34 300H1550.03L1556.71 281.818H1558.98L1565.66 300H1563.35L1557.92 284.695H1557.78L1552.34 300ZM1553.2 292.898H1562.5V294.851H1553.2V292.898ZM1578.43 286.364C1578.33 285.464 1577.9 284.766 1577.14 284.268C1576.38 283.771 1575.45 283.523 1574.35 283.523C1573.55 283.523 1572.84 283.653 1572.24 283.913C1571.64 284.174 1571.17 284.532 1570.84 284.988C1570.5 285.443 1570.34 285.961 1570.34 286.541C1570.34 287.027 1570.45 287.444 1570.68 287.793C1570.92 288.136 1571.22 288.423 1571.59 288.654C1571.96 288.879 1572.34 289.065 1572.74 289.213C1573.15 289.355 1573.52 289.471 1573.85 289.56L1575.7 290.057C1576.17 290.181 1576.7 290.353 1577.28 290.572C1577.87 290.791 1578.43 291.09 1578.96 291.468C1579.5 291.841 1579.94 292.321 1580.29 292.907C1580.64 293.493 1580.81 294.212 1580.81 295.064C1580.81 296.046 1580.56 296.934 1580.04 297.727C1579.53 298.52 1578.79 299.151 1577.8 299.618C1576.83 300.086 1575.64 300.32 1574.24 300.32C1572.94 300.32 1571.82 300.109 1570.86 299.689C1569.92 299.269 1569.17 298.683 1568.62 297.931C1568.09 297.18 1567.78 296.307 1567.71 295.312H1569.98C1570.04 295.999 1570.27 296.567 1570.68 297.017C1571.08 297.461 1571.6 297.792 1572.22 298.011C1572.85 298.224 1573.52 298.331 1574.24 298.331C1575.09 298.331 1575.84 298.195 1576.51 297.923C1577.18 297.644 1577.71 297.26 1578.1 296.768C1578.49 296.271 1578.68 295.691 1578.68 295.028C1578.68 294.425 1578.51 293.933 1578.18 293.555C1577.84 293.176 1577.4 292.868 1576.85 292.631C1576.3 292.395 1575.7 292.187 1575.06 292.01L1572.82 291.371C1571.4 290.962 1570.28 290.379 1569.45 289.622C1568.62 288.864 1568.21 287.873 1568.21 286.648C1568.21 285.63 1568.48 284.742 1569.03 283.984C1569.59 283.221 1570.34 282.629 1571.27 282.209C1572.21 281.783 1573.26 281.57 1574.42 281.57C1575.59 281.57 1576.64 281.78 1577.55 282.2C1578.46 282.614 1579.18 283.182 1579.71 283.904C1580.25 284.627 1580.54 285.446 1580.57 286.364H1578.43Z" fill="black"/>
<path d="M1544.54 629.909C1544.54 631.827 1544.2 633.484 1543.5 634.881C1542.81 636.277 1541.86 637.355 1540.65 638.112C1539.45 638.87 1538.07 639.249 1536.52 639.249C1534.97 639.249 1533.59 638.87 1532.38 638.112C1531.17 637.355 1530.22 636.277 1529.53 634.881C1528.84 633.484 1528.49 631.827 1528.49 629.909C1528.49 627.991 1528.84 626.334 1529.53 624.938C1530.22 623.541 1531.17 622.464 1532.38 621.706C1533.59 620.948 1534.97 620.57 1536.52 620.57C1538.07 620.57 1539.45 620.948 1540.65 621.706C1541.86 622.464 1542.81 623.541 1543.5 624.938C1544.2 626.334 1544.54 627.991 1544.54 629.909ZM1542.41 629.909C1542.41 628.335 1542.15 627.006 1541.62 625.923C1541.1 624.84 1540.39 624.02 1539.5 623.464C1538.61 622.907 1537.62 622.629 1536.52 622.629C1535.42 622.629 1534.42 622.907 1533.53 623.464C1532.64 624.02 1531.93 624.84 1531.4 625.923C1530.88 627.006 1530.62 628.335 1530.62 629.909C1530.62 631.483 1530.88 632.812 1531.4 633.895C1531.93 634.978 1532.64 635.798 1533.53 636.354C1534.42 636.911 1535.42 637.189 1536.52 637.189C1537.62 637.189 1538.61 636.911 1539.5 636.354C1540.39 635.798 1541.1 634.978 1541.62 633.895C1542.15 632.812 1542.41 631.483 1542.41 629.909ZM1548.24 639V620.818H1559.15V622.771H1550.45V628.915H1558.33V630.868H1550.45V639H1548.24ZM1562.92 639V620.818H1573.82V622.771H1565.12V628.915H1573V630.868H1565.12V639H1562.92ZM1585.12 628.933V630.886H1577.16V628.933H1585.12ZM1589.09 639V620.818H1595.23C1596.66 620.818 1597.83 621.076 1598.73 621.591C1599.64 622.1 1600.32 622.789 1600.75 623.659C1601.19 624.529 1601.41 625.5 1601.41 626.571C1601.41 627.642 1601.19 628.616 1600.75 629.492C1600.32 630.368 1599.65 631.066 1598.75 631.587C1597.84 632.102 1596.68 632.359 1595.27 632.359H1590.86V630.406H1595.2C1596.17 630.406 1596.96 630.238 1597.55 629.9C1598.14 629.563 1598.57 629.107 1598.84 628.533C1599.11 627.953 1599.25 627.299 1599.25 626.571C1599.25 625.843 1599.11 625.192 1598.84 624.618C1598.57 624.044 1598.14 623.594 1597.54 623.268C1596.94 622.937 1596.15 622.771 1595.16 622.771H1591.29V639H1589.09ZM1604.96 639V620.818H1611.1C1612.52 620.818 1613.69 621.061 1614.6 621.546C1615.51 622.026 1616.19 622.685 1616.62 623.526C1617.06 624.366 1617.28 625.322 1617.28 626.393C1617.28 627.465 1617.06 628.415 1616.62 629.243C1616.19 630.072 1615.51 630.723 1614.61 631.196C1613.7 631.664 1612.55 631.898 1611.14 631.898H1606.17V629.909H1611.07C1612.04 629.909 1612.82 629.767 1613.41 629.483C1614.01 629.199 1614.44 628.796 1614.71 628.276C1614.98 627.749 1615.11 627.121 1615.11 626.393C1615.11 625.665 1614.98 625.029 1614.71 624.485C1614.43 623.94 1614 623.52 1613.4 623.224C1612.8 622.922 1612.01 622.771 1611.03 622.771H1607.16V639H1604.96ZM1613.52 630.832L1617.99 639H1615.43L1611.03 630.832H1613.52ZM1620.95 639V620.818H1631.92V622.771H1623.15V628.915H1631.35V630.868H1623.15V637.047H1632.06V639H1620.95ZM1635.89 620.818H1638.52L1644.7 635.911H1644.91L1651.09 620.818H1653.72V639H1651.66V625.186H1651.48L1645.8 639H1643.81L1638.13 625.186H1637.95V639H1635.89V620.818ZM1660.33 620.818V639H1658.13V620.818H1660.33ZM1674.69 625.364C1674.59 624.464 1674.15 623.766 1673.4 623.268C1672.64 622.771 1671.71 622.523 1670.61 622.523C1669.8 622.523 1669.1 622.653 1668.5 622.913C1667.9 623.174 1667.43 623.532 1667.09 623.988C1666.76 624.443 1666.6 624.961 1666.6 625.541C1666.6 626.027 1666.71 626.444 1666.94 626.793C1667.18 627.136 1667.48 627.423 1667.85 627.654C1668.21 627.879 1668.6 628.065 1669 628.213C1669.4 628.355 1669.77 628.471 1670.11 628.56L1671.96 629.057C1672.43 629.181 1672.96 629.353 1673.54 629.572C1674.12 629.791 1674.68 630.09 1675.22 630.468C1675.75 630.841 1676.2 631.321 1676.55 631.907C1676.9 632.493 1677.07 633.212 1677.07 634.064C1677.07 635.046 1676.81 635.934 1676.3 636.727C1675.79 637.52 1675.04 638.151 1674.06 638.618C1673.08 639.086 1671.9 639.32 1670.5 639.32C1669.2 639.32 1668.07 639.109 1667.12 638.689C1666.17 638.269 1665.43 637.683 1664.88 636.931C1664.34 636.18 1664.04 635.307 1663.97 634.312H1666.24C1666.3 634.999 1666.53 635.567 1666.93 636.017C1667.34 636.461 1667.86 636.792 1668.48 637.011C1669.1 637.224 1669.78 637.331 1670.5 637.331C1671.34 637.331 1672.1 637.195 1672.77 636.923C1673.43 636.644 1673.96 636.26 1674.35 635.768C1674.75 635.271 1674.94 634.691 1674.94 634.028C1674.94 633.425 1674.77 632.933 1674.43 632.555C1674.1 632.176 1673.65 631.868 1673.1 631.631C1672.55 631.395 1671.96 631.187 1671.32 631.01L1669.08 630.371C1667.66 629.962 1666.54 629.379 1665.71 628.622C1664.88 627.864 1664.46 626.873 1664.46 625.648C1664.46 624.63 1664.74 623.742 1665.29 622.984C1665.85 622.221 1666.59 621.629 1667.53 621.209C1668.47 620.783 1669.52 620.57 1670.68 620.57C1671.85 620.57 1672.89 620.78 1673.8 621.2C1674.72 621.614 1675.44 622.182 1675.97 622.904C1676.51 623.627 1676.79 624.446 1676.82 625.364H1674.69ZM1680.69 639V620.818H1691.66V622.771H1682.89V628.915H1691.1V630.868H1682.89V637.047H1691.81V639H1680.69ZM1705.58 625.364C1705.47 624.464 1705.04 623.766 1704.28 623.268C1703.52 622.771 1702.59 622.523 1701.49 622.523C1700.69 622.523 1699.98 622.653 1699.38 622.913C1698.78 623.174 1698.31 623.532 1697.98 623.988C1697.64 624.443 1697.48 624.961 1697.48 625.541C1697.48 626.027 1697.59 626.444 1697.83 626.793C1698.06 627.136 1698.36 627.423 1698.73 627.654C1699.1 627.879 1699.48 628.065 1699.88 628.213C1700.29 628.355 1700.66 628.471 1700.99 628.56L1702.84 629.057C1703.31 629.181 1703.84 629.353 1704.42 629.572C1705.01 629.791 1705.57 630.09 1706.1 630.468C1706.64 630.841 1707.08 631.321 1707.43 631.907C1707.78 632.493 1707.95 633.212 1707.95 634.064C1707.95 635.046 1707.7 635.934 1707.18 636.727C1706.67 637.52 1705.93 638.151 1704.95 638.618C1703.97 639.086 1702.78 639.32 1701.39 639.32C1700.08 639.32 1698.96 639.109 1698 638.689C1697.06 638.269 1696.31 637.683 1695.77 636.931C1695.23 636.18 1694.92 635.307 1694.85 634.312H1697.12C1697.18 634.999 1697.41 635.567 1697.82 636.017C1698.22 636.461 1698.74 636.792 1699.36 637.011C1699.99 637.224 1700.66 637.331 1701.39 637.331C1702.23 637.331 1702.98 637.195 1703.65 636.923C1704.32 636.644 1704.85 636.26 1705.24 635.768C1705.63 635.271 1705.82 634.691 1705.82 634.028C1705.82 633.425 1705.66 632.933 1705.32 632.555C1704.98 632.176 1704.54 631.868 1703.99 631.631C1703.44 631.395 1702.84 631.187 1702.2 631.01L1699.96 630.371C1698.54 629.962 1697.42 629.379 1696.59 628.622C1695.76 627.864 1695.35 626.873 1695.35 625.648C1695.35 624.63 1695.62 623.742 1696.17 622.984C1696.73 622.221 1697.48 621.629 1698.41 621.209C1699.35 620.783 1700.4 620.57 1701.56 620.57C1702.73 620.57 1703.78 620.78 1704.69 621.2C1705.6 621.614 1706.32 622.182 1706.85 622.904C1707.39 623.627 1707.68 624.446 1707.71 625.364H1705.58ZM1719.35 639H1717.04L1723.72 620.818H1725.99L1732.67 639H1730.36L1724.93 623.695H1724.78L1719.35 639ZM1720.2 631.898H1729.51V633.851H1720.2V631.898ZM1749.92 620.818V639H1747.79L1737.88 624.724H1737.7V639H1735.5V620.818H1737.63L1747.57 635.129H1747.75V620.818H1749.92ZM1759.93 639H1754.32V620.818H1760.18C1761.95 620.818 1763.46 621.182 1764.71 621.91C1765.97 622.632 1766.93 623.671 1767.6 625.026C1768.26 626.376 1768.6 627.991 1768.6 629.874C1768.6 631.768 1768.26 633.398 1767.59 634.765C1766.91 636.127 1765.93 637.174 1764.64 637.908C1763.35 638.636 1761.78 639 1759.93 639ZM1756.53 637.047H1759.79C1761.3 637.047 1762.54 636.757 1763.53 636.177C1764.52 635.597 1765.26 634.771 1765.74 633.7C1766.23 632.629 1766.47 631.353 1766.47 629.874C1766.47 628.406 1766.23 627.142 1765.75 626.083C1765.27 625.017 1764.55 624.201 1763.6 623.632C1762.65 623.058 1761.46 622.771 1760.04 622.771H1756.53V637.047ZM1544.54 659.909C1544.54 661.827 1544.2 663.484 1543.5 664.881C1542.81 666.277 1541.86 667.355 1540.65 668.112C1539.45 668.87 1538.07 669.249 1536.52 669.249C1534.97 669.249 1533.59 668.87 1532.38 668.112C1531.17 667.355 1530.22 666.277 1529.53 664.881C1528.84 663.484 1528.49 661.827 1528.49 659.909C1528.49 657.991 1528.84 656.334 1529.53 654.938C1530.22 653.541 1531.17 652.464 1532.38 651.706C1533.59 650.948 1534.97 650.57 1536.52 650.57C1538.07 650.57 1539.45 650.948 1540.65 651.706C1541.86 652.464 1542.81 653.541 1543.5 654.938C1544.2 656.334 1544.54 657.991 1544.54 659.909ZM1542.41 659.909C1542.41 658.335 1542.15 657.006 1541.62 655.923C1541.1 654.84 1540.39 654.02 1539.5 653.464C1538.61 652.907 1537.62 652.629 1536.52 652.629C1535.42 652.629 1534.42 652.907 1533.53 653.464C1532.64 654.02 1531.93 654.84 1531.4 655.923C1530.88 657.006 1530.62 658.335 1530.62 659.909C1530.62 661.483 1530.88 662.812 1531.4 663.895C1531.93 664.978 1532.64 665.798 1533.53 666.354C1534.42 666.911 1535.42 667.189 1536.52 667.189C1537.62 667.189 1538.61 666.911 1539.5 666.354C1540.39 665.798 1541.1 664.978 1541.62 663.895C1542.15 662.812 1542.41 661.483 1542.41 659.909ZM1562.66 650.818V669H1560.53L1550.62 654.724H1550.45V669H1548.24V650.818H1550.38L1560.32 665.129H1560.5V650.818H1562.66ZM1574.6 658.933V660.886H1566.64V658.933H1574.6ZM1578.57 669V650.818H1584.71C1586.14 650.818 1587.3 651.076 1588.21 651.591C1589.12 652.1 1589.79 652.789 1590.23 653.659C1590.67 654.529 1590.89 655.5 1590.89 656.571C1590.89 657.642 1590.67 658.616 1590.23 659.492C1589.8 660.368 1589.13 661.066 1588.23 661.587C1587.32 662.102 1586.16 662.359 1584.75 662.359H1580.34V660.406H1584.67C1585.65 660.406 1586.44 660.238 1587.03 659.9C1587.62 659.563 1588.05 659.107 1588.31 658.533C1588.59 657.953 1588.72 657.299 1588.72 656.571C1588.72 655.843 1588.59 655.192 1588.31 654.618C1588.05 654.044 1587.62 653.594 1587.02 653.268C1586.42 652.937 1585.63 652.771 1584.64 652.771H1580.77V669H1578.57ZM1594.44 669V650.818H1600.58C1602 650.818 1603.17 651.061 1604.08 651.546C1604.99 652.026 1605.66 652.685 1606.1 653.526C1606.54 654.366 1606.76 655.322 1606.76 656.393C1606.76 657.465 1606.54 658.415 1606.1 659.243C1605.66 660.072 1604.99 660.723 1604.09 661.196C1603.18 661.664 1602.02 661.898 1600.62 661.898H1595.64V659.909H1600.54C1601.51 659.909 1602.3 659.767 1602.89 659.483C1603.49 659.199 1603.92 658.796 1604.18 658.276C1604.46 657.749 1604.59 657.121 1604.59 656.393C1604.59 655.665 1604.46 655.029 1604.18 654.485C1603.91 653.94 1603.48 653.52 1602.88 653.224C1602.28 652.922 1601.49 652.771 1600.51 652.771H1596.64V669H1594.44ZM1602.99 660.832L1607.47 669H1604.91L1600.51 660.832H1602.99ZM1610.43 669V650.818H1621.4V652.771H1612.63V658.915H1620.83V660.868H1612.63V667.047H1621.54V669H1610.43ZM1625.37 650.818H1628L1634.18 665.911H1634.39L1640.57 650.818H1643.2V669H1641.14V655.186H1640.96L1635.28 669H1633.29L1627.61 655.186H1627.43V669H1625.37V650.818ZM1649.81 650.818V669H1647.61V650.818H1649.81ZM1664.17 655.364C1664.06 654.464 1663.63 653.766 1662.87 653.268C1662.12 652.771 1661.19 652.523 1660.09 652.523C1659.28 652.523 1658.58 652.653 1657.97 652.913C1657.37 653.174 1656.91 653.532 1656.57 653.988C1656.24 654.443 1656.07 654.961 1656.07 655.541C1656.07 656.027 1656.19 656.444 1656.42 656.793C1656.66 657.136 1656.96 657.423 1657.32 657.654C1657.69 657.879 1658.08 658.065 1658.48 658.213C1658.88 658.355 1659.25 658.471 1659.59 658.56L1661.43 659.057C1661.91 659.181 1662.44 659.353 1663.02 659.572C1663.6 659.791 1664.16 660.09 1664.69 660.468C1665.23 660.841 1665.68 661.321 1666.02 661.907C1666.37 662.493 1666.55 663.212 1666.55 664.064C1666.55 665.046 1666.29 665.934 1665.78 666.727C1665.27 667.52 1664.52 668.151 1663.54 668.618C1662.56 669.086 1661.38 669.32 1659.98 669.32C1658.68 669.32 1657.55 669.109 1656.6 668.689C1655.65 668.269 1654.9 667.683 1654.36 666.931C1653.82 666.18 1653.52 665.307 1653.44 664.312H1655.72C1655.78 664.999 1656.01 665.567 1656.41 666.017C1656.82 666.461 1657.33 666.792 1657.95 667.011C1658.58 667.224 1659.26 667.331 1659.98 667.331C1660.82 667.331 1661.57 667.195 1662.24 666.923C1662.91 666.644 1663.44 666.26 1663.83 665.768C1664.22 665.271 1664.42 664.691 1664.42 664.028C1664.42 663.425 1664.25 662.933 1663.91 662.555C1663.57 662.176 1663.13 661.868 1662.58 661.631C1662.03 661.395 1661.43 661.187 1660.8 661.01L1658.56 660.371C1657.14 659.962 1656.01 659.379 1655.18 658.622C1654.36 657.864 1653.94 656.873 1653.94 655.648C1653.94 654.63 1654.22 653.742 1654.77 652.984C1655.32 652.221 1656.07 651.629 1657 651.209C1657.95 650.783 1659 650.57 1660.16 650.57C1661.33 650.57 1662.37 650.78 1663.28 651.2C1664.19 651.614 1664.92 652.182 1665.45 652.904C1665.99 653.627 1666.27 654.446 1666.3 655.364H1664.17ZM1670.17 669V650.818H1681.14V652.771H1672.37V658.915H1680.57V660.868H1672.37V667.047H1681.28V669H1670.17ZM1695.05 655.364C1694.95 654.464 1694.51 653.766 1693.76 653.268C1693 652.771 1692.07 652.523 1690.97 652.523C1690.16 652.523 1689.46 652.653 1688.86 652.913C1688.26 653.174 1687.79 653.532 1687.45 653.988C1687.12 654.443 1686.96 654.961 1686.96 655.541C1686.96 656.027 1687.07 656.444 1687.3 656.793C1687.54 657.136 1687.84 657.423 1688.21 657.654C1688.58 657.879 1688.96 658.065 1689.36 658.213C1689.76 658.355 1690.13 658.471 1690.47 658.56L1692.32 659.057C1692.79 659.181 1693.32 659.353 1693.9 659.572C1694.48 659.791 1695.04 660.09 1695.58 660.468C1696.12 660.841 1696.56 661.321 1696.91 661.907C1697.26 662.493 1697.43 663.212 1697.43 664.064C1697.43 665.046 1697.17 665.934 1696.66 666.727C1696.15 667.52 1695.41 668.151 1694.42 668.618C1693.45 669.086 1692.26 669.32 1690.86 669.32C1689.56 669.32 1688.43 669.109 1687.48 668.689C1686.53 668.269 1685.79 667.683 1685.24 666.931C1684.7 666.18 1684.4 665.307 1684.33 664.312H1686.6C1686.66 664.999 1686.89 665.567 1687.29 666.017C1687.7 666.461 1688.22 666.792 1688.84 667.011C1689.47 667.224 1690.14 667.331 1690.86 667.331C1691.7 667.331 1692.46 667.195 1693.13 666.923C1693.8 666.644 1694.33 666.26 1694.72 665.768C1695.11 665.271 1695.3 664.691 1695.3 664.028C1695.3 663.425 1695.13 662.933 1694.8 662.555C1694.46 662.176 1694.01 661.868 1693.46 661.631C1692.91 661.395 1692.32 661.187 1691.68 661.01L1689.44 660.371C1688.02 659.962 1686.9 659.379 1686.07 658.622C1685.24 657.864 1684.83 656.873 1684.83 655.648C1684.83 654.63 1685.1 653.742 1685.65 652.984C1686.21 652.221 1686.95 651.629 1687.89 651.209C1688.83 650.783 1689.88 650.57 1691.04 650.57C1692.21 650.57 1693.25 650.78 1694.17 651.2C1695.08 651.614 1695.8 652.182 1696.33 652.904C1696.87 653.627 1697.15 654.446 1697.18 655.364H1695.05ZM1722.71 656.5H1720.51C1720.38 655.867 1720.15 655.31 1719.83 654.831C1719.51 654.352 1719.12 653.949 1718.66 653.624C1718.2 653.292 1717.7 653.044 1717.14 652.878C1716.58 652.712 1716 652.629 1715.4 652.629C1714.3 652.629 1713.3 652.907 1712.41 653.464C1711.52 654.02 1710.81 654.84 1710.29 655.923C1709.76 657.006 1709.5 658.335 1709.5 659.909C1709.5 661.483 1709.76 662.812 1710.29 663.895C1710.81 664.978 1711.52 665.798 1712.41 666.354C1713.3 666.911 1714.3 667.189 1715.4 667.189C1716 667.189 1716.58 667.106 1717.14 666.94C1717.7 666.775 1718.2 666.529 1718.66 666.203C1719.12 665.872 1719.51 665.467 1719.83 664.987C1720.15 664.502 1720.38 663.946 1720.51 663.318H1722.71C1722.55 664.247 1722.25 665.079 1721.81 665.813C1721.37 666.547 1720.83 667.171 1720.18 667.686C1719.52 668.195 1718.79 668.583 1717.98 668.849C1717.18 669.115 1716.32 669.249 1715.4 669.249C1713.85 669.249 1712.47 668.87 1711.26 668.112C1710.05 667.355 1709.1 666.277 1708.41 664.881C1707.72 663.484 1707.37 661.827 1707.37 659.909C1707.37 657.991 1707.72 656.334 1708.41 654.938C1709.1 653.541 1710.05 652.464 1711.26 651.706C1712.47 650.948 1713.85 650.57 1715.4 650.57C1716.32 650.57 1717.18 650.703 1717.98 650.969C1718.79 651.235 1719.52 651.626 1720.18 652.141C1720.83 652.65 1721.37 653.271 1721.81 654.005C1722.25 654.733 1722.55 655.565 1722.71 656.5ZM1726.27 669V650.818H1728.47V667.047H1736.93V669H1726.27ZM1754.97 659.909C1754.97 661.827 1754.62 663.484 1753.93 664.881C1753.24 666.277 1752.29 667.355 1751.08 668.112C1749.87 668.87 1748.49 669.249 1746.94 669.249C1745.39 669.249 1744.01 668.87 1742.8 668.112C1741.6 667.355 1740.65 666.277 1739.95 664.881C1739.26 663.484 1738.92 661.827 1738.92 659.909C1738.92 657.991 1739.26 656.334 1739.95 654.938C1740.65 653.541 1741.6 652.464 1742.8 651.706C1744.01 650.948 1745.39 650.57 1746.94 650.57C1748.49 650.57 1749.87 650.948 1751.08 651.706C1752.29 652.464 1753.24 653.541 1753.93 654.938C1754.62 656.334 1754.97 657.991 1754.97 659.909ZM1752.84 659.909C1752.84 658.335 1752.57 657.006 1752.05 655.923C1751.53 654.84 1750.82 654.02 1749.92 653.464C1749.04 652.907 1748.04 652.629 1746.94 652.629C1745.84 652.629 1744.84 652.907 1743.95 653.464C1743.06 654.02 1742.35 654.84 1741.83 655.923C1741.31 657.006 1741.05 658.335 1741.05 659.909C1741.05 661.483 1741.31 662.812 1741.83 663.895C1742.35 664.978 1743.06 665.798 1743.95 666.354C1744.84 666.911 1745.84 667.189 1746.94 667.189C1748.04 667.189 1749.04 666.911 1749.92 666.354C1750.82 665.798 1751.53 664.978 1752.05 663.895C1752.57 662.812 1752.84 661.483 1752.84 659.909ZM1770.6 650.818H1772.8V662.857C1772.8 664.099 1772.51 665.209 1771.92 666.186C1771.34 667.156 1770.52 667.923 1769.46 668.485C1768.41 669.041 1767.16 669.32 1765.74 669.32C1764.31 669.32 1763.07 669.041 1762.01 668.485C1760.95 667.923 1760.13 667.156 1759.54 666.186C1758.96 665.209 1758.67 664.099 1758.67 662.857V650.818H1760.87V662.679C1760.87 663.567 1761.07 664.357 1761.46 665.049C1761.85 665.736 1762.4 666.277 1763.13 666.674C1763.85 667.065 1764.72 667.26 1765.74 667.26C1766.75 667.26 1767.62 667.065 1768.35 666.674C1769.07 666.277 1769.63 665.736 1770.02 665.049C1770.41 664.357 1770.6 663.567 1770.6 662.679V650.818ZM1782.81 669H1777.2V650.818H1783.06C1784.82 650.818 1786.33 651.182 1787.59 651.91C1788.84 652.632 1789.8 653.671 1790.47 655.026C1791.14 656.376 1791.48 657.991 1791.48 659.874C1791.48 661.768 1791.14 663.398 1790.46 664.765C1789.79 666.127 1788.81 667.174 1787.52 667.908C1786.23 668.636 1784.66 669 1782.81 669ZM1779.4 667.047H1782.67C1784.17 667.047 1785.42 666.757 1786.41 666.177C1787.39 665.597 1788.13 664.771 1788.62 663.7C1789.1 662.629 1789.34 661.353 1789.34 659.874C1789.34 658.406 1789.1 657.142 1788.63 656.083C1788.15 655.017 1787.43 654.201 1786.48 653.632C1785.52 653.058 1784.34 652.771 1782.92 652.771H1779.4V667.047ZM1539.14 685.364C1539.04 684.464 1538.61 683.766 1537.85 683.268C1537.09 682.771 1536.16 682.523 1535.06 682.523C1534.26 682.523 1533.55 682.653 1532.95 682.913C1532.35 683.174 1531.88 683.532 1531.55 683.988C1531.21 684.443 1531.05 684.961 1531.05 685.541C1531.05 686.027 1531.16 686.444 1531.39 686.793C1531.63 687.136 1531.93 687.423 1532.3 687.654C1532.67 687.879 1533.05 688.065 1533.45 688.213C1533.86 688.355 1534.23 688.471 1534.56 688.56L1536.41 689.057C1536.88 689.181 1537.41 689.353 1537.99 689.572C1538.58 689.791 1539.14 690.09 1539.67 690.468C1540.21 690.841 1540.65 691.321 1541 691.907C1541.35 692.493 1541.52 693.212 1541.52 694.064C1541.52 695.046 1541.27 695.934 1540.75 696.727C1540.24 697.52 1539.5 698.151 1538.51 698.618C1537.54 699.086 1536.35 699.32 1534.95 699.32C1533.65 699.32 1532.52 699.109 1531.57 698.689C1530.63 698.269 1529.88 697.683 1529.33 696.931C1528.8 696.18 1528.49 695.307 1528.42 694.312H1530.69C1530.75 694.999 1530.98 695.567 1531.39 696.017C1531.79 696.461 1532.31 696.792 1532.93 697.011C1533.56 697.224 1534.23 697.331 1534.95 697.331C1535.79 697.331 1536.55 697.195 1537.22 696.923C1537.89 696.644 1538.42 696.26 1538.81 695.768C1539.2 695.271 1539.39 694.691 1539.39 694.028C1539.39 693.425 1539.22 692.933 1538.89 692.555C1538.55 692.176 1538.11 691.868 1537.56 691.631C1537.01 691.395 1536.41 691.187 1535.77 691.01L1533.53 690.371C1532.11 689.962 1530.99 689.379 1530.16 688.622C1529.33 687.864 1528.92 686.873 1528.92 685.648C1528.92 684.63 1529.19 683.742 1529.74 682.984C1530.3 682.221 1531.05 681.629 1531.98 681.209C1532.92 680.783 1533.97 680.57 1535.13 680.57C1536.3 680.57 1537.35 680.78 1538.26 681.2C1539.17 681.614 1539.89 682.182 1540.42 682.904C1540.96 683.627 1541.25 684.446 1541.28 685.364H1539.14ZM1544.15 682.771V680.818H1557.79V682.771H1552.07V699H1549.87V682.771H1544.15ZM1575.77 689.909C1575.77 691.827 1575.42 693.484 1574.73 694.881C1574.04 696.277 1573.09 697.355 1571.88 698.112C1570.67 698.87 1569.29 699.249 1567.74 699.249C1566.19 699.249 1564.81 698.87 1563.61 698.112C1562.4 697.355 1561.45 696.277 1560.76 694.881C1560.06 693.484 1559.72 691.827 1559.72 689.909C1559.72 687.991 1560.06 686.334 1560.76 684.938C1561.45 683.541 1562.4 682.464 1563.61 681.706C1564.81 680.948 1566.19 680.57 1567.74 680.57C1569.29 680.57 1570.67 680.948 1571.88 681.706C1573.09 682.464 1574.04 683.541 1574.73 684.938C1575.42 686.334 1575.77 687.991 1575.77 689.909ZM1573.64 689.909C1573.64 688.335 1573.37 687.006 1572.85 685.923C1572.33 684.84 1571.62 684.02 1570.73 683.464C1569.84 682.907 1568.84 682.629 1567.74 682.629C1566.64 682.629 1565.64 682.907 1564.75 683.464C1563.86 684.02 1563.16 684.84 1562.63 685.923C1562.11 687.006 1561.85 688.335 1561.85 689.909C1561.85 691.483 1562.11 692.812 1562.63 693.895C1563.16 694.978 1563.86 695.798 1564.75 696.354C1565.64 696.911 1566.64 697.189 1567.74 697.189C1568.84 697.189 1569.84 696.911 1570.73 696.354C1571.62 695.798 1572.33 694.978 1572.85 693.895C1573.37 692.812 1573.64 691.483 1573.64 689.909ZM1579.47 699V680.818H1585.61C1587.03 680.818 1588.2 681.061 1589.11 681.546C1590.02 682.026 1590.7 682.685 1591.14 683.526C1591.57 684.366 1591.79 685.322 1591.79 686.393C1591.79 687.465 1591.57 688.415 1591.14 689.243C1590.7 690.072 1590.03 690.723 1589.12 691.196C1588.21 691.664 1587.06 691.898 1585.65 691.898H1580.68V689.909H1585.58C1586.55 689.909 1587.33 689.767 1587.92 689.483C1588.52 689.199 1588.95 688.796 1589.22 688.276C1589.49 687.749 1589.63 687.121 1589.63 686.393C1589.63 685.665 1589.49 685.029 1589.22 684.485C1588.95 683.94 1588.51 683.52 1587.91 683.224C1587.32 682.922 1586.53 682.771 1585.54 682.771H1581.67V699H1579.47ZM1588.03 690.832L1592.5 699H1589.95L1585.54 690.832H1588.03ZM1596.21 699H1593.9L1600.58 680.818H1602.85L1609.52 699H1607.22L1601.78 683.695H1601.64L1596.21 699ZM1597.06 691.898H1606.36V693.851H1597.06V691.898ZM1623.93 686.5C1623.74 685.902 1623.48 685.367 1623.16 684.893C1622.84 684.414 1622.47 684.005 1622.03 683.668C1621.6 683.331 1621.11 683.073 1620.56 682.896C1620.01 682.718 1619.4 682.629 1618.75 682.629C1617.67 682.629 1616.69 682.907 1615.81 683.464C1614.93 684.02 1614.22 684.84 1613.7 685.923C1613.18 687.006 1612.92 688.335 1612.92 689.909C1612.92 691.483 1613.19 692.812 1613.71 693.895C1614.24 694.978 1614.95 695.798 1615.85 696.354C1616.75 696.911 1617.76 697.189 1618.89 697.189C1619.93 697.189 1620.85 696.967 1621.64 696.523C1622.44 696.073 1623.06 695.44 1623.5 694.623C1623.95 693.801 1624.18 692.833 1624.18 691.72L1624.85 691.862H1619.39V689.909H1626.31V691.862C1626.31 693.36 1625.99 694.662 1625.35 695.768C1624.72 696.875 1623.84 697.733 1622.72 698.343C1621.61 698.947 1620.33 699.249 1618.89 699.249C1617.28 699.249 1615.86 698.87 1614.64 698.112C1613.43 697.355 1612.48 696.277 1611.8 694.881C1611.13 693.484 1610.79 691.827 1610.79 689.909C1610.79 688.471 1610.98 687.178 1611.37 686.029C1611.76 684.875 1612.31 683.893 1613.02 683.082C1613.73 682.271 1614.57 681.65 1615.54 681.218C1616.51 680.786 1617.58 680.57 1618.75 680.57C1619.7 680.57 1620.6 680.715 1621.43 681.005C1622.26 681.289 1623 681.694 1623.66 682.221C1624.31 682.742 1624.86 683.366 1625.3 684.094C1625.74 684.816 1626.04 685.618 1626.2 686.5H1623.93ZM1630.08 699V680.818H1641.05V682.771H1632.28V688.915H1640.49V690.868H1632.28V697.047H1641.2V699H1630.08Z" fill="black"/>
<path fill-rule="evenodd" clip-rule="evenodd" d="M861.927 543.058C872.977 548.216 882.323 556.172 889.121 566H939V586H905C905 586 897 586 897 595.5C897 605 905 605 905 605H959V625H902C902 625 894 625 894 634.5C894 644 902 644 902 644H920V664H894C894 664 886 664 886 673.5C886 678.514 888.229 680.882 890.334 682H939V702H754V701.797C739.003 699.42 725.566 691.15 716.637 678.799C707.693 666.428 704.005 650.975 706.383 635.84C708.761 620.706 717.011 607.129 729.318 598.097C740.103 590.182 753.228 586.325 766.422 587.081C767.473 583.266 768.862 579.523 770.587 575.896C778.376 559.515 792.375 546.853 809.505 540.695C826.635 534.537 845.492 535.387 861.927 543.058ZM978 645H939V665H978V645ZM997 644H1085V664H997V644ZM1057 605H978V625H1057V605ZM959 566H1018V586H959V566ZM1057 566H1036V586H1057V566ZM1074 605H1114V625H1074V605ZM1046 682H959V702H1046V682Z" fill="black"/>
<path fill-rule="evenodd" clip-rule="evenodd" d="M953.116 227L852 328.116L911.751 387.867L912.104 388.22L912.105 388.219C940.055 415.789 985.062 415.671 1012.87 387.867C1040.67 360.062 1040.79 315.055 1013.22 287.105L1013.22 287.104L1012.87 286.751L953.116 227Z" fill="url(#paint0_linear_13_12)"/>
<path fill-rule="evenodd" clip-rule="evenodd" d="M968.001 187H825.001V271.5C825.001 271.667 824.999 271.833 825.001 272C825.269 311.258 857.179 343 896.501 343C935.822 343 967.732 311.258 968.001 272C968.002 271.833 968.001 271.667 968.001 271.5V187Z" fill="#8ABA00"/>
<circle cx="896.5" cy="189.5" r="71.5" fill="#A0D606"/>
<path fill-rule="evenodd" clip-rule="evenodd" d="M671.116 337L570 438.116L629.751 497.867L630.104 498.22L630.105 498.219C658.055 525.789 703.062 525.671 730.867 497.867C758.671 470.062 758.789 425.055 731.219 397.105L731.22 397.104L730.867 396.751L671.116 337Z" fill="url(#paint1_linear_13_12)"/>
<path fill-rule="evenodd" clip-rule="evenodd" d="M606.116 272L505 373.116L564.751 432.867L565.104 433.22L565.105 433.219C593.055 460.789 638.062 460.671 665.867 432.867C693.671 405.062 693.789 360.055 666.219 332.105L666.22 332.104L665.867 331.751L606.116 272Z" fill="#0089A6"/>
<circle cx="558.5" cy="325.5" r="71.5" fill="#04ADCF"/>
<path fill-rule="evenodd" clip-rule="evenodd" d="M1218.12 324L1117 425.116L1176.75 484.867L1177.1 485.22L1177.11 485.219C1205.06 512.789 1250.06 512.671 1277.87 484.867C1305.67 457.062 1305.79 412.055 1278.22 384.105L1278.22 384.104L1277.87 383.751L1218.12 324Z" fill="url(#paint2_linear_13_12)"/>
<path fill-rule="evenodd" clip-rule="evenodd" d="M1283.42 371.116L1182.31 270L1122.56 329.751L1122.2 330.104L1122.21 330.105C1094.64 358.055 1094.75 403.062 1122.56 430.867C1150.36 458.671 1195.37 458.789 1223.32 431.219L1223.32 431.22L1223.67 430.867L1283.42 371.116Z" fill="#E38F00"/>
<circle cx="1227.5" cy="325.5" r="71.5" fill="#FFB302"/>
<path fill-rule="evenodd" clip-rule="evenodd" d="M1338.12 612L1237 713.117L1296.75 772.867L1297.1 773.221L1297.1 773.219C1325.05 800.789 1370.06 800.672 1397.87 772.867C1425.67 745.062 1425.79 700.055 1398.22 672.106L1398.22 672.104L1397.87 671.751L1338.12 612Z" fill="url(#paint3_linear_13_12)"/>
<path fill-rule="evenodd" clip-rule="evenodd" d="M1369 731L1369 588L1284.5 588L1284 588L1284 588.002C1244.74 588.271 1213 620.178 1213 659.5C1213 698.822 1244.74 730.729 1284 730.998L1284 731L1284.5 731L1369 731Z" fill="#A81D29"/>
<circle cx="1366.5" cy="659.5" r="71.5" transform="rotate(90 1366.5 659.5)" fill="#D93B3B"/>
<path fill-rule="evenodd" clip-rule="evenodd" d="M566.116 613L465 714.116L524.75 773.867L525.104 774.22L525.105 774.219C553.055 801.789 598.062 801.671 625.866 773.867C653.671 746.062 653.788 701.055 626.219 673.105L626.22 673.104L625.866 672.751L566.116 613Z" fill="url(#paint4_linear_13_12)"/>
<path fill-rule="evenodd" clip-rule="evenodd" d="M428 588L428 731L512.5 731L513 731L513 730.998C552.258 730.729 584 698.822 584 659.5C584 620.178 552.258 588.271 513 588.002L513 588L512.5 588L428 588Z" fill="#0C4466"/>
<circle cx="430.5" cy="659.5" r="71.5" transform="rotate(-90 430.5 659.5)" fill="#105A87"/>
<path d="M1279.53 570.982C1269.88 529.849 1253.73 490.522 1231.67 454.489L1222.08 460.361C1243.51 495.372 1259.21 533.583 1268.58 573.549L1279.53 570.982Z" fill="black"/>
<path d="M1108.67 328.462C1073.18 305.535 1034.26 288.427 993.374 277.785L990.541 288.669C1030.27 299.009 1068.09 315.632 1102.57 337.908L1108.67 328.462Z" fill="black"/>
<path d="M802.645 275.55C761.521 285.231 722.208 301.422 686.194 323.511L692.074 333.098C727.067 311.636 765.264 295.904 805.222 286.497L802.645 275.55Z" fill="black"/>
<path d="M554.341 456.115C532.456 492.253 516.488 531.657 507.041 572.836L518.003 575.351C527.182 535.34 542.697 497.054 563.961 461.94L554.341 456.115Z" fill="black"/>
<defs>
<linearGradient id="paint0_linear_13_12" x1="902.558" y1="277.558" x2="1017.11" y2="391.402" gradientUnits="userSpaceOnUse">
<stop/>
<stop offset="1" stop-opacity="0"/>
</linearGradient>
<linearGradient id="paint1_linear_13_12" x1="620.558" y1="387.558" x2="735.109" y2="501.402" gradientUnits="userSpaceOnUse">
<stop/>
<stop offset="1" stop-opacity="0"/>
</linearGradient>
<linearGradient id="paint2_linear_13_12" x1="1167.56" y1="374.558" x2="1282.11" y2="488.402" gradientUnits="userSpaceOnUse">
<stop/>
<stop offset="1" stop-opacity="0"/>
</linearGradient>
<linearGradient id="paint3_linear_13_12" x1="1287.56" y1="662.558" x2="1402.11" y2="776.403" gradientUnits="userSpaceOnUse">
<stop/>
<stop offset="1" stop-opacity="0"/>
</linearGradient>
<linearGradient id="paint4_linear_13_12" x1="515.558" y1="663.558" x2="630.109" y2="777.402" gradientUnits="userSpaceOnUse">
<stop/>
<stop offset="1" stop-opacity="0"/>
</linearGradient>
</defs>
</svg>
