<svg width="512" height="512" viewBox="0 0 512 512" fill="none" xmlns="http://www.w3.org/2000/svg">
<g clip-path="url(#clip0_21_1029)">
<path d="M375.748 274.091L509.402 407.744L441.754 475.392C429.963 487.133 415.958 496.416 400.551 502.7C385.145 508.984 368.643 512.145 352.004 512C197.38 512 0.00416216 314.624 0.00416216 160C-0.131162 143.36 3.0346 126.858 9.31829 111.449C15.602 96.0397 24.8788 82.0297 36.6122 70.2293L104.26 2.60267L237.914 136.256L149.913 224.256C176.075 286.427 225.467 335.934 287.578 362.24L375.748 274.091ZM469.337 213.333H512.004C511.942 156.773 489.446 102.547 449.452 62.5525C409.457 22.5582 355.231 0.0621141 298.671 0V42.6667C343.919 42.7175 387.299 60.7147 419.294 92.7099C451.289 124.705 469.287 168.085 469.337 213.333ZM384.004 213.333H426.671C426.637 179.396 413.14 146.858 389.143 122.861C365.146 98.8638 332.608 85.3672 298.671 85.3333V128C321.303 128 343.007 136.99 359.011 152.994C375.014 168.997 384.004 190.702 384.004 213.333Z" fill="#07439C"/>
</g>
<defs>
<clipPath id="clip0_21_1029">
<rect width="512" height="512" fill="white"/>
</clipPath>
</defs>
</svg>
