<svg width="512" height="512" viewBox="0 0 512 512" fill="none" xmlns="http://www.w3.org/2000/svg">
<g clip-path="url(#clip0_21_1036)">
<path d="M299.925 341.333H320C461.717 341.333 512 266.624 512 202.667C512 165.781 485.056 135.275 449.856 129.259C458.453 110.613 464.789 92.6933 468.075 76.6293C471.915 57.9413 467.136 38.6986 454.997 23.808C442.645 8.66131 424.341 -0.0213623 404.821 -0.0213623H107.157C87.6373 -0.0213623 69.3547 8.66131 56.9813 23.808C44.8427 38.6773 40.064 57.9413 43.904 76.6293C47.2107 92.672 53.504 110.613 62.1013 129.259C26.9227 135.275 0 165.781 0 202.645C0 266.603 50.2827 341.312 192 341.312H211.904C212.523 345.813 213.333 350.272 213.333 354.901V426.645C213.333 465.6 180.565 469.141 170.667 469.312H106.667V511.979H405.333V469.312H341.333C331.264 469.141 298.496 465.6 298.496 426.645V354.901C298.496 350.272 299.285 345.835 299.925 341.333ZM427.371 170.667H437.333C454.976 170.667 469.333 185.024 469.333 202.667C469.333 249.088 426.837 298.667 316.736 298.667C320.661 293.461 325.141 288.789 330.176 284.779C366.827 255.488 401.472 213.291 427.371 170.667ZM42.6667 202.667C42.6667 185.024 57.024 170.667 74.6667 170.667H84.5653C110.421 213.269 145.003 255.467 181.653 284.779C186.667 288.789 191.168 293.483 195.093 298.667C84.992 298.667 42.6667 249.088 42.6667 202.667ZM267.179 85.3333L281.088 128.107H326.08L332.48 147.691L296.085 174.144L309.995 216.939L293.333 229.035L256.96 202.667L220.48 229.056L203.819 216.96L217.728 174.165L181.333 147.712L187.733 128.128H232.683L246.592 85.4613L267.179 85.3333Z" fill="#07439C"/>
</g>
<defs>
<clipPath id="clip0_21_1036">
<rect width="512" height="512" fill="white"/>
</clipPath>
</defs>
</svg>
