<svg width="1634" height="239" viewBox="0 0 1634 239" fill="none" xmlns="http://www.w3.org/2000/svg">
<path d="M549.85 68.0608H509.28C505.57 68.0608 503.36 65.0508 504.36 61.3408L510.12 39.8508C511.11 36.1608 514.89 33.1508 518.6 33.1308L659.53 32.0608C663.27 32.0308 665.5 35.0508 664.5 38.7808L658.22 62.2208C657.22 65.9308 653.41 68.9408 649.69 68.9508H607.17C603.46 68.9508 599.64 71.9608 598.64 75.6808L565.86 198.021C564.86 201.731 561.05 204.741 557.33 204.741H526.59C522.87 204.741 520.67 201.731 521.67 198.011L554.76 74.8008C555.76 71.0808 553.55 68.0708 549.84 68.0708L549.85 68.0608Z" fill="white"/>
<path d="M620.52 144.041C629.73 109.651 658.2 77.0312 703.21 77.0312C744.91 77.0312 753.1 109.511 738.72 146.671C736.9 151.381 731.91 154.911 727.16 154.911H660.34C657.47 170.341 670.09 175.141 685.26 175.141C693.84 175.141 703.1 174.001 711.96 172.091C717.7 170.851 721.97 174.611 721.18 180.111L719.49 191.951C718.82 196.601 714.73 200.941 709.87 202.211C696.41 205.711 681.8 207.251 669.32 207.251C627.6 207.251 609.54 185.001 620.51 144.031L620.52 144.041ZM704.54 125.831L704.95 124.311C706.78 117.481 706.52 107.121 692.87 107.121C681.49 107.121 672.55 115.971 668.64 125.831H704.55H704.54Z" fill="white"/>
<path d="M796.41 20.7812L830.54 20.0012C833.31 19.9412 834.99 22.1512 834.25 24.9112L809.85 115.981C808.69 120.321 813.32 122.531 817.24 119.501C817.67 119.171 818.06 118.791 818.4 118.381L848.31 82.3212C849.59 80.7712 851.49 79.8112 853.27 79.8112H892.26C896.42 79.8112 897.4 84.6612 893.88 87.8612L848.28 129.351C846.46 131.011 845.69 133.381 846.39 135.181L870.36 197.111C871.63 200.381 868.12 204.721 864.21 204.721H821.97C820.11 204.721 818.69 203.671 818.3 202.011L808.77 161.391C808.07 158.431 804.32 157.761 801.31 160.071L799.05 161.801C797.85 162.731 796.97 164.001 796.61 165.331L787.37 199.811C786.64 202.521 783.85 204.721 781.14 204.721H747.22C744.51 204.721 742.9 202.521 743.62 199.811L790.27 25.6912C790.99 23.0212 793.7 20.8412 796.39 20.7812H796.41Z" fill="white"/>
<path d="M1046.14 205.812C1042.86 205.812 1040.47 203.482 1040.46 200.272L1038.68 128.882L996.39 201.362C994.91 204.012 991.99 205.812 989.13 205.812H970.99C967.71 205.812 965.32 203.482 965.31 200.272L963.58 129.172L922.62 201.282C921.15 203.982 918.21 205.812 915.32 205.812H891.2C889.07 205.812 887.28 204.842 886.28 203.152C885.19 201.302 885.27 198.892 886.49 196.712L949.77 83.2117C951.27 80.5317 954.19 78.7217 957.05 78.7217H990.46C992.08 78.7217 993.54 79.3016 994.59 80.3616C995.61 81.3916 996.16 82.8017 996.14 84.3517L995.79 115.172L995.13 153.902L1016.35 114.202L1033.04 83.3116C1034.52 80.5716 1037.47 78.7316 1040.37 78.7316H1073.19C1074.8 78.7316 1076.27 79.3116 1077.31 80.3616C1078.33 81.3816 1078.88 82.8017 1078.87 84.3317L1077.94 197.832C1077.91 201.932 1073.9 205.812 1069.69 205.812H1046.14Z" fill="white"/>
<path d="M957.05 80.7314H990.46C992.65 80.7314 994.16 82.2115 994.14 84.3315L993.79 115.151L993.01 161.102H993.55L1018.12 115.151L1034.81 84.2615C1035.94 82.1715 1038.22 80.7314 1040.38 80.7314H1073.2C1075.38 80.7314 1076.89 82.2015 1076.88 84.3215L1075.95 197.821C1075.93 200.861 1072.84 203.821 1069.7 203.821H1046.15C1043.98 203.821 1042.48 202.371 1042.47 200.281L1040.52 121.801L994.67 200.371C993.53 202.421 991.27 203.831 989.14 203.831H971C968.83 203.831 967.33 202.382 967.32 200.292L965.41 121.931L920.89 200.311C919.76 202.391 917.48 203.831 915.33 203.831H891.21C888.02 203.831 886.54 200.771 888.25 197.701L951.53 84.2015C952.67 82.1515 954.93 80.7415 957.06 80.7415L957.05 80.7314Z" fill="white"/>
<path d="M1095.41 142.771C1108.62 93.4612 1146.4 77.0312 1178.77 77.0312C1211.14 77.0312 1239.98 93.9712 1226.9 142.771C1214.57 188.791 1176.18 207.501 1143.81 207.501C1111.44 207.501 1082.88 189.551 1095.41 142.771ZM1181.77 142.261C1189.02 115.201 1181.24 108.381 1170.37 108.381C1159.5 108.381 1148.06 115.211 1140.81 142.261C1133.56 169.321 1141.41 175.891 1152.28 175.891C1163.15 175.891 1174.52 169.321 1181.77 142.261Z" fill="white"/>
<path d="M1251.41 122.041C1254.87 109.141 1257.88 97.2712 1260.4 86.5612C1261.28 82.8312 1265.04 79.7212 1268.8 79.6212L1293.69 78.9512C1297 78.8612 1299.25 81.1512 1299.02 84.3712L1298.32 94.2213H1299.33C1309.66 85.8813 1324.42 77.0312 1342.88 77.0312C1375.25 77.0312 1380.09 99.5412 1371.76 130.641L1353.71 198.001C1352.71 201.711 1348.9 204.731 1345.18 204.731H1314.88C1311.17 204.731 1308.96 201.721 1309.96 198.001L1327.26 133.421C1330.92 119.771 1329.73 111.931 1319.62 111.931C1309.51 111.931 1301.32 116.991 1294.35 125.081L1274.81 198.011C1273.81 201.721 1270 204.741 1266.28 204.741H1235.98C1232.27 204.741 1230.06 201.731 1231.06 198.011L1251.41 122.051V122.041Z" fill="white"/>
<path d="M1430.51 20.7812L1464.64 20.0012C1467.41 19.9412 1469.09 22.1512 1468.35 24.9112L1443.95 115.981C1442.79 120.321 1447.42 122.531 1451.34 119.501C1451.77 119.171 1452.16 118.791 1452.5 118.381L1482.41 82.3212C1483.69 80.7712 1485.59 79.8112 1487.37 79.8112H1526.36C1530.52 79.8112 1531.5 84.6612 1527.98 87.8612L1482.38 129.351C1480.56 131.011 1479.79 133.381 1480.49 135.181L1504.46 197.111C1505.73 200.381 1502.22 204.721 1498.31 204.721H1456.07C1454.21 204.721 1452.79 203.671 1452.4 202.011L1442.87 161.391C1442.17 158.431 1438.42 157.761 1435.41 160.071L1433.15 161.801C1431.95 162.731 1431.07 164.001 1430.71 165.331L1421.47 199.811C1420.74 202.521 1417.95 204.721 1415.24 204.721H1381.32C1378.61 204.721 1377 202.521 1377.72 199.811L1424.37 25.6912C1425.09 23.0212 1427.8 20.8412 1430.49 20.7812H1430.51Z" fill="white"/>
<path d="M1513.6 194.251L1521.27 176.331C1523.03 172.231 1527.87 169.711 1531.47 171.021C1540.01 174.131 1552.41 176.911 1560.88 176.911C1571.25 176.911 1575.6 173.881 1576.82 169.321C1580.75 154.651 1524.76 156.931 1535.06 118.491C1542.38 91.1815 1569.18 77.0215 1599.02 77.0215C1611.04 77.0215 1622.34 79.0615 1630.62 81.8815C1633.55 82.8815 1634.69 86.0515 1633.28 89.3615L1626.01 106.471C1624.29 110.511 1619.55 113.061 1615.96 111.861C1608.98 109.521 1599.77 107.371 1592.4 107.371C1585.57 107.371 1579.6 108.891 1578.18 114.201C1574.66 127.351 1630.63 126.091 1620.12 165.281C1612.67 193.091 1586.62 207.251 1552.74 207.251C1539.74 207.251 1525.69 205.091 1516.12 201.691C1513.26 200.671 1512.2 197.501 1513.6 194.241V194.251Z" fill="white"/>
<path d="M142.312 126.934H119.703C114.896 126.934 110.415 129.388 107.831 133.448L69.0332 194.419C66.4494 198.478 61.9753 200.933 57.1612 200.933H14.0931C2.93508 200.933 -3.78285 188.565 2.28911 179.202L66.1026 80.867C68.7 76.8689 73.1401 74.4551 77.9065 74.4551H142.305C150.077 74.4551 156.373 80.7514 156.373 88.5233V112.859C156.373 120.631 150.077 126.927 142.305 126.927L142.312 126.934Z" fill="white"/>
<path d="M266.872 126.934H286.618C292.057 126.934 297.123 129.715 300.047 134.304L337.757 193.562C340.681 198.152 345.746 200.933 351.186 200.933H389.841C402.468 200.933 410.063 186.939 403.195 176.353L341.775 81.7102C338.838 77.1885 333.813 74.4551 328.421 74.4551H266.872C258.08 74.4551 250.954 81.581 250.954 90.3727V111.016C250.954 119.808 258.08 126.934 266.872 126.934Z" fill="white"/>
<path d="M88.0037 0C81.5374 0 76.2949 5.24243 76.2949 11.7088V39.9947C76.2949 46.4611 81.5374 51.7035 88.0037 51.7035H169.652C175.745 51.7035 180.688 56.6468 180.688 62.7391V218.985C180.688 223.167 182.864 227.049 186.427 229.239L200.814 238.065C202.521 239.112 204.677 239.112 206.383 238.065L220.771 229.239C224.334 227.049 226.51 223.167 226.51 218.985V62.7391C226.51 56.6468 231.453 51.7035 237.545 51.7035H320.098C326.565 51.7035 331.807 46.4611 331.807 39.9947V11.7088C331.807 5.24243 326.565 0 320.098 0H88.0105H88.0037Z" fill="white"/>
</svg>
