<svg width="714" height="230" viewBox="0 0 714 230" fill="none" xmlns="http://www.w3.org/2000/svg">
<g clip-path="url(#clip0_5_26)">
<g clip-path="url(#clip1_5_26)">
<path d="M231.179 118.04H214.122C212.562 118.04 211.633 116.668 212.053 114.976L214.475 105.175C214.891 103.492 216.481 102.119 218.04 102.11L277.293 101.622C278.866 101.608 279.803 102.986 279.383 104.687L276.742 115.377C276.322 117.069 274.72 118.442 273.156 118.446H255.279C253.719 118.446 252.113 119.819 251.693 121.516L237.911 177.311C237.49 179.003 235.888 180.376 234.324 180.376H221.4C219.836 180.376 218.911 179.003 219.331 177.306L233.244 121.114C233.664 119.418 232.735 118.045 231.175 118.045L231.179 118.04Z" fill="white"/>
<path d="M260.892 152.692C264.764 137.008 276.734 122.131 295.658 122.131C313.19 122.131 316.634 136.944 310.588 153.892C309.823 156.04 307.725 157.65 305.728 157.65H277.634C276.427 164.687 281.733 166.876 288.111 166.876C291.719 166.876 295.612 166.356 299.337 165.485C301.75 164.919 303.546 166.634 303.213 169.143L302.503 174.542C302.221 176.663 300.502 178.643 298.458 179.222C292.799 180.818 286.656 181.52 281.409 181.52C263.869 181.52 256.275 171.373 260.888 152.688L260.892 152.692ZM296.217 144.387L296.39 143.694C297.159 140.579 297.05 135.854 291.311 135.854C286.526 135.854 282.767 139.891 281.123 144.387H296.221H296.217Z" fill="white"/>
<path d="M334.843 96.4776L349.193 96.1219C350.357 96.0945 351.064 97.1024 350.753 98.3612L340.494 139.895C340.006 141.874 341.953 142.882 343.601 141.5C343.782 141.35 343.946 141.177 344.089 140.99L356.664 124.544C357.202 123.837 358.001 123.399 358.749 123.399H375.142C376.891 123.399 377.303 125.611 375.824 127.071L356.651 145.993C355.886 146.75 355.563 147.831 355.857 148.652L365.935 176.896C366.469 178.387 364.993 180.366 363.349 180.366H345.59C344.808 180.366 344.211 179.888 344.047 179.131L340.04 160.605C339.746 159.255 338.169 158.95 336.903 160.003L335.953 160.792C335.449 161.216 335.079 161.795 334.927 162.402L331.042 178.127C330.735 179.363 329.562 180.366 328.423 180.366H314.162C313.022 180.366 312.345 179.363 312.648 178.127L332.262 98.7169C332.564 97.4992 333.704 96.505 334.835 96.4776H334.843Z" fill="white"/>
<path d="M439.84 180.864C438.461 180.864 437.456 179.801 437.452 178.337L436.703 145.779L418.923 178.835C418.301 180.043 417.073 180.864 415.87 180.864H408.244C406.865 180.864 405.86 179.801 405.856 178.337L405.128 145.911L387.907 178.798C387.289 180.029 386.053 180.864 384.838 180.864H374.697C373.801 180.864 373.049 180.422 372.628 179.651C372.17 178.807 372.203 177.708 372.716 176.714L399.322 124.95C399.953 123.728 401.18 122.902 402.383 122.902H416.43C417.111 122.902 417.725 123.167 418.166 123.65C418.595 124.12 418.826 124.763 418.818 125.47L418.671 139.526L418.393 157.19L427.315 139.084L434.332 124.996C434.954 123.746 436.195 122.907 437.414 122.907H451.213C451.89 122.907 452.508 123.171 452.945 123.65C453.374 124.115 453.605 124.763 453.601 125.461L453.21 177.225C453.197 179.094 451.511 180.864 449.741 180.864H439.84Z" fill="white"/>
<path d="M402.383 123.819H416.43C417.35 123.819 417.985 124.494 417.977 125.461L417.83 139.516L417.502 160.473H417.729L428.059 139.516L435.076 125.429C435.551 124.476 436.51 123.819 437.418 123.819H451.217C452.133 123.819 452.768 124.489 452.764 125.456L452.373 177.22C452.365 178.606 451.065 179.956 449.745 179.956H439.844C438.932 179.956 438.301 179.295 438.297 178.341L437.477 142.549L418.2 178.383C417.72 179.317 416.77 179.961 415.875 179.961H408.248C407.335 179.961 406.705 179.3 406.701 178.346L405.898 142.609L387.18 178.355C386.704 179.304 385.746 179.961 384.842 179.961H374.701C373.36 179.961 372.737 178.565 373.456 177.165L400.062 125.401C400.541 124.467 401.491 123.823 402.387 123.823L402.383 123.819Z" fill="white"/>
<path d="M460.555 152.113C466.109 129.625 481.993 122.131 495.603 122.131C509.213 122.131 521.338 129.857 515.839 152.113C510.655 173.101 494.514 181.634 480.904 181.634C467.295 181.634 455.287 173.448 460.555 152.113ZM496.864 151.881C499.912 139.539 496.641 136.429 492.071 136.429C487.501 136.429 482.691 139.544 479.643 151.881C476.595 164.222 479.895 167.218 484.465 167.218C489.036 167.218 493.816 164.222 496.864 151.881Z" fill="white"/>
<path d="M526.144 142.659C527.598 136.776 528.864 131.362 529.923 126.478C530.293 124.777 531.874 123.358 533.455 123.313L543.92 123.007C545.312 122.966 546.258 124.01 546.161 125.479L545.867 129.971H546.291C550.634 126.168 556.84 122.131 564.601 122.131C578.211 122.131 580.246 132.397 576.744 146.581L569.155 177.302C568.734 178.994 567.132 180.371 565.568 180.371H552.829C551.269 180.371 550.34 178.998 550.76 177.302L558.034 147.849C559.573 141.624 559.073 138.048 554.822 138.048C550.571 138.048 547.128 140.356 544.197 144.045L535.982 177.306C535.562 178.998 533.96 180.376 532.396 180.376H519.656C518.096 180.376 517.167 179.003 517.588 177.306L526.144 142.663V142.659Z" fill="white"/>
<path d="M601.445 96.4776L615.794 96.1219C616.959 96.0945 617.665 97.1024 617.354 98.3612L607.095 139.895C606.608 141.874 608.554 142.882 610.202 141.5C610.383 141.35 610.547 141.177 610.69 140.99L623.265 124.544C623.804 123.837 624.602 123.399 625.351 123.399H641.744C643.493 123.399 643.905 125.611 642.425 127.071L623.253 145.993C622.488 146.75 622.164 147.831 622.458 148.652L632.536 176.896C633.07 178.387 631.594 180.366 629.95 180.366H612.191C611.409 180.366 610.812 179.888 610.648 179.131L606.641 160.605C606.347 159.255 604.77 158.95 603.505 160.003L602.554 160.792C602.05 161.216 601.68 161.795 601.529 162.402L597.644 178.127C597.337 179.363 596.164 180.366 595.024 180.366H580.763C579.624 180.366 578.947 179.363 579.249 178.127L598.863 98.7169C599.166 97.4992 600.305 96.505 601.436 96.4776H601.445Z" fill="white"/>
<path d="M636.379 175.591L639.604 167.419C640.344 165.549 642.379 164.4 643.892 164.997C647.483 166.415 652.696 167.683 656.257 167.683C660.617 167.683 662.446 166.301 662.959 164.222C664.612 157.531 641.071 158.571 645.402 141.04C648.479 128.585 659.747 122.127 672.293 122.127C677.347 122.127 682.098 123.057 685.579 124.343C686.811 124.8 687.29 126.245 686.697 127.755L683.641 135.558C682.918 137.4 680.925 138.563 679.415 138.016C676.481 136.949 672.608 135.968 669.51 135.968C666.638 135.968 664.128 136.662 663.531 139.083C662.051 145.081 685.583 144.506 681.164 162.379C678.032 175.062 667.08 181.52 652.835 181.52C647.369 181.52 641.462 180.535 637.439 178.985C636.236 178.519 635.79 177.074 636.379 175.587V175.591Z" fill="white"/>
<path d="M59.8337 144.89H50.328C48.3069 144.89 46.423 146.01 45.3365 147.861L29.0244 175.668C27.938 177.519 26.0569 178.639 24.0329 178.639H5.92531C1.23403 178.639 -1.59046 172.998 0.962435 168.728L27.7922 123.881C28.8843 122.057 30.7511 120.957 32.7551 120.957H59.8308C63.0985 120.957 65.7456 123.828 65.7456 127.373V138.471C65.7456 142.016 63.0985 144.887 59.8308 144.887L59.8337 144.89Z" fill="white"/>
<path d="M112.204 144.89H120.506C122.793 144.89 124.923 146.159 126.152 148.252L142.007 175.277C143.236 177.371 145.366 178.639 147.653 178.639H163.905C169.214 178.639 172.407 172.257 169.52 167.429L143.696 124.265C142.461 122.203 140.349 120.957 138.081 120.957H112.204C108.507 120.957 105.511 124.206 105.511 128.216V137.631C105.511 141.641 108.507 144.89 112.204 144.89Z" fill="white"/>
<path d="M37.0004 87C34.2817 87 32.0775 89.3909 32.0775 92.34V105.24C32.0775 108.189 34.2817 110.58 37.0004 110.58H71.3286C73.8904 110.58 75.9686 112.835 75.9686 115.613V186.872C75.9686 188.779 76.8835 190.55 78.3815 191.548L84.4304 195.574C85.1481 196.051 86.0546 196.051 86.7718 195.574L92.8211 191.548C94.3192 190.55 95.234 188.779 95.234 186.872V115.613C95.234 112.835 97.3123 110.58 99.8736 110.58H134.582C137.301 110.58 139.505 108.189 139.505 105.24V92.34C139.505 89.3909 137.301 87 134.582 87H37.0032H37.0004Z" fill="white"/>
</g>
</g>
<defs>
<clipPath id="clip0_5_26">
<rect width="714" height="230" fill="white"/>
</clipPath>
<clipPath id="clip1_5_26">
<rect width="687" height="109" fill="white" transform="translate(0 87)"/>
</clipPath>
</defs>
</svg>
