<svg width="512" height="512" viewBox="0 0 512 512" fill="none" xmlns="http://www.w3.org/2000/svg">
<g clip-path="url(#clip0_21_1031)">
<path d="M21.3568 101.349H79.7189C91.2378 143.731 134.932 168.75 177.314 157.231C204.535 149.833 225.798 128.569 233.197 101.349H490.643C502.424 101.349 511.974 91.7988 511.974 80.018C511.974 68.2372 502.424 58.6871 490.643 58.6871H233.197C221.678 16.3044 177.983 -8.71515 135.601 2.8037C108.381 10.202 87.1172 31.4659 79.7189 58.6861H21.3568C9.57593 58.6861 0.0258789 68.2362 0.0258789 80.017C0.0258789 91.7978 9.57593 101.349 21.3568 101.349Z" fill="#07439C"/>
<path d="M490.643 234.669H432.281C420.785 192.293 377.114 167.259 334.739 178.754C307.496 186.144 286.214 207.425 278.824 234.669H21.3568C9.57593 234.669 0.0258789 244.219 0.0258789 255.999C0.0258789 267.78 9.57593 277.33 21.3568 277.33H278.824C290.32 319.706 333.991 344.74 376.366 333.245C403.609 325.855 424.891 304.574 432.281 277.33H490.643C502.424 277.33 511.974 267.78 511.974 255.999C511.974 244.219 502.424 234.669 490.643 234.669Z" fill="#07439C"/>
<path d="M490.643 410.651H233.197C221.678 368.269 177.983 343.25 135.601 354.769C108.381 362.167 87.1172 383.431 79.7189 410.651H21.3568C9.57593 410.651 0.0258789 420.201 0.0258789 431.982C0.0258789 443.763 9.57593 453.313 21.3568 453.313H79.7189C91.2378 495.695 134.932 520.714 177.314 509.195C204.535 501.797 225.798 480.533 233.197 453.313H490.643C502.424 453.313 511.974 443.763 511.974 431.982C511.974 420.201 502.424 410.651 490.643 410.651Z" fill="#07439C"/>
</g>
<defs>
<clipPath id="clip0_21_1031">
<rect width="512" height="512" fill="white"/>
</clipPath>
</defs>
</svg>
