<svg width="555" height="512" viewBox="0 0 555 512" fill="none" xmlns="http://www.w3.org/2000/svg">
<path d="M490.923 0H64.0335C47.0508 0 30.7636 6.74284 18.755 18.7452C6.74637 30.7475 0 47.0261 0 64V362.667C0 379.641 6.74637 395.919 18.755 407.922C30.7636 419.924 47.0508 426.667 64.0335 426.667H256.134V469.333H192.1C186.44 469.333 181.01 471.581 177.008 475.582C173.005 479.582 170.756 485.009 170.756 490.667C170.756 496.325 173.005 501.751 177.008 505.752C181.01 509.752 186.44 512 192.1 512H362.856C368.517 512 373.946 509.752 377.949 505.752C381.952 501.751 384.201 496.325 384.201 490.667C384.201 485.009 381.952 479.582 377.949 475.582C373.946 471.581 368.517 469.333 362.856 469.333H298.823V426.667H490.923C507.906 426.667 524.193 419.924 536.202 407.922C548.211 395.919 554.957 379.641 554.957 362.667V64C554.957 47.0261 548.211 30.7475 536.202 18.7452C524.193 6.74284 507.906 0 490.923 0ZM490.923 384H64.0335C58.3726 384 52.9435 381.752 48.9407 377.752C44.9378 373.751 42.689 368.325 42.689 362.667V320H512.268V362.667C512.268 368.325 510.019 373.751 506.016 377.752C502.013 381.752 496.584 384 490.923 384Z" fill="#07439C"/>
</svg>
