<svg width="1731" height="283" viewBox="0 0 1731 283" fill="none" xmlns="http://www.w3.org/2000/svg">
<path d="M168.441 150.24H141.682C135.992 150.24 130.688 153.145 127.63 157.95L81.7083 230.116C78.6501 234.921 73.3545 237.826 67.6566 237.826H16.6807C3.47399 237.826 -4.47742 223.187 2.70942 212.105L78.2397 95.7147C81.314 90.9825 86.5693 88.1255 92.2109 88.1255H168.433C177.632 88.1255 185.085 95.5779 185.085 104.777V133.58C185.085 142.779 177.632 150.232 168.433 150.232L168.441 150.24Z" fill="#A52B23"/>
<path d="M315.872 150.24H339.243C345.682 150.24 351.677 153.531 355.138 158.964L399.772 229.102C403.233 234.534 409.229 237.826 415.667 237.826H461.42C476.365 237.826 485.354 221.263 477.226 208.732L404.529 96.7127C401.052 91.3608 395.104 88.1255 388.722 88.1255H315.872C305.466 88.1255 297.032 96.5598 297.032 106.966V131.399C297.032 141.805 305.466 150.24 315.872 150.24Z" fill="#A52B23"/>
<path d="M104.162 0C96.5087 0 90.3037 6.20499 90.3037 13.8586V47.3382C90.3037 54.9918 96.5087 61.1968 104.162 61.1968H200.802C208.013 61.1968 213.864 67.0477 213.864 74.2587V259.193C213.864 264.143 216.44 268.738 220.657 271.329L237.686 281.776C239.706 283.015 242.257 283.015 244.278 281.776L261.307 271.329C265.524 268.738 268.1 264.143 268.1 259.193V74.2587C268.1 67.0477 273.95 61.1968 281.161 61.1968H378.872C386.525 61.1968 392.73 54.9918 392.73 47.3382V13.8586C392.73 6.20499 386.525 0 378.872 0H104.17H104.162Z" fill="#063E5A"/>
<path d="M646.633 98.051H606.063C602.353 98.051 600.143 95.041 601.143 91.331L606.903 69.841C607.893 66.151 611.673 63.141 615.383 63.121L756.313 62.051C760.053 62.021 762.283 65.041 761.283 68.771L755.003 92.211C754.003 95.921 750.193 98.931 746.473 98.941H703.953C700.243 98.941 696.423 101.951 695.423 105.671L662.643 228.011C661.643 231.721 657.833 234.731 654.113 234.731H623.373C619.653 234.731 617.453 231.721 618.453 228.001L651.543 104.791C652.543 101.071 650.333 98.061 646.623 98.061L646.633 98.051Z" fill="#063E5A"/>
<path d="M717.303 174.031C726.513 139.641 754.983 107.021 799.993 107.021C841.693 107.021 849.883 139.501 835.503 176.661C833.683 181.371 828.693 184.901 823.943 184.901H757.123C754.253 200.331 766.873 205.131 782.043 205.131C790.623 205.131 799.883 203.991 808.743 202.081C814.483 200.841 818.753 204.602 817.963 210.102L816.273 221.941C815.603 226.591 811.513 230.931 806.653 232.201C793.193 235.701 778.583 237.242 766.103 237.242C724.383 237.242 706.323 214.991 717.293 174.021L717.303 174.031ZM801.323 155.821L801.733 154.302C803.563 147.472 803.303 137.112 789.653 137.112C778.273 137.112 769.333 145.961 765.423 155.821H801.333H801.323Z" fill="#063E5A"/>
<path d="M893.193 50.7812L927.323 50.0012C930.093 49.9412 931.773 52.1512 931.033 54.9112L906.633 145.981C905.473 150.321 910.103 152.531 914.023 149.501C914.453 149.171 914.843 148.791 915.183 148.381L945.093 112.321C946.373 110.771 948.273 109.811 950.053 109.811H989.043C993.203 109.811 994.183 114.661 990.663 117.861L945.063 159.351C943.243 161.011 942.473 163.381 943.173 165.181L967.143 227.111C968.413 230.381 964.903 234.721 960.993 234.721H918.753C916.893 234.721 915.473 233.671 915.083 232.011L905.553 191.391C904.853 188.431 901.103 187.761 898.093 190.071L895.833 191.801C894.633 192.731 893.753 194.001 893.393 195.331L884.153 229.811C883.423 232.521 880.633 234.721 877.923 234.721H844.003C841.293 234.721 839.683 232.521 840.403 229.811L887.053 55.6912C887.773 53.0212 890.483 50.8412 893.173 50.7812H893.193Z" fill="#063E5A"/>
<path d="M1142.92 235.801C1139.64 235.801 1137.25 233.471 1137.24 230.261L1135.46 158.871L1093.17 231.351C1091.69 234.001 1088.77 235.801 1085.91 235.801H1067.77C1064.49 235.801 1062.1 233.471 1062.09 230.261L1060.36 159.161L1019.4 231.271C1017.93 233.971 1014.99 235.801 1012.1 235.801H987.983C985.853 235.801 984.063 234.831 983.063 233.141C981.973 231.291 982.053 228.881 983.273 226.701L1046.55 113.201C1048.05 110.521 1050.97 108.711 1053.83 108.711H1087.24C1088.86 108.711 1090.32 109.291 1091.37 110.351C1092.39 111.381 1092.94 112.791 1092.92 114.341L1092.57 145.161L1091.91 183.891L1113.13 144.191L1129.82 113.301C1131.3 110.561 1134.25 108.721 1137.15 108.721H1169.97C1171.58 108.721 1173.05 109.301 1174.09 110.351C1175.11 111.371 1175.66 112.791 1175.65 114.321L1174.72 227.821C1174.69 231.921 1170.68 235.801 1166.47 235.801H1142.92Z" fill="#A52B23"/>
<path d="M1053.83 110.721H1087.24C1089.43 110.721 1090.94 112.201 1090.92 114.321L1090.57 145.141L1089.79 191.091H1090.33L1114.9 145.141L1131.59 114.251C1132.72 112.161 1135 110.721 1137.16 110.721H1169.98C1172.16 110.721 1173.67 112.191 1173.66 114.311L1172.73 227.811C1172.71 230.851 1169.62 233.811 1166.48 233.811H1142.93C1140.76 233.811 1139.26 232.361 1139.25 230.271L1137.3 151.791L1091.45 230.361C1090.31 232.411 1088.05 233.821 1085.92 233.821H1067.78C1065.61 233.821 1064.11 232.371 1064.1 230.281L1062.19 151.921L1017.67 230.301C1016.54 232.381 1014.26 233.821 1012.11 233.821H987.993C984.803 233.821 983.323 230.761 985.033 227.691L1048.31 114.191C1049.45 112.141 1051.71 110.731 1053.84 110.731L1053.83 110.721Z" fill="#A52B23"/>
<path d="M1192.19 172.771C1205.4 123.461 1243.18 107.031 1275.55 107.031C1307.92 107.031 1336.76 123.971 1323.68 172.771C1311.35 218.791 1272.96 237.501 1240.59 237.501C1208.22 237.501 1179.66 219.551 1192.19 172.771ZM1278.55 172.261C1285.8 145.201 1278.02 138.381 1267.15 138.381C1256.28 138.381 1244.84 145.211 1237.59 172.261C1230.34 199.321 1238.19 205.891 1249.06 205.891C1259.93 205.891 1271.3 199.321 1278.55 172.261Z" fill="#A52B23"/>
<path d="M1348.19 152.031C1351.65 139.131 1354.66 127.262 1357.18 116.552C1358.06 112.822 1361.82 109.712 1365.58 109.612L1390.47 108.941C1393.78 108.851 1396.03 111.142 1395.8 114.362L1395.1 124.211H1396.11C1406.44 115.871 1421.2 107.021 1439.66 107.021C1472.03 107.021 1476.87 129.531 1468.54 160.631L1450.49 227.992C1449.49 231.702 1445.68 234.721 1441.96 234.721H1411.66C1407.95 234.721 1405.74 231.712 1406.74 227.992L1424.04 163.411C1427.7 149.761 1426.51 141.922 1416.4 141.922C1406.29 141.922 1398.1 146.981 1391.13 155.071L1371.59 228.001C1370.59 231.711 1366.78 234.732 1363.06 234.732H1332.76C1329.05 234.732 1326.84 231.721 1327.84 228.001L1348.19 152.042V152.031Z" fill="#A52B23"/>
<path d="M1527.29 50.7812L1561.42 50.0012C1564.19 49.9412 1565.87 52.1512 1565.13 54.9112L1540.73 145.981C1539.57 150.321 1544.2 152.531 1548.12 149.501C1548.55 149.171 1548.94 148.791 1549.28 148.381L1579.19 112.321C1580.47 110.771 1582.37 109.811 1584.15 109.811H1623.14C1627.3 109.811 1628.28 114.661 1624.76 117.861L1579.16 159.351C1577.34 161.011 1576.57 163.381 1577.27 165.181L1601.24 227.111C1602.51 230.381 1599 234.721 1595.09 234.721H1552.85C1550.99 234.721 1549.57 233.671 1549.18 232.011L1539.65 191.391C1538.95 188.431 1535.2 187.761 1532.19 190.071L1529.93 191.801C1528.73 192.731 1527.85 194.001 1527.49 195.331L1518.25 229.811C1517.52 232.521 1514.73 234.721 1512.02 234.721H1478.1C1475.39 234.721 1473.78 232.521 1474.5 229.811L1521.15 55.6912C1521.87 53.0212 1524.58 50.8412 1527.27 50.7812H1527.29Z" fill="#A52B23"/>
<path d="M1610.38 224.241L1618.05 206.321C1619.81 202.221 1624.65 199.701 1628.25 201.011C1636.79 204.121 1649.19 206.901 1657.66 206.901C1668.03 206.901 1672.38 203.871 1673.6 199.311C1677.53 184.641 1621.54 186.921 1631.84 148.481C1639.16 121.171 1665.96 107.011 1695.8 107.011C1707.82 107.011 1719.12 109.051 1727.4 111.871C1730.33 112.871 1731.47 116.041 1730.06 119.351L1722.79 136.461C1721.07 140.501 1716.33 143.051 1712.74 141.851C1705.76 139.511 1696.55 137.361 1689.18 137.361C1682.35 137.361 1676.38 138.881 1674.96 144.191C1671.44 157.341 1727.41 156.081 1716.9 195.271C1709.45 223.081 1683.4 237.241 1649.52 237.241C1636.52 237.241 1622.47 235.081 1612.9 231.681C1610.04 230.661 1608.98 227.491 1610.38 224.231V224.241Z" fill="#A52B23"/>
</svg>
